<?xml version="1.0" encoding="UTF-8"?>
<svg version="1.1" xmlns="http://www.w3.org/2000/svg" width="512" height="512">
<path d="M0 0 C1.09809998 0.00456207 1.09809998 0.00456207 2.21838379 0.00921631 C15.9350913 0.09274159 29.15206765 1.44251114 42.5625 4.4375 C43.93607666 4.74300781 43.93607666 4.74300781 45.33740234 5.0546875 C81.23958072 13.35606541 116.48278145 30.27316195 146.5625 51.4375 C147.96874289 52.41928101 149.3749935 53.40105098 150.78125 54.3828125 C157.7913061 59.29558535 164.73856157 64.26819547 171.5625 69.4375 C175.09827899 67.69749665 178.3533537 65.69754281 181.66015625 63.55859375 C185.13801456 61.50901401 188.16442352 61.22311076 192.125 61.125 C193.09566406 61.08761719 194.06632812 61.05023438 195.06640625 61.01171875 C205.32686026 62.26131594 211.56135295 67.56774468 218.5859375 74.76953125 C219.94883408 76.13448982 219.94883408 76.13448982 221.33926392 77.52702332 C223.24949467 79.44191287 225.1493309 81.36634036 227.04150391 83.29907227 C229.45352102 85.76216379 231.88492712 88.2049331 234.32373619 90.641469 C236.66958303 92.98833246 239.00251977 95.34780696 241.3359375 97.70703125 C242.20262054 98.57705276 243.06930359 99.44707428 243.96224976 100.34346008 C252.21985517 108.79659731 255.99082701 115.3275362 255.91796875 127.26171875 C255.35195322 132.31853883 253.19474188 136.1591801 250.5625 140.4375 C249.73685547 141.81615234 249.73685547 141.81615234 248.89453125 143.22265625 C248.45496094 143.95355469 248.01539063 144.68445313 247.5625 145.4375 C248.68785156 146.90896484 248.68785156 146.90896484 249.8359375 148.41015625 C272.2650856 177.9074372 290.62110955 209.65711763 303.5625 244.4375 C303.83143066 245.14777344 304.10036133 245.85804688 304.37744141 246.58984375 C307.4902946 254.89078561 309.64313313 263.39971351 311.75 272 C312.00040039 273.01707031 312.25080078 274.03414063 312.50878906 275.08203125 C315.70200487 288.56353779 316.97462371 301.69523062 316.9375 315.5 C316.93668427 316.64728577 316.93668427 316.64728577 316.93585205 317.81774902 C316.86295363 340.18998154 313.07880187 361.36144955 300.5625 380.4375 C298.27523777 381.58113112 296.73397573 381.70251932 294.1875 381.8125 C293.41664063 381.86148437 292.64578125 381.91046875 291.8515625 381.9609375 C289.5625 381.4375 289.5625 381.4375 287.39453125 379.609375 C284.74932046 375.02960706 284.32295893 370.50453444 283.625 365.3125 C275.72969157 313.57072405 250.35525485 265.21797795 219.5625 223.4375 C218.78390625 222.3753125 218.0053125 221.313125 217.203125 220.21875 C213.11326054 214.70758513 208.91250708 209.28286973 204.6875 203.875 C204.2227124 203.27856689 203.7579248 202.68213379 203.27905273 202.06762695 C201.16562666 199.37932423 199.06951141 196.77018281 196.5625 194.4375 C196.03140625 194.71464844 195.5003125 194.99179688 194.953125 195.27734375 C194.24671875 195.63957031 193.5403125 196.00179687 192.8125 196.375 C192.11640625 196.73464844 191.4203125 197.09429687 190.703125 197.46484375 C186.01878354 199.59331277 180.65324643 200.47356719 175.66733509 198.80221069 C173.00385551 198.03406444 171.30934732 197.93848775 168.5625 198.4375 C163.77017302 201.6801666 159.90174482 205.80508953 155.87913513 209.93850708 C154.61289187 211.20253804 153.34444638 212.46436612 152.07399613 213.72416866 C148.58671253 217.19489245 145.13143329 220.69603476 141.68048394 224.20283699 C137.95420726 227.97841346 134.19906739 231.72508351 130.44726562 235.4752655 C123.94868156 241.97884154 117.46852192 248.50032054 111.00030327 255.03409195 C101.64115224 264.48777301 92.25309284 273.91231049 82.85742641 283.32968484 C67.60541383 298.61823516 52.37477035 313.92788682 37.15844727 329.25195312 C22.39215096 344.12267416 7.61970181 358.98722041 -7.16381836 373.84082031 C-8.52899822 375.21248534 -8.52899822 375.21248534 -9.92175747 376.61186077 C-19.85852262 386.595391 -29.79750989 396.57670543 -39.73882198 406.55570793 C-40.61267604 407.43288659 -41.4865301 408.31006524 -42.38686458 409.21382507 C-45.88037197 412.72058015 -49.37389047 416.2273241 -52.86767911 419.73379897 C-63.09674713 430.00015835 -73.31886759 440.27332383 -83.52865004 450.55886452 C-89.93439072 457.01188082 -96.34492367 463.46010739 -102.75923366 469.90460582 C-106.46040055 473.62371358 -110.15889839 477.34538529 -113.85072899 481.07376289 C-117.23125307 484.4877459 -120.61865061 487.89475021 -124.01157974 491.29640363 C-125.23687191 492.52736394 -126.45958266 493.7609004 -127.67941231 494.99727406 C-144.98415887 512.52939954 -144.98415887 512.52939954 -158.50170898 512.81860352 C-170.6106164 512.78479109 -178.22338868 510.51072836 -187.234375 501.953125 C-195.1198138 492.94918425 -196.12451898 482.93021032 -195.62548828 471.45751953 C-195.23503542 467.26192609 -193.69648884 463.93056607 -191.4375 460.4375 C-190.86017067 459.52006435 -190.28284135 458.6026287 -189.68801719 457.65739197 C-187.40634131 454.39292019 -184.99199761 451.76186377 -182.16359997 448.9621973 C-181.64204265 448.44312584 -181.12048533 447.92405437 -180.58312324 447.38925347 C-178.83776936 445.6546292 -177.08529956 443.92737839 -175.33280945 442.19996643 C-174.06600188 440.94374698 -172.79966143 439.68705633 -171.53374797 438.42993587 C-168.78219931 435.69941397 -166.02749479 432.97212957 -163.27034378 430.24726486 C-158.78413746 425.81347306 -154.30497518 421.37260882 -149.826828 416.93067932 C-145.0037023 412.14726387 -140.18000074 407.3644343 -135.35391366 402.58400643 C-123.39032732 390.73351657 -111.44178911 378.86801058 -99.50239563 366.9931488 C-98.63888236 366.13436459 -97.77536909 365.27558038 -96.88568874 364.39077241 C-92.46971554 359.99897695 -88.0539092 355.60701378 -83.63822329 351.21492946 C-74.54087867 342.16623085 -65.44313279 333.11793674 -56.34350586 324.0715332 C-55.43037743 323.16373275 -54.51724901 322.25593229 -53.57645003 321.32062273 C-38.77433172 306.60643627 -23.94708211 291.91780904 -9.11135032 277.23752404 C6.12027966 262.16415014 21.32132213 247.06041509 36.49518555 231.92888969 C45.85556959 222.59667781 55.2395013 213.2894933 64.65503534 204.01292115 C71.10465669 197.65411091 77.52462682 191.26634458 83.92201028 184.85498536 C87.61435209 181.15636002 91.31850764 177.47203066 95.05866241 173.82170868 C98.48413507 170.47796495 101.8704919 167.09917848 105.2298012 163.68900656 C106.4498802 162.46356126 107.68358371 161.25149711 108.93192188 160.05485148 C116.0056576 153.42664289 116.0056576 153.42664289 118.991135 144.4728049 C118.88657408 141.82441997 118.5179447 139.43444751 118.05631036 136.80376571 C117.11414227 130.38108121 119.72651158 125.05743363 122.5625 119.4375 C122.11559814 119.09605957 121.66869629 118.75461914 121.20825195 118.40283203 C119.86558683 117.37688671 118.52307116 116.35074579 117.18066406 115.32446289 C115.62462808 114.13535746 114.06797253 112.94706238 112.51074219 111.75952148 C109.08152368 109.14191281 105.65459418 106.52432486 102.27734375 103.83984375 C86.37242088 91.2877373 69.09478443 80.55034438 51.5625 70.4375 C50.7060791 69.94008301 49.8496582 69.44266602 48.96728516 68.93017578 C16.74606007 50.34491106 -19.63133697 36.08529367 -56.80859375 32.125 C-60.18457946 31.24212706 -61.99596738 29.91391166 -64.4375 27.4375 C-65.06640625 25.21875 -65.06640625 25.21875 -65 22.9375 C-65.00128906 22.1846875 -65.00257813 21.431875 -65.00390625 20.65625 C-64.20987517 17.54583859 -62.92973449 16.45077086 -60.4375 14.4375 C-58.12895809 13.15840509 -55.89638103 12.01695642 -53.5 10.9375 C-52.83540771 10.63489258 -52.17081543 10.33228516 -51.48608398 10.02050781 C-35.01346756 2.69410995 -17.89302501 -0.15953015 0 0 Z M-20.4375 19.4375 C-17.83909862 20.80102829 -15.33458875 21.86355449 -12.5234375 22.69921875 C-11.39675659 23.0408606 -11.39675659 23.0408606 -10.24731445 23.3894043 C-9.44382568 23.63215088 -8.64033691 23.87489746 -7.8125 24.125 C45.43651679 40.67365565 92.65906042 71.42213676 135.5625 106.4375 C140.96430724 101.92298042 146.02080288 97.16214159 151 92.1875 C152.09731445 91.10855469 152.09731445 91.10855469 153.21679688 90.0078125 C153.90708984 89.31945312 154.59738281 88.63109375 155.30859375 87.921875 C155.93435303 87.30022461 156.5601123 86.67857422 157.20483398 86.03808594 C158.77812157 84.5331052 158.77812157 84.5331052 158.5625 82.4375 C157.13340295 81.10374928 157.13340295 81.10374928 155.22265625 79.78515625 C154.49804199 79.26147461 153.77342773 78.73779297 153.02685547 78.19824219 C152.23424316 77.63782227 151.44163086 77.07740234 150.625 76.5 C149.8117627 75.92024414 148.99852539 75.34048828 148.16064453 74.74316406 C135.68319289 65.91311606 122.89500641 57.77790277 109.46386719 50.47851562 C107.65507491 49.4881856 105.86185069 48.47425102 104.0703125 47.453125 C81.08633363 34.53411008 55.38905922 25.59245014 29.5625 20.4375 C28.45261719 20.21191406 27.34273437 19.98632812 26.19921875 19.75390625 C11.42289681 17.2826644 -5.70920882 16.66444865 -20.4375 19.4375 Z M184.80249023 83.33520508 C183.93977509 84.16073883 183.07705994 84.98627258 182.1882019 85.83682251 C181.32172028 86.69504608 180.45523865 87.55326965 179.5625 88.4375 C178.75684601 89.2145932 177.95119202 89.9916864 177.12112427 90.79232788 C174.63570149 93.20082967 172.17614283 95.63320765 169.72265625 98.07421875 C168.8338829 98.95729202 167.94510956 99.8403653 167.02940369 100.75019836 C165.1701636 102.60006896 163.31231324 104.4513373 161.45581055 106.30395508 C159.08534504 108.66624304 156.70843123 111.02161625 154.327981 113.37381268 C152.03630245 115.64235601 149.75521603 117.92150619 147.47265625 120.19921875 C146.6226857 121.0368425 145.77271515 121.87446625 144.89698792 122.73747253 C139.0932876 128.3414239 139.0932876 128.3414239 135.5625 135.4375 C136.20786485 141.95290862 141.69865812 146.14812682 146.11328125 150.51953125 C146.96423874 151.37431564 147.81519623 152.22910004 148.69194031 153.10978699 C150.49015014 154.91071444 152.29340388 156.70661778 154.10131836 158.49780273 C156.86852502 161.24357517 159.61373544 164.01004433 162.35742188 166.77929688 C164.10809366 168.52732588 165.86000563 170.27411391 167.61328125 172.01953125 C168.84477654 173.26317192 168.84477654 173.26317192 170.10115051 174.53193665 C171.26211494 175.67398811 171.26211494 175.67398811 172.4465332 176.83911133 C173.12222855 177.5116243 173.79792389 178.18413727 174.49409485 178.87702942 C176.91421442 180.70284454 178.55412288 181.19657833 181.5625 181.4375 C188.88640529 178.45072612 193.99031875 172.40881192 199.45703125 166.87109375 C200.49540099 165.82966142 201.5343669 164.7888232 202.57389832 163.74855042 C204.74097472 161.57689223 206.90307386 159.40044459 209.0612793 157.2199707 C211.82622184 154.4266415 214.59986528 151.64215994 217.37680531 148.8607626 C219.51769898 146.71571269 221.65574726 144.56784689 223.79276085 142.41893196 C224.81496844 141.39103461 225.83764083 140.36359927 226.86078835 139.3366375 C228.28717056 137.9033769 229.70971508 136.46630009 231.13208008 135.02905273 C231.94147537 134.21282944 232.75087067 133.39660614 233.58479309 132.5556488 C235.93657743 130.0368584 237.41229128 128.1551639 238.125 124.75 C237.51283818 121.14504703 236.89261257 120.35182708 234.5168457 117.72827148 C233.87977692 117.02467499 233.24270813 116.32107849 232.58633423 115.59616089 C229.36293156 112.158017 226.06780356 108.80004814 222.73046875 105.47265625 C222.01264725 104.75387802 221.29482574 104.03509979 220.55525208 103.29454041 C219.05311748 101.7917307 217.54974103 100.29016134 216.04516602 98.78979492 C213.73531804 96.4853524 211.43091909 94.17555611 209.12695312 91.86523438 C207.66177928 90.4007205 206.19629571 88.93651642 204.73046875 87.47265625 C204.04091599 86.78107925 203.35136322 86.08950226 202.64091492 85.37696838 C202.00297501 84.74218063 201.3650351 84.10739288 200.70776367 83.45336914 C199.86673347 82.61353233 199.86673347 82.61353233 199.00871277 81.75672913 C196.87323171 79.8087524 195.6452561 79.44645922 192.73500061 79.13139343 C188.78447267 79.51256989 187.61996528 80.59595278 184.80249023 83.33520508 Z M230.31591797 160.45703125 C228.94910889 161.83955078 228.94910889 161.83955078 227.5546875 163.25 C227.06920441 163.73831299 226.58372131 164.22662598 226.08352661 164.72973633 C224.53010869 166.29437218 222.98377781 167.86581049 221.4375 169.4375 C220.38717739 170.49785033 219.33640178 171.55775215 218.28515625 172.6171875 C215.70565584 175.21876956 213.13246863 177.82649773 210.5625 180.4375 C212.67971721 183.65815106 214.77577794 186.83567035 217.2265625 189.8125 C217.70303223 190.39676758 218.17950195 190.98103516 218.67041016 191.58300781 C219.1710498 192.19499023 219.67168945 192.80697266 220.1875 193.4375 C225.94078737 200.57387278 231.38353544 207.87449179 236.5625 215.4375 C237.22056641 216.39736816 237.87863281 217.35723633 238.55664062 218.34619141 C248.56889809 233.01268792 258.07978085 247.81951986 266.5625 263.4375 C267.21871338 264.62666016 267.21871338 264.62666016 267.88818359 265.83984375 C280.24893016 288.26872914 289.35171012 311.89394189 296.5625 336.4375 C296.8925 336.4375 297.2225 336.4375 297.5625 336.4375 C301.40188305 319.77580863 299.25955361 300.02775993 295.5625 283.4375 C295.38557617 282.63054687 295.20865234 281.82359375 295.02636719 280.9921875 C285.49536877 238.45660908 265.03396393 200.47162957 239.5625 165.4375 C239.12389648 164.79329102 238.68529297 164.14908203 238.23339844 163.48535156 C237.05659954 161.76965281 235.81414601 160.09938451 234.5625 158.4375 C232.30691812 158.21465765 232.30691812 158.21465765 230.31591797 160.45703125 Z M126.6689167 166.19965553 C126.1520193 166.7145003 125.6351219 167.22934507 125.10256094 167.7597912 C123.34780621 169.50883104 121.59668211 171.26146276 119.8454895 173.0140686 C118.58478541 174.27219162 117.32386584 175.53009875 116.06274784 176.78780687 C112.57963082 180.26282019 109.09969193 183.74100134 105.62025666 187.21970057 C101.87416266 190.96394981 98.12522152 194.70534648 94.37667847 198.44714355 C86.17151634 206.6386971 77.97015791 214.83405192 69.76959848 223.03021288 C64.65251818 228.14453455 59.53469932 233.25811672 54.41674423 238.37156296 C40.25719991 252.51891043 26.09860544 266.66720699 11.94346809 280.818964 C10.58326924 282.17883351 10.58326924 282.17883351 9.19559162 283.56617513 C8.28657201 284.47497645 7.37755241 285.38377778 6.44098675 286.32011855 C4.59884297 288.16181886 2.75669764 290.00351762 0.91455078 291.84521484 C0.00077509 292.7587691 -0.91300059 293.67232336 -1.85446645 294.61356108 C-16.66171996 309.41686645 -31.47571342 324.21340725 -46.29263197 339.00703807 C-61.49131955 354.1820299 -76.68439274 369.36262377 -91.87182057 384.54888475 C-100.40451708 393.0806634 -108.9396286 401.60999501 -117.4809227 410.13316727 C-124.75442101 417.39128843 -132.02278902 424.65449796 -139.28446518 431.92444785 C-142.99134736 435.63524522 -146.7006352 439.34355242 -150.41646576 443.04539108 C-153.81672517 446.43296353 -157.21001698 449.82735512 -160.59784378 453.22735982 C-161.82605707 454.45753916 -163.05682313 455.68517607 -164.29035281 456.91002448 C-165.96465667 458.57328672 -167.62947442 460.24550644 -169.29223442 461.92029762 C-170.22010856 462.84757467 -171.14798269 463.77485172 -172.10397422 464.73022807 C-176.58115362 469.92448915 -178.01077479 474.32722677 -177.7890625 481.0390625 C-177.07438002 485.91478518 -174.38526305 488.60256588 -170.8125 491.75 C-167.55105049 494.0673457 -165.71320246 494.63468477 -161.75 494.75 C-160.92113281 494.78738281 -160.09226562 494.82476562 -159.23828125 494.86328125 C-152.85833199 493.89338659 -148.22956985 489.60415933 -143.81286716 485.18201065 C-143.28983628 484.6624413 -142.7668054 484.14287195 -142.22792509 483.60755807 C-140.48368606 481.87123612 -138.75032308 480.12445762 -137.01673889 478.37750244 C-135.75327309 477.11534542 -134.48914801 475.85384808 -133.2244224 474.59295344 C-129.75599131 471.13122504 -126.29697503 467.66022114 -122.83942878 464.18762565 C-119.10738797 460.44262574 -115.36667746 456.70630334 -111.62701416 452.96891785 C-105.15063903 446.49411553 -98.67977802 440.01384445 -92.21263313 433.5298233 C-82.86222957 424.15503543 -73.50355001 414.78854548 -64.14283185 405.42405805 C-48.95580147 390.23046231 -33.77548225 375.03017958 -18.59936523 359.82568359 C-3.85743841 345.05621842 10.88763696 330.28990836 25.63696289 315.52783203 C26.54615748 314.61784927 27.45535206 313.70786652 28.392098 312.77030852 C32.95329366 308.20519774 37.51455135 303.64014893 42.07583988 299.07513094 C79.91434746 261.2055248 117.74197213 223.32506198 155.5625 185.4375 C154.60962612 184.31925701 153.65581604 183.20181174 152.70161438 182.08470154 C152.17056249 181.46233832 151.63951059 180.83997511 151.09236622 180.1987524 C149.23637259 178.06204711 147.29237918 176.03791058 145.29296875 174.03515625 C144.54982422 173.29072266 143.80667969 172.54628906 143.04101562 171.77929688 C141.90696289 170.65104492 141.90696289 170.65104492 140.75 169.5 C139.97462891 168.72076172 139.19925781 167.94152344 138.40039062 167.13867188 C137.2953418 166.03555664 137.2953418 166.03555664 136.16796875 164.91015625 C135.49918701 164.24250244 134.83040527 163.57484863 134.14135742 162.88696289 C130.84505134 159.86080405 129.33392001 163.53823362 126.6689167 166.19965553 Z " fill="#000000" transform="translate(195.4375,-0.4375)"/>
</svg>