<?xml version="1.0" encoding="UTF-8"?>
<svg version="1.1" xmlns="http://www.w3.org/2000/svg" width="512" height="512">
<path d="M0 0 C2.23671063 -0.00434829 4.47140485 -0.04062947 6.70776367 -0.07861328 C16.06143644 -0.15374528 23.86185096 0.62361753 31.65893555 6.22998047 C32.54452148 7.16583984 32.54452148 7.16583984 33.44799805 8.12060547 C34.35678711 9.04099609 34.35678711 9.04099609 35.28393555 9.97998047 C39.91686448 16.17070647 41.77261331 22.28312044 42.82299805 29.87060547 C42.94803711 30.69302734 43.07307617 31.51544922 43.2019043 32.36279297 C43.50435304 34.36360775 43.79042242 36.36688741 44.07299805 38.37060547 C45.44591672 38.8557034 46.82146508 39.3333606 48.19799805 39.80810547 C48.96370117 40.07494141 49.7294043 40.34177734 50.51831055 40.61669922 C53.46419442 41.48605027 55.99212169 42.20010652 59.07299805 42.37060547 C61.9176809 40.8719607 61.9176809 40.8719607 64.51049805 38.62060547 C72.42117372 32.47024297 79.86247303 29.42452535 90.07299805 30.37060547 C104.19346598 32.85307483 115.26953784 44.87693281 123.9440918 55.70654297 C128.78582985 62.97633363 130.07197043 71.06187768 128.71362305 79.64013672 C127.19101822 86.00832853 124.07476059 90.68702717 120.03417969 95.72875977 C117.92334881 98.48960758 117.05365288 99.93395747 117.2097168 103.45654297 C117.49459961 104.41818359 117.77948242 105.37982422 118.07299805 106.37060547 C118.32178711 107.21365234 118.57057617 108.05669922 118.8269043 108.92529297 C119.2271582 110.07384766 119.2271582 110.07384766 119.63549805 111.24560547 C119.90491211 112.02677734 120.17432617 112.80794922 120.4519043 113.61279297 C120.65686523 114.19287109 120.86182617 114.77294922 121.07299805 115.37060547 C122.27956055 115.54076172 123.48612305 115.71091797 124.72924805 115.88623047 C126.34393894 116.13031165 127.95851648 116.37514354 129.57299805 116.62060547 C130.36448242 116.73017578 131.1559668 116.83974609 131.97143555 116.95263672 C139.48504213 118.12278856 145.8704978 120.59415039 151.32299805 126.05810547 C151.9469043 126.66009766 152.57081055 127.26208984 153.21362305 127.88232422 C159.28689824 136.00979543 159.7618602 144.07857446 159.7043457 153.91674805 C159.6980358 156.16962665 159.74499819 158.41720411 159.7956543 160.66943359 C159.88454437 170.8888389 158.28604807 179.31350241 151.36157227 187.35913086 C143.70460578 194.8812317 131.4512047 197.37060547 121.07299805 197.37060547 C120.96987305 198.05123047 120.86674805 198.73185547 120.76049805 199.43310547 C120.07299805 202.37060547 120.07299805 202.37060547 118.44799805 205.93310547 C116.88346553 209.75563223 116.88346553 209.75563223 118.07299805 213.37060547 C119.31915114 215.27615795 120.61724095 217.14814415 121.94799805 218.99560547 C127.24614343 226.80989517 130.47034854 234.81145775 129.07299805 244.37060547 C127.14741537 252.37094303 123.82683194 257.63617743 118.07299805 263.37060547 C116.97646423 264.52414668 115.88155739 265.67923559 114.7878418 266.83544922 C113.57192087 268.0986396 112.3544563 269.36034581 111.13549805 270.62060547 C110.27625732 271.52516479 110.27625732 271.52516479 109.3996582 272.44799805 C102.7707519 279.16021029 95.78321755 282.47355542 86.32299805 282.62060547 C76.98194484 282.4963593 71.35078524 279.14943477 63.6862793 273.99169922 C61.13062805 272.40635502 58.97741086 271.16019941 56.07299805 270.37060547 C53.67128373 270.97930289 53.67128373 270.97930289 51.44799805 272.24560547 C47.32465368 274.37060547 47.32465368 274.37060547 44.07299805 274.37060547 C43.92604492 275.69511719 43.92604492 275.69511719 43.77612305 277.04638672 C42.3316532 288.63950247 40.45159421 299.53734617 31.07299805 307.37060547 C21.9476696 313.08819407 13.93649375 313.57342382 3.38549805 313.62060547 C1.68490234 313.65154297 1.68490234 313.65154297 -0.05004883 313.68310547 C-11.11059203 313.73410509 -19.62607496 311.89935321 -27.92700195 304.37060547 C-34.04098197 298.25662545 -35.80428183 290.36101239 -36.92700195 282.05810547 C-37.75423005 277.7724096 -38.13665558 275.97445284 -41.6418457 273.29638672 C-47.10762932 270.66874725 -47.10762932 270.66874725 -52.9074707 271.02685547 C-53.57391602 271.47029297 -54.24036133 271.91373047 -54.92700195 272.37060547 C-55.92473633 272.98935547 -56.9224707 273.60810547 -57.95043945 274.24560547 C-60.18110076 275.65991753 -62.41027491 277.07657794 -64.63793945 278.49560547 C-72.29733004 282.8620039 -79.7282354 283.37877845 -88.3527832 281.97607422 C-101.04104862 278.48285727 -113.10271903 265.31626478 -119.80981445 254.44091797 C-123.70034769 247.23118855 -124.18399576 238.68498435 -122.30981445 230.76123047 C-120.48003565 225.67671238 -117.8891092 221.99223746 -114.48950195 217.80810547 C-111.60629153 214.21632403 -111.60629153 214.21632403 -111.0090332 209.85107422 C-111.79283076 207.52284798 -112.74919769 205.52314429 -113.92700195 203.37060547 C-114.12293945 202.50306641 -114.31887695 201.63552734 -114.52075195 200.74169922 C-115.65995301 198.27973152 -115.65995301 198.27973152 -117.64233398 197.66357422 C-119.93703037 197.10970007 -122.22194453 196.68650679 -124.55200195 196.30810547 C-135.90637726 194.35335717 -142.97766148 190.83387786 -149.92700195 181.37060547 C-154.40218029 173.6084858 -154.13813174 165.37545653 -154.17700195 156.68310547 C-154.20793945 154.98250977 -154.20793945 154.98250977 -154.23950195 153.24755859 C-154.29328023 141.584395 -152.18704536 132.86665012 -143.92700195 124.37060547 C-138.45003415 119.13408991 -131.39559071 118.12070474 -124.18554688 116.80102539 C-123.42346924 116.65640869 -122.6613916 116.51179199 -121.8762207 116.36279297 C-120.84501099 116.18272705 -120.84501099 116.18272705 -119.79296875 115.99902344 C-115.84409534 114.66912678 -113.90829498 111.1973529 -112.11450195 107.62060547 C-111.0231252 104.59213565 -110.43886353 102.54978508 -111.69995117 99.50341797 C-113.67237944 96.10603179 -115.99242814 93.04251533 -118.40356445 89.94873047 C-123.48593108 83.23042854 -123.62895461 75.48085848 -122.92700195 67.37060547 C-120.71280862 57.68957037 -114.02297157 51.07924044 -107.23950195 44.24560547 C-106.47444336 43.44767578 -105.70938477 42.64974609 -104.92114258 41.82763672 C-98.13192519 34.97550325 -90.67374077 30.33916795 -80.80200195 30.12060547 C-71.36970286 30.32031213 -64.74573456 33.67839433 -57.48071289 39.40942383 C-54.27463514 41.8502806 -54.27463514 41.8502806 -50.37231445 42.23388672 C-49.56536133 41.94900391 -48.7584082 41.66412109 -47.92700195 41.37060547 C-47.04399414 41.12181641 -46.16098633 40.87302734 -45.2512207 40.61669922 C-44.38110352 40.34986328 -43.51098633 40.08302734 -42.61450195 39.80810547 C-41.73149414 39.53869141 -40.84848633 39.26927734 -39.9387207 38.99169922 C-39.27485352 38.78673828 -38.61098633 38.58177734 -37.92700195 38.37060547 C-37.88961914 37.77634766 -37.85223633 37.18208984 -37.8137207 36.56982422 C-36.98875991 26.16884788 -35.10327551 16.33735409 -27.92700195 8.37060547 C-19.01832725 1.04883754 -11.2506534 -0.00244659 0 0 Z M-8.92700195 28.37060547 C-9.77229745 30.77024448 -9.77229745 30.77024448 -10.2434082 33.60498047 C-10.55375 35.17892578 -10.55375 35.17892578 -10.87036133 36.78466797 C-11.17683594 38.43595703 -11.17683594 38.43595703 -11.48950195 40.12060547 C-14.3906742 55.24622175 -14.3906742 55.24622175 -15.92700195 58.37060547 C-18.07543945 59.56982422 -18.07543945 59.56982422 -20.92700195 60.37060547 C-22.11551758 60.81017578 -23.3040332 61.24974609 -24.52856445 61.70263672 C-25.17833252 61.94151611 -25.82810059 62.18039551 -26.49755859 62.42651367 C-32.10182266 64.49040129 -37.59372049 66.60869656 -42.98950195 69.18310547 C-52.09116801 73.34115826 -52.09116801 73.34115826 -57.1184082 71.62060547 C-63.01667985 68.89395662 -68.29410454 65.19514254 -73.54858398 61.40625 C-76.01574244 59.63319251 -78.02123198 58.33919546 -80.92700195 57.37060547 C-86.40880569 60.88611004 -92.53926724 66.80093993 -95.92700195 72.37060547 C-95.46928852 75.49277816 -94.29104872 77.59746779 -92.4934082 80.15576172 C-92.00936523 80.85121094 -91.52532227 81.54666016 -91.02661133 82.26318359 C-90.51936523 82.97925781 -90.01211914 83.69533203 -89.48950195 84.43310547 C-88.49078994 85.86148103 -87.4920915 87.28986608 -86.4934082 88.71826172 C-86.04940674 89.34740479 -85.60540527 89.97654785 -85.14794922 90.62475586 C-82.22071589 94.81044783 -81.26693289 97.04139537 -81.34106445 102.09716797 C-82.42172068 108.13443407 -85.28363159 113.4980965 -87.90356445 119.00341797 C-89.92641907 123.26041538 -91.44844484 127.5774371 -92.74731445 132.10888672 C-94.51432805 135.49663794 -96.60501996 137.58259982 -99.92700195 139.37060547 C-104.12178855 140.59143251 -108.36791096 141.29948383 -112.67700195 141.99560547 C-114.9445448 142.37225681 -117.21032228 142.75974665 -119.47387695 143.15966797 C-120.97192871 143.40257568 -120.97192871 143.40257568 -122.50024414 143.65039062 C-125.26906608 144.19053917 -125.26906608 144.19053917 -126.92700195 147.37060547 C-127.40092613 150.52154039 -127.34321965 153.68771955 -127.36450195 156.87060547 C-127.39737305 157.73814453 -127.43024414 158.60568359 -127.46411133 159.49951172 C-127.60481815 164.40239301 -127.60481815 164.40239301 -125.0559082 168.33935547 C-120.57804942 169.81520406 -116.07475755 170.61622423 -111.42700195 171.37060547 C-98.04102371 173.5432952 -98.04102371 173.5432952 -94.3293457 178.50732422 C-92.46517582 182.31355408 -90.96781583 186.21361965 -89.48950195 190.18310547 C-87.76995984 194.79302399 -86.02868927 199.27902952 -83.74731445 203.64404297 C-81.34113111 208.35077804 -80.78394041 212.15731801 -81.92700195 217.37060547 C-84.36005414 222.37267453 -87.68415749 226.6938267 -90.9855957 231.14794922 C-91.62625977 232.02580078 -92.26692383 232.90365234 -92.92700195 233.80810547 C-93.52512695 234.59056641 -94.12325195 235.37302734 -94.73950195 236.17919922 C-96.13567858 238.24431701 -96.13567858 238.24431701 -95.67407227 240.30322266 C-94.32975366 244.02338278 -91.42521026 246.42587678 -88.67700195 249.18310547 C-88.10336914 249.79347656 -87.52973633 250.40384766 -86.9387207 251.03271484 C-86.37282227 251.60441406 -85.80692383 252.17611328 -85.22387695 252.76513672 C-84.71179688 253.28954346 -84.1997168 253.8139502 -83.67211914 254.35424805 C-81.90945003 255.59960002 -81.90945003 255.59960002 -79.47949219 255.20141602 C-76.82898238 254.33870106 -75.03569916 253.32102047 -72.7902832 251.68310547 C-72.04842773 251.14943359 -71.30657227 250.61576172 -70.54223633 250.06591797 C-69.78233398 249.50646484 -69.02243164 248.94701172 -68.23950195 248.37060547 C-66.71547133 247.26546046 -65.19076398 246.1612479 -63.6652832 245.05810547 C-62.99537354 244.56697266 -62.32546387 244.07583984 -61.63525391 243.56982422 C-57.27441009 240.50844579 -53.0968858 240.56871932 -47.92700195 241.37060547 C-44.77207028 242.61921276 -41.78711809 243.99766673 -38.76293945 245.52441406 C-33.2607325 248.29913813 -27.75308261 250.22442617 -21.8527832 252.03466797 C-18.35671075 253.63100546 -16.97203342 255.1388929 -14.92700195 258.37060547 C-13.9855957 260.99169922 -13.9855957 260.99169922 -13.36450195 263.80810547 C-13.12731445 264.84580078 -12.89012695 265.88349609 -12.64575195 266.95263672 C-12.13843042 269.3651712 -11.63919649 271.77941323 -11.14575195 274.19482422 C-10.88793945 275.44908203 -10.63012695 276.70333984 -10.36450195 277.99560547 C-10.13633789 279.16349609 -9.90817383 280.33138672 -9.6730957 281.53466797 C-9.1526548 284.48090568 -9.1526548 284.48090568 -6.92700195 286.37060547 C-4.94327181 286.68005406 -4.94327181 286.68005406 -2.6809082 286.63623047 C-1.42503906 286.64009766 -1.42503906 286.64009766 -0.14379883 286.64404297 C0.73211914 286.63630859 1.60803711 286.62857422 2.51049805 286.62060547 C3.38254883 286.62833984 4.25459961 286.63607422 5.15307617 286.64404297 C5.99161133 286.64146484 6.83014648 286.63888672 7.6940918 286.63623047 C8.84542603 286.63284668 8.84542603 286.63284668 10.02001953 286.62939453 C12.38225518 286.48675027 12.38225518 286.48675027 15.07299805 284.37060547 C15.87106707 281.87044008 15.87106707 281.87044008 16.28393555 278.91748047 C16.57397461 277.27585937 16.57397461 277.27585937 16.86987305 275.60107422 C17.25255516 273.29722445 17.63023427 270.99253756 18.00268555 268.68701172 C19.96381169 257.68148146 19.96381169 257.68148146 25.07299805 253.37060547 C27.85985704 251.88290515 30.71183918 250.82619901 33.69799805 249.80810547 C35.31626588 249.22515831 36.93346095 248.63922442 38.54956055 248.05029297 C39.32847656 247.76895508 40.10739258 247.48761719 40.90991211 247.19775391 C44.51884136 245.81772543 47.92665891 244.052049 51.32299805 242.21826172 C56.56654612 240.60199761 61.54564798 240.1575655 66.59545898 242.58129883 C69.13665499 244.22543958 71.54448325 245.9688774 73.94799805 247.80810547 C75.58766195 249.01997544 77.23076341 250.22721169 78.87768555 251.42919922 C79.58908691 251.96859131 80.30048828 252.5079834 81.03344727 253.0637207 C83.10725364 254.39255546 84.6376029 255.05028518 87.07299805 255.37060547 C89.07010113 254.24312002 89.07010113 254.24312002 90.88549805 252.43310547 C91.57256836 251.79373047 92.25963867 251.15435547 92.9675293 250.49560547 C96.17199519 247.26141355 99.1635888 243.87098847 102.07299805 240.37060547 C99.32236326 234.11916278 95.71079791 228.91245132 91.51489258 223.55957031 C88.50613412 219.56110357 87.22763261 216.52112598 87.07299805 211.37060547 C87.6394043 208.77294922 87.6394043 208.77294922 88.63549805 206.30810547 C89.00803711 205.37095703 89.38057617 204.43380859 89.7644043 203.46826172 C90.19624023 202.44603516 90.62807617 201.42380859 91.07299805 200.37060547 C91.55639648 199.21431641 92.03979492 198.05802734 92.5378418 196.86669922 C95.07367826 190.88522237 97.68214714 184.93943751 100.40893555 179.04248047 C101.19604581 177.36063611 101.19604581 177.36063611 101.07299805 175.37060547 C103.44720539 174.76317839 105.82219062 174.15922315 108.19799805 173.55810547 C108.91487793 173.37578369 109.63175781 173.19346191 110.37036133 173.00561523 C116.33723144 171.50765896 122.32560756 170.28897662 128.37768555 169.17919922 C131.38842665 168.58816092 131.38842665 168.58816092 133.07299805 165.37060547 C133.49461319 162.38444593 133.39734088 159.38342292 133.38549805 156.37060547 C133.40161133 155.55076172 133.41772461 154.73091797 133.43432617 153.88623047 C133.4349707 153.09732422 133.43561523 152.30841797 133.4362793 151.49560547 C133.43926025 150.77630859 133.44224121 150.05701172 133.4453125 149.31591797 C132.94931901 146.72439266 132.19855966 145.92035084 130.07299805 144.37060547 C127.57673562 143.56822804 127.57673562 143.56822804 124.7409668 143.12451172 C123.69489258 142.92664063 122.64881836 142.72876953 121.57104492 142.52490234 C119.3760455 142.13252192 117.18073502 141.74187731 114.98510742 141.35302734 C104.06676398 139.28196035 104.06676398 139.28196035 100.07299805 135.37060547 C98.52393126 132.43325549 97.51109438 129.40570506 96.51049805 126.24560547 C95.92787442 124.52788705 95.34066769 122.81171601 94.7487793 121.09716797 C94.46728027 120.27764648 94.18578125 119.458125 93.89575195 118.61376953 C92.87325207 115.82601615 91.60221062 113.23478796 90.19799805 110.62060547 C87.45437504 105.36956541 86.40726097 101.55235436 88.1862793 95.72216797 C90.13267995 90.74803297 93.11199165 86.65020074 96.26049805 82.37060547 C97.09871094 81.20851563 97.09871094 81.20851563 97.95385742 80.02294922 C99.31894472 78.13282834 100.69196626 76.24909021 102.07299805 74.37060547 C100.75178976 71.43830354 99.32661608 69.38395648 97.03393555 67.13623047 C96.16381836 66.27578125 96.16381836 66.27578125 95.27612305 65.39794922 C94.6728418 64.81142578 94.06956055 64.22490234 93.44799805 63.62060547 C92.83698242 63.01861328 92.2259668 62.41662109 91.59643555 61.79638672 C90.09311181 60.31655241 88.58364949 58.84295871 87.07299805 57.37060547 C81.4244778 59.20965857 77.00509369 62.85903374 72.30737305 66.38232422 C67.48478494 69.84160377 63.0524991 71.90216529 57.07299805 72.37060547 C54.4284668 71.86669922 54.4284668 71.86669922 52.26049805 70.80810547 C51.42647461 70.42396484 50.59245117 70.03982422 49.7331543 69.64404297 C48.85530273 69.22380859 47.97745117 68.80357422 47.07299805 68.37060547 C45.11865222 67.54856041 43.16013401 66.73637886 41.19799805 65.93310547 C39.70139648 65.29501953 39.70139648 65.29501953 38.17456055 64.64404297 C36.06722013 63.77881252 33.93464808 62.97312935 31.78393555 62.22216797 C30.72432617 61.83802734 29.6647168 61.45388672 28.57299805 61.05810547 C27.61393555 60.73197266 26.65487305 60.40583984 25.66674805 60.06982422 C21.18621532 57.13453546 19.69521477 52.88792884 18.43774414 47.80053711 C17.90473335 45.05937417 17.44105759 42.31716192 17.01049805 39.55810547 C16.71817429 37.69565849 16.4152291 35.83483937 16.1003418 33.97607422 C15.97393311 33.16291748 15.84752441 32.34976074 15.71728516 31.51196289 C14.9533953 28.97309288 14.21065107 27.92924018 12.07299805 26.37060547 C10.10097804 25.92863328 10.10097804 25.92863328 7.94799805 26.00732422 C7.1590918 26.00796875 6.37018555 26.00861328 5.55737305 26.00927734 C4.32760742 26.03344727 4.32760742 26.03344727 3.07299805 26.05810547 C2.2531543 26.05488281 1.43331055 26.05166016 0.58862305 26.04833984 C-4.4578439 26.03996705 -4.4578439 26.03996705 -8.92700195 28.37060547 Z " fill="#000000" transform="translate(352.927001953125,-0.37060546875)"/>
<path d="M0 0 C3.9127957 2.00430963 6.32622212 4.96991903 8 9 C8.5289456 16.75527595 7.16516829 24.077867 5.75 31.6875 C5.44255859 33.4828418 5.44255859 33.4828418 5.12890625 35.31445312 C2.96636397 47.09047883 2.96636397 47.09047883 -1 51 C-4.22880567 52.66547748 -7.56676034 53.82817198 -11 55 C-12.67014793 55.64601891 -14.33691428 56.30085547 -16 56.96484375 C-16.81944092 57.28783447 -17.63888184 57.6108252 -18.4831543 57.94360352 C-19.31371338 58.27158936 -20.14427246 58.5995752 -21 58.9375 C-22.31254761 59.45364868 -22.31254761 59.45364868 -23.65161133 59.98022461 C-28.16213566 61.77761997 -32.44728076 63.67945685 -36.6875 66.0625 C-40.5051076 68.0079475 -43.35162347 68.69232682 -47.6015625 67.89453125 C-52.95427018 65.89816308 -57.42478158 62.35031275 -62 59 C-63.72142304 57.74854809 -65.44639812 56.50313404 -67.18066406 55.26953125 C-68.79348294 54.12057209 -70.39322441 52.95332101 -71.9921875 51.78515625 C-75.18168586 49.89216826 -77.29924556 49.10166908 -81 49 C-83.00916713 49.94575943 -83.00916713 49.94575943 -84.625 51.6875 C-85.62080078 52.6465625 -85.62080078 52.6465625 -86.63671875 53.625 C-87.41660156 54.40875 -88.19648437 55.1925 -89 56 C-90.04656928 57.00168256 -91.09485897 58.00156958 -92.14453125 59 C-93.24355418 60.06108628 -94.34121127 61.12358905 -95.4375 62.1875 C-95.97004395 62.69821045 -96.50258789 63.2089209 -97.05126953 63.73510742 C-99.72633956 66.38894674 -101.53640774 68.2194567 -102 72 C-99.34957842 78.39499155 -95.51403798 83.6764818 -91.375 89.1875 C-90.21113604 90.73974587 -89.05210811 92.295632 -87.8984375 93.85546875 C-87.38974121 94.53246826 -86.88104492 95.20946777 -86.35693359 95.90698242 C-83.33725484 100.56472009 -82.39859047 104.46928063 -83 110 C-84.31657824 113.62189113 -85.99032981 117.04315591 -87.6875 120.5 C-91.36887244 128.22927173 -94.47636085 135.7578527 -96.76953125 144.00390625 C-98.51575198 148.25581513 -100.68802912 150.90895756 -104.91210938 152.90234375 C-111.0302371 155.11304934 -117.40742415 156.06286388 -123.8125 157.0625 C-125.84079109 157.38073849 -127.86818977 157.70473122 -129.89453125 158.03515625 C-130.77987549 158.1731665 -131.66521973 158.31117676 -132.57739258 158.45336914 C-135.09949049 159.02244878 -136.87144197 159.52408082 -139 161 C-140.87039349 164.47422259 -141.25589092 167.43621359 -141.265625 171.34375 C-141.26820313 172.34277344 -141.27078125 173.34179688 -141.2734375 174.37109375 C-141.26570313 175.40363281 -141.25796875 176.43617188 -141.25 177.5 C-141.25773437 178.53253906 -141.26546875 179.56507813 -141.2734375 180.62890625 C-141.26957031 182.12744141 -141.26957031 182.12744141 -141.265625 183.65625 C-141.26336914 184.56181641 -141.26111328 185.46738281 -141.25878906 186.40039062 C-140.97286423 189.27258648 -140.27284158 191.41553141 -139 194 C-137.1474907 195.12517694 -137.1474907 195.12517694 -134.75 195.5625 C-133.78191406 195.79195312 -132.81382812 196.02140625 -131.81640625 196.2578125 C-128.74445332 196.85522402 -125.67471317 197.40589187 -122.58984375 197.9296875 C-121.62143555 198.09654053 -120.65302734 198.26339355 -119.65527344 198.43530273 C-117.70406686 198.76547976 -115.75023417 199.0805572 -113.79394531 199.37915039 C-107.3308825 200.44933287 -102.45726668 201.78924652 -98.29296875 207.23046875 C-96.61016747 210.83501893 -95.46984793 214.51233791 -94.3125 218.3125 C-92.06229642 225.46718112 -89.26706564 232.00748037 -85.5402832 238.52075195 C-82.88373903 243.37845123 -82.48090781 246.60475458 -83 252 C-83.890625 254.37109375 -83.890625 254.37109375 -85.25 256.4375 C-85.78367187 257.26765625 -86.31734375 258.0978125 -86.8671875 258.953125 C-88.57066869 261.38666956 -90.3058777 263.78287099 -92.0703125 266.171875 C-92.61268555 266.9151001 -93.15505859 267.6583252 -93.71386719 268.42407227 C-94.80489731 269.910689 -95.91196328 271.38569432 -97.03613281 272.84741211 C-99.59761558 276.32123144 -100.91981391 278.42926368 -101.53125 282.78125 C-100.97151563 286.17258175 -100.48938608 287.39908287 -98.125 289.8125 C-97.49464844 290.46992188 -96.86429687 291.12734375 -96.21484375 291.8046875 C-95.48394531 292.52914063 -94.75304687 293.25359375 -94 294 C-93.13503906 294.88945312 -92.27007812 295.77890625 -91.37890625 296.6953125 C-86.0570915 302.66945372 -86.0570915 302.66945372 -78.9296875 305.44921875 C-73.42250919 304.81967053 -70.40037765 302.17691008 -66.125 298.8125 C-49.48683146 286.01281116 -49.48683146 286.01281116 -42.09033203 286.53369141 C-37.72114376 287.50836433 -33.88074689 289.62803914 -29.9375 291.6875 C-22.41541428 295.4657589 -15.12034799 298.55341398 -7.03125 300.8671875 C-2.99049823 302.37726226 -0.05892997 303.83055483 1.90209961 307.84814453 C4.10681623 313.96294434 5.0592386 320.350596 6.0625 326.75 C6.38149499 328.76645831 6.70554214 330.78212527 7.03515625 332.796875 C7.1731665 333.67698242 7.31117676 334.55708984 7.45336914 335.46386719 C8.05128173 338.23792523 8.63851316 340.4994724 10 343 C15.13109835 345.89467584 20.7128217 345.3304457 26.4375 345.3125 C27.46166016 345.32861328 28.48582031 345.34472656 29.54101562 345.36132812 C37.38654801 345.55793958 37.38654801 345.55793958 44 342 C45.43517532 338.04150899 46.09017673 334.02381683 46.75 329.875 C47.14003198 327.66395781 47.5306472 325.45301841 47.921875 323.2421875 C48.10298828 322.1812085 48.28410156 321.12022949 48.47070312 320.02709961 C50.7827574 306.8042394 50.7827574 306.8042394 56 303 C59.25211213 301.4285503 62.60070623 300.21370133 66 299 C74.57620059 295.84279616 74.57620059 295.84279616 82.91796875 292.125 C83.57708252 291.80442627 84.23619629 291.48385254 84.9152832 291.15356445 C86.18701913 290.52664791 87.45296793 289.8877987 88.71166992 289.23510742 C93.02037548 287.10645445 96.2279056 286.39693313 101 287 C107.55478495 289.38005994 112.89734833 293.71647755 118.35546875 297.93359375 C124.69879665 302.89377368 124.69879665 302.89377368 132 306 C137.92748299 304.39147862 141.5392667 299.97493476 145.75 295.75 C146.52988281 294.99847656 147.30976563 294.24695313 148.11328125 293.47265625 C152.45278001 289.15013686 152.45278001 289.15013686 155.1875 283.7578125 C154.9598994 280.410187 154.16455303 278.87387659 152.25 276.125 C151.61320312 275.18269531 150.97640625 274.24039062 150.3203125 273.26953125 C149.09275801 271.52514038 147.85014164 269.79267676 146.60058594 268.06396484 C145.60189167 266.68229533 144.60848927 265.29678702 143.62011719 263.90771484 C142.64354051 262.53916797 141.65250593 261.18079258 140.64550781 259.83447266 C137.49472241 255.42980326 135.44471748 251.53257373 136 246 C137.02475791 242.8322109 138.49121554 239.96117748 140 237 C140.67975834 235.45621934 141.34646908 233.9066276 142 232.3515625 C142.32766357 231.57893066 142.65532715 230.80629883 142.99291992 230.01025391 C143.49142456 228.82955322 143.49142456 228.82955322 144 227.625 C144.52654175 226.38435791 144.52654175 226.38435791 145.0637207 225.11865234 C147.26347837 219.89224508 149.26446983 214.655698 150.91796875 209.2265625 C152.7095444 205.53992668 154.9941333 202.77852685 158.8996582 201.26269531 C161.11088308 200.67878212 163.31293133 200.22425351 165.5625 199.8125 C166.36026855 199.65233398 167.15803711 199.49216797 167.97998047 199.32714844 C170.31667201 198.86461445 172.65702961 198.4294157 175 198 C176.17691406 197.77183594 177.35382813 197.54367187 178.56640625 197.30859375 C192.61905993 194.74214487 192.61905993 194.74214487 198.3125 197.75 C202.0163954 200.85093569 203.62952439 202.59748521 204.875 207.3125 C205.02575378 211.75973651 204.18478216 214.14021819 202 218 C194.69288592 224.88481151 183.64659796 225.36850713 174 226 C173.8865625 226.70125 173.773125 227.4025 173.65625 228.125 C172.6939589 232.3407515 170.88894687 236.11356295 169.15625 240.0625 C168.07053173 242.82081128 167.31530256 245.05921873 167 248 C167.88934384 250.18345901 167.88934384 250.18345901 169.421875 252.1796875 C169.95296875 252.94410156 170.4840625 253.70851563 171.03125 254.49609375 C171.88203125 255.67365234 171.88203125 255.67365234 172.75 256.875 C180.38195359 267.62749536 184.7277359 277.0115997 182.609375 290.484375 C178.82535592 305.71747745 163.1153349 320.80291569 150.125 328.921875 C140.50316613 333.80354071 131.35598183 334.67302114 120.75390625 332.26171875 C116.0111999 330.4920522 112.31685787 328.39403209 108.6328125 324.9375 C103.40502971 320.00739792 103.40502971 320.00739792 97 317 C90.44837961 317.72425006 84.52305113 320.93688232 78.82495117 324.09106445 C77 325 77 325 75 325 C74.96261719 325.63164062 74.92523438 326.26328125 74.88671875 326.9140625 C73.90211129 340.3124464 72.0604145 354.88361595 61.625 364.4375 C53.98002416 370.30260341 46.95550864 372.15043958 37.4296875 372.23828125 C36.59341827 372.246353 35.75714905 372.25442474 34.89553833 372.26274109 C33.12536677 372.27655494 31.35516887 372.28728914 29.58496094 372.29516602 C27.78898215 372.30665381 25.99303664 372.32705465 24.19726562 372.35668945 C11.86244104 372.56007317 1.33654634 372.66455145 -8.3125 363.875 C-18.08701848 354.37582007 -20.22909924 342.11277663 -22 329 C-22 327.68 -22 326.36 -22 325 C-22.61746094 324.82984375 -23.23492187 324.6596875 -23.87109375 324.484375 C-29.16256087 322.97022611 -34.00284033 321.2049082 -38.89453125 318.671875 C-41.77201613 317.75364235 -43.12468363 318.02765063 -46 319 C-48.51884051 320.46255255 -50.87396897 322.13061396 -53.25 323.8125 C-61.94510833 329.69960656 -68.12935007 333.29574375 -78.8125 333.625 C-79.53542236 333.66061035 -80.25834473 333.6962207 -81.00317383 333.73291016 C-92.72637956 333.69914441 -101.48638405 326.37245704 -109.34179688 318.47851562 C-109.850896 317.95684814 -110.35999512 317.43518066 -110.88452148 316.89770508 C-112.43981812 315.31013377 -114.02479376 313.75735404 -115.61523438 312.20507812 C-123.37821373 304.47996547 -129.560941 296.50129821 -129.64526367 285.09130859 C-129.61795166 284.35992676 -129.59063965 283.62854492 -129.5625 282.875 C-129.54227783 282.0907666 -129.52205566 281.3065332 -129.5012207 280.49853516 C-129.14802844 272.44977849 -126.88678078 267.63577074 -122.25 261.12109375 C-121.75024658 260.41355957 -121.25049316 259.70602539 -120.7355957 258.97705078 C-119.71868772 257.55520783 -118.68115583 256.14784926 -117.62182617 254.75732422 C-114.68076774 250.78276676 -114.68076774 250.78276676 -113.984375 245.99609375 C-115.2195555 242.35231126 -116.56262768 238.79262187 -118.0625 235.25 C-121 228.24570938 -121 228.24570938 -121 226 C-122.299375 225.9175 -123.59875 225.835 -124.9375 225.75 C-138.85204536 224.30304585 -150.86020558 221.59871705 -160.8125 211.25 C-168.43259196 201.60497197 -168.63635343 191.95721017 -168.52148438 180.13232422 C-168.50004282 177.50524588 -168.5213559 174.8809014 -168.546875 172.25390625 C-168.5683382 159.55288636 -166.90705711 149.66372458 -158 140 C-149.60132046 131.7118294 -134.71262419 129.26144489 -123.3125 128.875 C-122.549375 128.91625 -121.78625 128.9575 -121 129 C-120.84144531 128.41734375 -120.68289062 127.8346875 -120.51953125 127.234375 C-120.28621094 126.41453125 -120.05289063 125.5946875 -119.8125 124.75 C-119.55855469 123.83089844 -119.30460937 122.91179687 -119.04296875 121.96484375 C-118 119 -118 119 -116.30078125 116.19140625 C-114.41160671 112.94590128 -113.34090304 110.75890452 -113 107 C-115.14336981 101.97090938 -119.12076441 97.86672134 -122.60302734 93.72070312 C-129.58410445 85.12185107 -130.08066574 75.60178724 -129.23925781 64.97607422 C-128.72487847 60.72772079 -127.38750594 57.51314688 -125 54 C-124.56042969 53.32710937 -124.12085938 52.65421875 -123.66796875 51.9609375 C-114.57057217 39.29367644 -101.25980473 24.96192565 -85.65625 21.43359375 C-72.78851307 19.33312493 -63.46041579 23.74642701 -53 31 C-52.16855469 31.60199219 -51.33710937 32.20398438 -50.48046875 32.82421875 C-49.70316406 33.37722656 -48.92585938 33.93023437 -48.125 34.5 C-47.44695312 35.0053125 -46.76890625 35.510625 -46.0703125 36.03125 C-43.22220316 37.36395022 -41.99405194 36.93215104 -39 36 C-36.41498962 35.01458422 -33.86315046 34.0037758 -31.3125 32.9375 C-24.26115561 30 -24.26115561 30 -22 30 C-21.96261719 29.42894531 -21.92523438 28.85789063 -21.88671875 28.26953125 C-20.28896418 8.56389158 -20.28896418 8.56389158 -14 2 C-9.70864242 -0.8350535 -4.96422414 -0.77517065 0 0 Z " fill="#000000" transform="translate(168,140)"/>
<path d="M0 0 C3.76604202 3.76604202 5.47157587 6.39707164 5.75 11.75 C5.57681338 16.27544163 4.40097593 18.89892134 1.3125 22.3125 C-3.30219833 25.12085408 -7.46477003 25.80591228 -12.75 26.1875 C-27.55779224 27.61560581 -42.58959694 34.07735737 -52.6875 45.3125 C-62.74591718 59.00729354 -69.45343019 73.91808761 -67.6875 91.3125 C-64.97726365 106.40358877 -59.75409989 118.38325153 -48.6875 129.3125 C-48.14609375 129.87582031 -47.6046875 130.43914062 -47.046875 131.01953125 C-36.85347638 140.77533448 -21.98131223 145.18260204 -8.1875 145.6875 C8.10439171 145.09116429 23.65531325 138.82752593 35.3125 127.3125 C45.36970557 115.7953775 50.71985406 102.75733547 51.6875 87.625 C52.190083 81.49868658 53.78403354 77.55199886 58.5 73.375 C62.5194876 71.85652691 66.07139103 71.6393081 70.3125 72.3125 C74.82586838 74.56918419 77.09783755 76.82589935 79.3125 81.3125 C81.83138372 100.42638236 74.46801326 121.38009034 63.50390625 136.8671875 C47.74551427 157.22309827 27.44285526 169.61474904 1.6875 173 C-24.19036272 175.25433287 -46.76262607 167.6519914 -66.6875 151.3125 C-83.54543587 136.94494102 -93.65282554 115.45662767 -95.5625 93.53515625 C-96.85834754 70.49336721 -91.01761002 46.97161012 -75.58911133 29.3359375 C-73.36098082 26.91414089 -71.04396437 24.61048277 -68.6875 22.3125 C-67.95917969 21.57515625 -67.23085937 20.8378125 -66.48046875 20.078125 C-52.90225882 7.0793192 -18.11810436 -10.97796471 0 0 Z " fill="#000000" transform="translate(202.6875,231.6875)"/>
<path d="M0 0 C0.83015625 0.63550781 1.6603125 1.27101563 2.515625 1.92578125 C3.79179687 2.89451172 3.79179687 2.89451172 5.09375 3.8828125 C17.03577364 13.75512959 25.2349546 28.05695522 26.77734375 43.55566406 C27.93062615 61.82237588 24.93654078 78.35964903 12.67602539 92.60668945 C0.63291836 106.00482843 -14.68715597 114.04370303 -32.79296875 115.0546875 C-50.77443022 115.48624258 -65.97771178 109.47729327 -79.234375 97.42578125 C-80.348125 96.18828125 -80.348125 96.18828125 -81.484375 94.92578125 C-82.02449219 94.37792969 -82.56460937 93.83007812 -83.12109375 93.265625 C-94.3073857 81.44843589 -98.87720193 65.60416223 -98.6328125 49.62109375 C-97.68695377 32.44629048 -90.44171212 16.83137041 -77.921875 4.98828125 C-56.26427841 -13.33737741 -23.63203126 -16.52119551 0 0 Z M-61.484375 26.92578125 C-68.80059421 36.5000928 -72.47572214 45.80538754 -71.15234375 57.98046875 C-69.13845192 67.98496365 -63.79768025 75.73222794 -55.734375 81.92578125 C-47.67582376 87.05170987 -38.96123453 88.75426989 -29.51171875 87.63671875 C-19.01046013 85.17061672 -10.53084133 79.32002402 -4.84375 70.26171875 C0.29511395 61.4311422 0.80921921 52.34238803 -0.953125 42.23828125 C-3.62128339 33.09030961 -10.42974651 25.48131355 -18.56640625 20.703125 C-32.4920545 13.4948581 -50.41406785 15.32831661 -61.484375 26.92578125 Z " fill="#000000" transform="translate(391.484375,104.07421875)"/>
</svg>
