<svg xmlns="http://www.w3.org/2000/svg" viewBox="0 0 24 24" fill="none" stroke="currentColor" stroke-width="2.5" stroke-linecap="round" stroke-linejoin="round">
  <!-- Frame fill -->
  <rect x="4" y="4" width="16" height="16" rx="2" fill="currentColor" fill-opacity="0.1"/>
  <!-- Frame outline -->
  <path d="M4 6a2 2 0 012-2h12a2 2 0 012 2v12a2 2 0 01-2 2H6a2 2 0 01-2-2V6z"/>
  <!-- QR code pattern (solid squares for clarity) -->
  <rect x="7" y="7" width="2.5" height="2.5" fill="currentColor"/>
  <rect x="10.75" y="7" width="2.5" height="2.5" fill="currentColor"/>
  <rect x="14.5" y="7" width="2.5" height="2.5" fill="currentColor"/>
  <rect x="7" y="10.75" width="2.5" height="2.5" fill="currentColor"/>
  <rect x="14.5" y="10.75" width="2.5" height="2.5" fill="currentColor"/>
  <rect x="7" y="14.5" width="2.5" height="2.5" fill="currentColor"/>
  <rect x="10.75" y="14.5" width="2.5" height="2.5" fill="currentColor"/>
  <rect x="14.5" y="14.5" width="2.5" height="2.5" fill="currentColor"/>
</svg>



