<?xml version="1.0" encoding="UTF-8"?>
<svg version="1.1" xmlns="http://www.w3.org/2000/svg" width="512" height="512" viewBox="0 0 512 512">
<!-- Lock Icon for Login - Professional dark theme style -->
<path d="M256 48 C198.4 48 152 94.4 152 152 L152 208 L128 208 C110.3 208 96 222.3 96 240 L96 432 C96 449.7 110.3 464 128 464 L384 464 C401.7 464 416 449.7 416 432 L416 240 C416 222.3 401.7 208 384 208 L360 208 L360 152 C360 94.4 313.6 48 256 48 Z M256 80 C295.8 80 328 112.2 328 152 L328 208 L184 208 L184 152 C184 112.2 216.2 80 256 80 Z M128 240 L384 240 L384 432 L128 432 L128 240 Z M256 288 C238.3 288 224 302.3 224 320 C224 331.7 230.9 341.7 240.9 346.5 L240.9 384 C240.9 392.8 248.1 400 256.9 400 C265.7 400 272.9 392.8 272.9 384 L272.9 346.5 C282.9 341.7 288 331.7 288 320 C288 302.3 273.7 288 256 288 Z" fill="#FFFFFF" stroke="#FFFFFF" stroke-width="2"/>
</svg>