<?xml version="1.0" encoding="UTF-8"?>
<svg version="1.1" xmlns="http://www.w3.org/2000/svg" width="512" height="512">
<path d="M0 0 C1.01823853 0.00215515 2.03647705 0.0043103 3.08557129 0.00653076 C17.70747424 0.05622604 32.00633932 0.36188758 46.375 3.3125 C47.89383789 3.61051514 47.89383789 3.61051514 49.44335938 3.91455078 C97.33223881 13.49089201 141.79848903 35.78506667 176.87475586 69.90942383 C178.93859956 71.83959628 181.16756034 73.55032168 183.375 75.3125 C184.47309154 76.46716769 185.5374861 77.65499631 186.5625 78.875 C189.33259955 82.1297174 192.19946722 85.25937713 195.125 88.375 C201.1093165 94.95684281 206.30422091 102.01172445 211.375 109.3125 C212.04184814 110.26672852 212.04184814 110.26672852 212.72216797 111.24023438 C225.77673454 130.10901967 235.95320481 150.62667186 243.375 172.3125 C243.64892578 173.0869043 243.92285156 173.86130859 244.20507812 174.65917969 C253.43500283 200.86994176 256.80341484 227.91222614 256.75 255.5625 C256.74918427 257.15105301 256.74918427 257.15105301 256.74835205 258.771698 C256.58274811 329.00962715 227.79894752 391.24474097 179.375 441.3125 C177.49561188 443.10564469 175.58592766 444.80348147 173.58984375 446.46484375 C171.84354723 447.9216308 170.13502023 449.42369359 168.44140625 450.94140625 C142.74643854 473.86658234 111.2138556 491.15538142 78.375 501.3125 C77.24118896 501.66368896 77.24118896 501.66368896 76.08447266 502.02197266 C67.56724042 504.61240769 58.97040003 506.71437025 50.25 508.5 C49.49976563 508.6549292 48.74953125 508.8098584 47.9765625 508.96948242 C32.3127607 512.02798624 16.98244069 512.71819876 1.0625 512.6875 C0.001521 512.68695618 -1.05945801 512.68641235 -2.15258789 512.68585205 C-18.6391791 512.64703011 -34.47176367 511.87963932 -50.625 508.3125 C-51.64835449 508.09287598 -52.67170898 507.87325195 -53.72607422 507.64697266 C-98.89354281 497.73831979 -139.94827683 476.50387258 -173.765625 444.92578125 C-175.74196714 443.11953413 -177.70890091 441.40114346 -179.77734375 439.7109375 C-182.08579368 437.76664634 -184.0079271 435.92353516 -185.9375 433.625 C-188.49457821 430.61568744 -191.12156708 427.70258138 -193.8125 424.8125 C-223.21842707 392.06725579 -242.23635664 350.92250253 -251.375 308.125 C-251.57383789 307.20017822 -251.77267578 306.27535645 -251.97753906 305.32250977 C-255.26941369 289.11581484 -256.0003085 273.18212105 -255.9375 256.6875 C-255.93534485 255.66959381 -255.9331897 254.65168762 -255.93096924 253.60293579 C-255.88129854 238.99386477 -255.63040191 224.66174147 -252.625 210.3125 C-252.42632324 209.33764648 -252.22764648 208.36279297 -252.02294922 207.35839844 C-241.77138226 158.35053302 -219.43217348 114.34635801 -184.625 78.3125 C-184.02606934 77.69165527 -183.42713867 77.07081055 -182.81005859 76.43115234 C-175.14623497 68.52999741 -167.40501606 60.98483045 -158.625 54.3125 C-158.08472168 53.89581055 -157.54444336 53.47912109 -156.98779297 53.04980469 C-125.1187531 28.55165293 -88.56685217 12.06060062 -49.1875 4 C-48.46860596 3.85264404 -47.74971191 3.70528809 -47.0090332 3.5534668 C-31.36274321 0.57960898 -15.88931915 -0.06049808 0 0 Z " fill="#A52270" transform="translate(255.625,-0.3125)"/>
<path d="M0 0 C2.29062092 0.00854345 4.57876108 -0.02046278 6.86914062 -0.05200195 C18.55865211 -0.1078346 31.32627826 0.71501219 41.29101562 7.44604492 C42.29101562 8.44604492 42.29101562 8.44604492 42.60351562 11.75854492 C42.23294435 16.13128599 41.5237386 16.6849412 38.29101562 19.44604492 C36.02709961 20.90307617 36.02709961 20.90307617 33.53710938 22.25854492 C32.60970947 22.77046387 31.68230957 23.28238281 30.72680664 23.80981445 C29.73737061 24.34977051 28.74793457 24.88972656 27.72851562 25.44604492 C-22.7122801 51.32280054 -22.7122801 51.32280054 -59.52929688 90.80151367 C-61.44093221 95.08686839 -65.04705614 97.76310521 -68.54101562 100.80932617 C-71.58926715 103.65091658 -72.64563678 104.70374105 -73.01367188 109.01635742 C-72.913125 110.1481543 -72.81257812 111.27995117 -72.70898438 112.44604492 C-72.92783798 113.26955948 -73.14669159 114.09307404 -73.37217712 114.94154358 C-73.97956141 117.44199908 -73.97956141 117.44199908 -72.57643127 119.25975037 C-71.98796921 119.81679153 -71.39950714 120.3738327 -70.79321289 120.94775391 C-69.80207237 121.90916542 -69.80207237 121.90916542 -68.79090881 122.88999939 C-68.06391281 123.56720535 -67.33691681 124.24441132 -66.58789062 124.94213867 C-65.48706398 126.00888573 -65.48706398 126.00888573 -64.36399841 127.09718323 C-61.21878951 130.14413504 -58.03956106 133.15470905 -54.86303711 136.16894531 C-52.55083844 138.37274853 -50.25671095 140.5942384 -47.96289062 142.81713867 C-47.23791885 143.4923204 -46.51294708 144.16750214 -45.76600647 144.86314392 C-40.83133452 149.65050441 -40.83133452 149.65050441 -40.20092773 153.74951172 C-40.74583539 156.64163334 -41.5409685 159.1200082 -42.70898438 161.82104492 C-43.08023438 162.6950293 -43.45148438 163.56901367 -43.83398438 164.46948242 C-44.12273437 165.12174805 -44.41148437 165.77401367 -44.70898438 166.44604492 C-32.46335225 183.28378909 -10.88626137 194.45928881 6.16351318 205.67816162 C10.10400915 208.27139836 14.04081539 210.87009248 17.97366333 213.47491455 C19.84969747 214.71471765 21.7302418 215.94744016 23.61108398 217.17993164 C39.77827883 227.84323797 55.67901375 239.22454156 65.29101562 256.44604492 C65.65195312 257.06092773 66.01289063 257.67581055 66.38476562 258.30932617 C69.67160287 264.68518175 69.1140153 272.41990318 67.16601562 279.13354492 C63.30227037 289.32143926 53.88356138 298.94380351 44.02148438 303.49291992 C37.75553113 305.75592177 32.39065075 306.50224393 26.10351562 303.88354492 C6.41906609 294.32442984 -9.97294002 279.81501429 -25.90039062 265.03588867 C-28.34753744 262.77934022 -30.83149475 260.57803582 -33.33398438 258.38354492 C-38.48419125 253.76611807 -43.37328238 248.89094009 -48.27148438 244.00854492 C-49.08246582 243.20215576 -49.89344727 242.3957666 -50.72900391 241.56494141 C-51.48681152 240.80511963 -52.24461914 240.04529785 -53.02539062 239.26245117 C-53.71060791 238.57610596 -54.3958252 237.88976074 -55.10180664 237.18261719 C-57.24643159 234.86532761 -57.67636955 233.74610134 -58.02148438 230.57104492 C-57.70898438 227.44604492 -57.70898438 227.44604492 -56.14648438 225.00854492 C-53.70898438 223.44604492 -53.70898438 223.44604492 -50.52148438 223.40307617 C-45.29443055 224.83301815 -42.87003222 227.66095055 -39.27148438 231.57104492 C-37.94906209 232.9529746 -36.62486465 234.33320793 -35.29882812 235.71166992 C-34.67476074 236.3671582 -34.05069336 237.02264648 -33.40771484 237.69799805 C-30.92203783 240.25583757 -28.25149826 242.54652021 -25.52929688 244.84448242 C-23.32212002 246.78641914 -21.27360824 248.85342616 -19.20898438 250.94604492 C-15.2012909 254.99463323 -11.04437012 258.75460248 -6.70898438 262.44604492 C-5.78730469 263.25686523 -4.865625 264.06768555 -3.91601562 264.90307617 C2.19128455 270.23447669 8.49497871 275.18531651 15.10351562 279.88354492 C15.79630615 280.37943115 16.48909668 280.87531738 17.20288086 281.38623047 C22.45388075 285.06011257 27.91350521 288.81276172 34.29101562 290.00854492 C41.34638741 288.68566271 46.23319439 284.12699464 50.29101562 278.44604492 C52.92322147 274.40999596 53.84308474 271.42196033 52.99414062 266.58666992 C51.59955035 262.34091732 48.98600093 258.96040818 46.29101562 255.44604492 C45.88238281 254.87241211 45.47375 254.2987793 45.05273438 253.70776367 C41.90610325 249.62591092 38.01831143 246.49559449 33.98242188 243.33276367 C33.05925926 242.60915398 33.05925926 242.60915398 32.1174469 241.8709259 C25.54502794 236.78076859 18.67766965 232.1877705 11.72851562 227.63354492 C10.41444745 226.76529714 9.10081434 225.89639058 7.78759766 225.02685547 C4.55509499 222.88793172 1.31878553 220.75486634 -1.91912842 218.62414551 C-53.19422842 184.87437636 -53.19422842 184.87437636 -60.70898438 170.44604492 C-61.38223454 165.06004364 -60.12399511 162.17106593 -57.70898438 157.44604492 C-57.86104906 153.02603139 -61.30336634 150.47373976 -64.27539062 147.58666992 C-65.10561989 146.76280792 -65.10561989 146.76280792 -65.95262146 145.92230225 C-67.71864996 144.17304028 -69.4948313 142.43450848 -71.27148438 140.69604492 C-72.47203879 139.51053992 -73.67191698 138.32434968 -74.87109375 137.13745117 C-77.80927532 134.23231199 -80.75660512 131.33675155 -83.70898438 128.44604492 C-87.81007324 130.06760516 -90.54046604 133.02281522 -93.56835938 136.11010742 C-94.11760071 136.66217865 -94.66684204 137.21424988 -95.23272705 137.78305054 C-96.9795773 139.54106307 -98.71933039 141.30591383 -100.45898438 143.07104492 C-101.64472029 144.26681573 -102.83091317 145.46213358 -104.01757812 146.65698242 C-106.92003523 149.58144745 -109.81614848 152.51206366 -112.70898438 155.44604492 C-111.20521169 158.97052288 -109.17053351 161.22179866 -106.45874023 163.9074707 C-105.14243874 165.21870407 -105.14243874 165.21870407 -103.79954529 166.556427 C-102.84100429 167.50143565 -101.88243114 168.44641168 -100.92382812 169.39135742 C-99.94208315 170.36682889 -98.96085362 171.34281936 -97.9801178 172.31930542 C-95.40203909 174.88410351 -92.81844697 177.44326865 -90.23321533 180.00085449 C-86.09057446 184.10031132 -81.95469291 188.20656064 -77.82199287 192.31603622 C-76.37684781 193.75094764 -74.92834468 195.18240472 -73.47947693 196.61355591 C-72.16790367 197.91533279 -72.16790367 197.91533279 -70.82983398 199.2434082 C-70.05643173 200.00855743 -69.28302948 200.77370667 -68.4861908 201.56204224 C-66.22114669 203.96319785 -65.75601714 205.0133435 -65.39648438 208.32104492 C-65.70898438 211.44604492 -65.70898438 211.44604492 -67.33398438 213.82104492 C-69.70898438 215.44604492 -69.70898438 215.44604492 -72.45898438 216.13354492 C-80.73865152 214.38207687 -87.46156049 204.68982054 -93.10742188 198.79370117 C-94.9029072 196.94664615 -96.69982555 195.10098326 -98.49804688 193.2565918 C-101.30436751 190.37614844 -104.10490379 187.49202561 -106.87695312 184.57861328 C-109.57179116 181.74779371 -112.30715632 178.95804645 -115.04492188 176.16870117 C-115.86503754 175.2938356 -116.6851532 174.41897003 -117.53012085 173.51759338 C-121.53303749 169.49460354 -124.2604743 166.91545796 -130.10107422 166.7434082 C-134.42999385 167.01061069 -136.67538828 168.40616831 -139.56054688 171.56518555 C-140.02203125 172.12399414 -140.48351562 172.68280273 -140.95898438 173.25854492 C-144.65120635 177.49462121 -147.54405737 179.99733451 -152.70898438 182.44604492 C-159.91442293 188.58613247 -165.89429527 196.0161644 -171.70898438 203.44604492 C-172.18174805 204.04239746 -172.65451172 204.63875 -173.14160156 205.25317383 C-191.10658253 227.95333349 -206.35534731 252.66628319 -220.19335938 278.06713867 C-221.70898438 280.44604492 -221.70898438 280.44604492 -224.70898438 282.44604492 C-227.64648437 282.88354492 -227.64648437 282.88354492 -230.70898438 282.44604492 C-239.92820324 273.48291547 -239.84718525 256.67055066 -240.01855469 244.65283203 C-240.05197936 205.9275684 -226.6059088 170.21221456 -203.73095703 139.10083008 C-201.60231396 136.20099126 -199.76188645 133.55751221 -198.21289062 130.29370117 C-196.36296445 126.79085395 -194.03399186 124.76053048 -191.08398438 122.13354492 C-187.61250508 118.89327473 -185.04091383 116.38043786 -184.64648438 111.44604492 C-184.67613281 110.74479492 -184.70578125 110.04354492 -184.73632812 109.32104492 C-184.70898438 107.44604492 -184.70898438 107.44604492 -182.70898438 104.44604492 C-183.02757211 101.15316718 -184.21563728 99.60821384 -186.61523438 97.42260742 C-187.19402344 96.87604492 -187.7728125 96.32948242 -188.36914062 95.76635742 C-189.59181721 94.63972974 -190.81836977 93.51729344 -192.04882812 92.39916992 C-194.70080698 89.88303853 -196.50985238 87.8778835 -198.05273438 84.53198242 C-197.48619461 79.44600046 -194.2288848 76.97016838 -190.70898438 73.44604492 C-189.70159173 72.39736465 -188.6963732 71.34659326 -187.69287109 70.29418945 C-184.81534581 67.28807814 -181.90272849 64.31884799 -178.97485352 61.36181641 C-177.74878058 60.11904439 -176.52811761 58.87091337 -175.31274414 57.61767578 C-173.53886926 55.78908839 -171.74914153 53.97745906 -169.95507812 52.16870117 C-169.41741318 51.60836685 -168.87974823 51.04803253 -168.32579041 50.47071838 C-164.94317788 47.1067345 -162.52574013 45.56973869 -157.70898438 45.44604492 C-155.65429688 46.59838867 -155.65429688 46.59838867 -153.83398438 48.38354492 C-153.16109375 49.02163086 -152.48820312 49.6597168 -151.79492188 50.31713867 C-150.36797646 51.77347809 -148.95714209 53.24573171 -147.56054688 54.73120117 C-146.52027344 55.82754883 -146.52027344 55.82754883 -145.45898438 56.94604492 C-144.83507812 57.63698242 -144.21117187 58.32791992 -143.56835938 59.03979492 C-141.81684156 60.68637976 -141.81684156 60.68637976 -139.61132812 60.28979492 C-137.51339306 59.47979791 -137.51339306 59.47979791 -135.52148438 57.44604492 C-132.52000053 55.31165641 -131.91062303 55.27456624 -128.44335938 55.21557617 C-122.93815112 54.70545392 -120.62779816 52.19728382 -117.14648438 48.13354492 C-113.30594402 43.77127079 -110.01698633 40.80657252 -104.69750977 38.39208984 C-101.47102989 36.85708561 -98.6342768 34.7953854 -95.70898438 32.75854492 C-90.28175619 29.0724658 -84.77344007 25.58918943 -79.08398438 22.32104492 C-78.42140625 21.93086182 -77.75882813 21.54067871 -77.07617188 21.13867188 C-73.51066333 19.12713689 -70.82909064 17.80481193 -66.70898438 18.44604492 C-64.39648438 20.00854492 -64.39648438 20.00854492 -62.70898438 22.44604492 C-62.14648438 25.94604492 -62.14648438 25.94604492 -62.70898438 29.44604492 C-67.05627282 33.64189094 -72.59009321 36.46396396 -77.77148438 39.50854492 C-79.55525939 40.55985812 -81.33785588 41.61317408 -83.11914062 42.66870117 C-83.90426025 43.13026611 -84.68937988 43.59183105 -85.49829102 44.06738281 C-87.75225903 45.42135459 -87.75225903 45.42135459 -89.87084961 47.11962891 C-91.70898438 48.44604492 -91.70898438 48.44604492 -93.70898438 48.44604492 C-88.51404072 54.57889108 -82.98267179 60.29468462 -77.27148438 65.94604492 C-76.03108398 67.17967773 -76.03108398 67.17967773 -74.765625 68.43823242 C-72.74903478 70.44316605 -70.73013201 72.44570745 -68.70898438 74.44604492 C-65.13287736 72.7596014 -62.71206779 70.74228677 -59.83398438 68.00854492 C-53.44461264 62.06539779 -46.6387369 56.74010354 -39.70898438 51.44604492 C-39.06767578 50.95313965 -38.42636719 50.46023437 -37.765625 49.95239258 C-21.14202701 37.19751446 -3.6595727 26.24026029 14.29101562 15.44604492 C-5.03596161 14.87837501 -22.3493415 16.02268161 -40.80273438 21.90307617 C-43.5964673 22.69883207 -45.84169041 22.92392725 -48.70898438 22.44604492 C-51.08398438 20.82104492 -51.08398438 20.82104492 -52.70898438 18.44604492 C-53.20898438 15.44604492 -53.20898438 15.44604492 -52.70898438 12.44604492 C-49.57347249 8.33662404 -45.76866116 7.18927985 -40.95898438 5.88354492 C-40.30027344 5.68825195 -39.6415625 5.49295898 -38.96289062 5.29174805 C-26.03164219 1.62271545 -13.41309459 -0.07588536 0 0 Z " fill="#FCFAFB" transform="translate(341.708984375,103.553955078125)"/>
<path d="M0 0 C3.18259851 1.40509099 5.31348466 3.06921342 7.75878906 5.53173828 C8.47923401 6.25233429 9.19967896 6.9729303 9.94195557 7.71536255 C10.70876648 8.49249603 11.47557739 9.26962952 12.265625 10.0703125 C13.05902283 10.86654022 13.85242065 11.66276794 14.66986084 12.48312378 C17.20130703 15.02575948 19.72570803 17.57526348 22.25 20.125 C23.96568617 21.85071753 25.68182662 23.57598355 27.3984375 25.30078125 C31.60424248 29.52863032 35.80428507 33.76213869 40 38 C38.55419034 41.31613882 36.75170208 43.49185728 34.19287109 46.03417969 C33.41221283 46.81468689 32.63155457 47.59519409 31.82723999 48.39935303 C30.98448517 49.23178528 30.14173035 50.06421753 29.2734375 50.921875 C28.41062164 51.78186096 27.54780579 52.64184692 26.65884399 53.52789307 C23.90221971 56.2733231 21.13872201 59.0117169 18.375 61.75 C16.50475143 63.61021783 14.63495411 65.47088946 12.765625 67.33203125 C8.1823064 71.89329945 3.59332522 76.44881011 -1 81 C-6.22948744 76.62970634 -11.10289955 72.03088196 -15.90234375 67.1953125 C-16.98619102 66.1093428 -16.98619102 66.1093428 -18.0919342 65.00143433 C-20.37616922 62.71164735 -22.65688312 60.41839007 -24.9375 58.125 C-26.49521039 56.56226839 -28.05315087 54.9997661 -29.61132812 53.4375 C-33.41021602 49.6276469 -37.20622713 45.81494621 -41 42 C-36.5021065 36.60809603 -31.73873458 31.60608316 -26.7578125 26.66015625 C-25.98944061 25.89319931 -25.22106873 25.12624237 -24.42941284 24.33604431 C-21.99696491 21.9091526 -19.56104678 19.48577873 -17.125 17.0625 C-15.46591448 15.40843514 -13.80705798 13.75414055 -12.1484375 12.09960938 C-8.10160291 8.06374567 -4.05192047 4.03075723 0 0 Z " fill="#A22065" transform="translate(213,174)"/>
<path d="M0 0 C6.18134869 5.10448822 11.79822878 10.68294942 17.4375 16.375 C18.35982422 17.30183594 19.28214844 18.22867187 20.23242188 19.18359375 C22.49058625 21.45345846 24.74636942 23.72563538 27 26 C26.06989219 27.27078793 25.13543988 28.53839665 24.19921875 29.8046875 C23.67932373 30.51093262 23.15942871 31.21717773 22.6237793 31.94482422 C21.12562814 33.84099569 19.57406463 35.47626462 17.8125 37.125 C12.24992375 42.54183189 7.68583102 48.83197586 3 55 C2.18885742 56.06057617 2.18885742 56.06057617 1.36132812 57.14257812 C-9.18233167 70.97732249 -18.55690928 85.44444355 -27.62109375 100.28125 C-27.9989502 100.8995166 -28.37680664 101.5177832 -28.76611328 102.15478516 C-29.73194388 103.7425692 -30.68865936 105.33588831 -31.64453125 106.9296875 C-32.09183594 107.61289062 -32.53914063 108.29609375 -33 109 C-33.33 109 -33.66 109 -34 109 C-34.58595236 67.34329462 -23.808563 34.14714569 0 0 Z " fill="#AE2369" transform="translate(151,249)"/>
<path d="M0 0 C4 2 4 2 10 9 C3.4 15.6 -3.2 22.2 -10 29 C-17 23 -17 23 -19 19 C-12.73 12.73 -6.46 6.46 0 0 Z " fill="#A9266A" transform="translate(181,167)"/>
<path d="M0 0 C4.29067546 1.65236651 7.1429553 4.8905207 10.296875 8.1015625 C10.89050842 8.69802582 11.48414185 9.29448914 12.09576416 9.9090271 C13.98526627 11.8096981 15.86768392 13.71721474 17.75 15.625 C19.03209065 16.91712468 20.31463761 18.20879676 21.59765625 19.5 C24.73708432 22.66144479 27.87017801 25.8290461 31 29 C29.35 30.98 27.7 32.96 26 35 C21.70932454 33.34763349 18.8570447 30.1094793 15.703125 26.8984375 C15.10949158 26.30197418 14.51585815 25.70551086 13.90423584 25.0909729 C12.01473373 23.1903019 10.13231608 21.28278526 8.25 19.375 C6.96790935 18.08287532 5.68536239 16.79120324 4.40234375 15.5 C1.26291568 12.33855521 -1.87017801 9.1709539 -5 6 C-3.35 4.02 -1.7 2.04 0 0 Z " fill="#A22567" transform="translate(234,162)"/>
<path d="M0 0 C4.29067546 1.65236651 7.1429553 4.8905207 10.296875 8.1015625 C10.89050842 8.69802582 11.48414185 9.29448914 12.09576416 9.9090271 C13.98526627 11.8096981 15.86768392 13.71721474 17.75 15.625 C19.03209065 16.91712468 20.31463761 18.20879676 21.59765625 19.5 C24.73708432 22.66144479 27.87017801 25.8290461 31 29 C29.35 30.98 27.7 32.96 26 35 C21.84874375 33.35503261 19.00192643 30.34271245 15.88671875 27.2578125 C15.3129097 26.69303192 14.73910065 26.12825134 14.14790344 25.5463562 C12.94086377 24.35378977 11.73658677 23.15842146 10.53491211 21.96044922 C8.68855434 20.12604751 6.8243635 18.3111236 4.95898438 16.49609375 C3.78791846 15.33448555 2.61795719 14.17176243 1.44921875 13.0078125 C0.88788742 12.46601349 0.32655609 11.92421448 -0.25178528 11.36599731 C-1.7902832 9.80908203 -1.7902832 9.80908203 -4 7 C-3.9225394 4.15814499 -3.31929065 3.35760552 -1.4375 1.25 C-0.963125 0.8375 -0.48875 0.425 0 0 Z " fill="#A9276A" transform="translate(165,231)"/>
</svg>
