<?xml version="1.0" encoding="UTF-8"?>
<svg version="1.1" xmlns="http://www.w3.org/2000/svg" width="512" height="512">
<path d="M0 0 C3.46311503 1.49272675 5.74099214 3.47216004 8.41723633 6.11083984 C9.71296318 7.3825856 9.71296318 7.3825856 11.03486633 8.68002319 C11.95793076 9.59772491 12.88099518 10.51542664 13.83203125 11.4609375 C14.79270571 12.4126427 15.75345613 13.36427122 16.71427917 14.31582642 C18.72266792 16.3077551 20.72664767 18.30400933 22.72827148 20.30273438 C25.29688156 22.86594136 27.88128601 25.41257403 30.46986866 27.95558739 C32.45737668 29.91340578 34.43358858 31.8823298 36.40680504 33.85454178 C37.81674244 35.25821659 39.23825771 36.65023052 40.65986633 38.04208374 C41.93195198 39.32328598 41.93195198 39.32328598 43.22973633 40.63037109 C43.9837825 41.37934662 44.73782867 42.12832214 45.51472473 42.8999939 C47 45 47 45 46.82759094 47.16085815 C45.78326881 49.48163819 44.48024582 50.84273358 42.6484375 52.609375 C41.96136719 53.28226563 41.27429688 53.95515625 40.56640625 54.6484375 C39.84324219 55.34195313 39.12007813 56.03546875 38.375 56.75 C33.5638482 61.41052642 28.94293857 66.11412525 24.57666016 71.19628906 C22.49308567 73.57991376 20.26763018 75.7920443 18 78 C15.04816975 80.91626603 12.19611141 83.84605835 9.5 87 C6.80388859 90.15394165 3.95183025 93.08373397 1 96 C-1.93118191 98.89591958 -4.76403174 101.80242571 -7.4375 104.9375 C-10.74346118 108.80617798 -14.33144678 112.36064305 -17.95068359 115.93115234 C-21.19984173 119.15350409 -24.22436334 122.49331816 -27.19140625 125.97265625 C-30.17528004 129.31743054 -33.40619732 132.41335157 -36.59375 135.5625 C-38.65449345 137.65000635 -40.59515626 139.77169223 -42.5 142 C-45.19611141 145.15394165 -48.04816975 148.08373397 -51 151 C-53.93118191 153.89591958 -56.76403174 156.80242571 -59.4375 159.9375 C-62.74346118 163.80617798 -66.33144678 167.36064305 -69.95068359 170.93115234 C-73.19984173 174.15350409 -76.22436334 177.49331816 -79.19140625 180.97265625 C-82.17528004 184.31743054 -85.40619732 187.41335157 -88.59375 190.5625 C-90.65449345 192.65000635 -92.59515626 194.77169223 -94.5 197 C-97.19611141 200.15394165 -100.04816975 203.08373397 -103 206 C-105.93118191 208.89591958 -108.76403174 211.80242571 -111.4375 214.9375 C-114.74346118 218.80617798 -118.33144678 222.36064305 -121.95068359 225.93115234 C-125.19984173 229.15350409 -128.22436334 232.49331816 -131.19140625 235.97265625 C-134.17650116 239.31879936 -137.40882768 242.41593952 -140.59765625 245.56640625 C-142.63714373 247.63242365 -144.555078 249.73005549 -146.4375 251.9375 C-149.74237651 255.80490868 -153.32758681 259.36017484 -156.94848633 262.92675781 C-159.63443021 265.58727976 -162.18571343 268.30006543 -164.625 271.1875 C-172.02370705 279.76367349 -181.23091916 288.06157905 -193.0078125 289.19287109 C-206.47551434 289.70536436 -217.33118326 288.55082088 -228.19140625 279.72265625 C-236.27057741 272.02737659 -241.44166383 262.84416558 -242.23828125 251.65234375 C-242.51473861 237.81492533 -239.38161708 227.99072831 -229.95556641 217.78686523 C-227.70624226 215.47432414 -225.42429271 213.20032646 -223.125 210.9375 C-222.36058594 210.17373047 -221.59617187 209.40996094 -220.80859375 208.62304688 C-216.59106901 204.43774431 -212.27337649 200.43519743 -207.77294922 196.55688477 C-205.40367553 194.47634796 -203.19905543 192.25848936 -201 190 C-198.10408042 187.06881809 -195.19757429 184.23596826 -192.0625 181.5625 C-188.71074927 178.69827665 -185.59443244 175.63666284 -182.5 172.5 C-178.81005412 168.75969662 -175.02496302 165.2176065 -171.02734375 161.80859375 C-168.58571366 159.63041508 -166.29951968 157.32751992 -164 155 C-161.10408042 152.06881809 -158.19757429 149.23596826 -155.0625 146.5625 C-151.71074927 143.69827665 -148.59443244 140.63666284 -145.5 137.5 C-141.81005412 133.75969662 -138.02496302 130.2176065 -134.02734375 126.80859375 C-130.68256946 123.82471996 -127.58664843 120.59380268 -124.4375 117.40625 C-121.74716094 114.75040247 -118.93426475 112.29864568 -116.0625 109.84375 C-113.61075311 107.65203687 -111.31114427 105.33932896 -109 103 C-106.10408042 100.06881809 -103.19757429 97.23596826 -100.0625 94.5625 C-96.71074927 91.69827665 -93.59443244 88.63666284 -90.5 85.5 C-86.81005412 81.75969662 -83.02496302 78.2176065 -79.02734375 74.80859375 C-75.68256946 71.82471996 -72.58664843 68.59380268 -69.4375 65.40625 C-66.74716094 62.75040247 -63.93426475 60.29864568 -61.0625 57.84375 C-58.61075311 55.65203687 -56.31114427 53.33932896 -54 51 C-51.10408042 48.06881809 -48.19757429 45.23596826 -45.0625 42.5625 C-41.71074927 39.69827665 -38.59443244 36.63666284 -35.5 33.5 C-31.81005412 29.75969662 -28.02496302 26.2176065 -24.02734375 22.80859375 C-20.69078265 19.83204695 -17.60217455 16.60958593 -14.4609375 13.4296875 C-11.64164529 10.64619583 -8.70336732 8.04837931 -5.6953125 5.47265625 C-3.69997138 3.73937606 -1.83007366 1.90632672 0 0 Z " fill="#000000" transform="translate(273,192)"/>
<path d="M0 0 C0.79481781 -0.00422974 1.58963562 -0.00845947 2.40853882 -0.01281738 C4.99672318 -0.01923211 7.58380168 -0.00031066 10.171875 0.0234375 C11.0562323 0.02809021 11.9405896 0.03274292 12.85174561 0.03753662 C27.06480345 0.12548831 40.91351911 0.84917326 54.921875 3.3984375 C56.04142578 3.59711426 57.16097656 3.79579102 58.31445312 4.00048828 C75.92956513 7.19735812 92.97941425 11.62482805 109.921875 17.3984375 C110.81213379 17.69943359 111.70239258 18.00042969 112.61962891 18.31054688 C148.34279176 30.60034583 180.34917485 50.15172364 209.921875 73.3984375 C208.42513595 76.90032739 206.4201209 79.13247473 203.71923828 81.79638672 C202.85138702 82.65763153 201.98353577 83.51887634 201.08938599 84.40621948 C200.14981049 85.3291983 199.21023499 86.25217712 198.2421875 87.203125 C197.26755571 88.16893828 196.29351466 89.13534803 195.32003784 90.10232544 C191.71266665 93.68301895 188.0945667 97.25280851 184.47668457 100.82287598 C181.41968466 103.84027064 178.3669074 106.86182128 175.31951523 109.88891983 C173.89453594 111.30102367 172.46345147 112.70695811 171.03225708 114.11276245 C166.80790086 118.30519303 162.92213974 122.23857732 159.921875 127.3984375 C156.51010063 126.81800729 154.91428239 125.74317836 152.53125 123.265625 C151.90855225 122.62794189 151.28585449 121.99025879 150.64428711 121.33325195 C149.99339111 120.65351318 149.34249512 119.97377441 148.671875 119.2734375 C147.31550806 117.88765109 145.95745674 116.50351115 144.59765625 115.12109375 C143.68753784 114.18535522 143.68753784 114.18535522 142.7590332 113.23071289 C139.62735955 110.10736263 136.30983329 107.23733441 132.921875 104.3984375 C131.91152891 103.52616399 130.90254536 102.65231109 129.89453125 101.77734375 C116.107472 89.83001445 102.01700006 78.49772373 87.1171875 67.96289062 C85.04686441 66.48750914 82.99762138 64.98744532 80.953125 63.4765625 C56.07381214 45.24510075 27.87401491 29.24217389 -1.10986328 18.73095703 C-10.50958015 15.22699328 -10.50958015 15.22699328 -13.078125 10.3984375 C-13.078125 6.76100635 -13.04436191 4.44433595 -10.52050781 1.71240234 C-7.07268127 -0.14247595 -3.81894178 -0.02990422 0 0 Z " fill="#000000" transform="translate(110.078125,30.6015625)"/>
<path d="M0 0 C3.19868223 1.06622741 3.65549195 1.49939641 5.56640625 4.0703125 C6.28679077 5.03191284 6.28679077 5.03191284 7.02172852 6.01293945 C7.7844104 7.05840942 7.7844104 7.05840942 8.5625 8.125 C9.36095337 9.20817505 9.36095337 9.20817505 10.17553711 10.31323242 C19.21085609 22.66352301 27.25315172 35.44186297 34.75097656 48.78076172 C35.5232039 50.15283884 36.30023661 51.52223875 37.08496094 52.88720703 C56.57169131 86.79411788 67.47050862 125.50782816 73 164 C73.11859375 164.7748877 73.2371875 165.54977539 73.359375 166.34814453 C75.08382644 177.84192128 75.20341943 189.33863617 75.25 200.9375 C75.25535767 201.70213562 75.26071533 202.46677124 75.26623535 203.25457764 C75.27792086 205.44986043 75.2744999 207.64455766 75.265625 209.83984375 C75.26336914 211.12238037 75.26111328 212.40491699 75.25878906 213.72631836 C75.0163311 216.79341163 74.68866335 218.47417312 73 221 C70.50130318 222.87402261 69.1469366 223.00306118 66 222.9375 C62.09414543 221.71692045 61.29463319 220.38502186 59 217 C57.58696949 213.97674631 56.42124573 210.87352023 55.25 207.75 C41.32976232 171.92997801 20.41873409 139.33601141 -3 109 C-3.41282227 108.46246094 -3.82564453 107.92492187 -4.25097656 107.37109375 C-13.33693898 95.56136021 -22.96547507 84.26237276 -32.984375 73.234375 C-34.87444658 71.13917937 -36.72212487 69.01381434 -38.5625 66.875 C-41.62663189 63.33836179 -44.91074452 60.08290698 -48.30078125 56.859375 C-50.01204127 54.98682381 -50.92046754 53.27524514 -52 51 C-51.37448242 50.44594482 -50.74896484 49.89188965 -50.10449219 49.32104492 C-39.43306964 39.71212488 -29.37743739 29.48750512 -19.25 19.3125 C-17.37783868 17.43531296 -15.50544468 15.55835795 -13.6328125 13.68164062 C-9.08585595 9.12376501 -4.54177873 4.56303488 0 0 Z " fill="#000000" transform="translate(406,192)"/>
<path d="M0 0 C1.06734375 -0.01160156 1.06734375 -0.01160156 2.15625 -0.0234375 C7.81804437 0.93906754 11.69226117 4.19202176 15.64746094 8.15014648 C16.12304947 8.62208435 16.598638 9.09402222 17.08863831 9.58026123 C18.6446838 11.12825955 20.18968984 12.68676577 21.734375 14.24609375 C22.81908906 15.33132699 23.90432292 16.41604091 24.99005127 17.5002594 C27.25740448 19.76770206 29.51952448 22.04019917 31.77783203 24.31665039 C34.67003975 27.23158485 37.57323375 30.13527306 40.48019028 33.03549099 C42.71965119 35.27160861 44.95409113 37.51268812 47.18695831 39.75538826 C48.25572858 40.82800152 49.32584315 41.89927705 50.39733124 42.96917534 C51.89325888 44.46473149 53.38251313 45.96662919 54.87011719 47.47045898 C55.71805847 48.32300766 56.56599976 49.17555634 57.43963623 50.05393982 C60.83401875 53.87781122 61.80375915 56.66340328 61.875 61.75 C61.90335937 62.66523438 61.93171875 63.58046875 61.9609375 64.5234375 C61.02604098 70.30711937 56.71720442 74.40890564 52.703125 78.43066406 C52.24079468 78.89649902 51.77846436 79.36233398 51.30212402 79.84228516 C49.78970193 81.36342962 48.27017828 82.87723483 46.75 84.390625 C45.68883545 85.45313847 44.6279678 86.51594854 43.56738281 87.57904053 C41.35154142 89.79781992 39.1321498 92.01296816 36.91015625 94.22558594 C34.06535177 97.05896878 31.22965845 99.90127425 28.39654541 102.74634171 C26.2108447 104.93927303 24.0203985 107.12741423 21.82849121 109.31414032 C20.78085614 110.36044367 19.73469798 111.40822802 18.69006348 112.45752716 C17.23045696 113.92222168 15.76457705 115.38033775 14.296875 116.83691406 C13.46510742 117.66709045 12.63333984 118.49726685 11.77636719 119.3526001 C8.18999216 122.5388543 5.46516995 123.6747611 0.6875 123.75 C-0.12332031 123.77835937 -0.93414062 123.80671875 -1.76953125 123.8359375 C-10.49971559 122.36217247 -16.40960064 114.92212274 -22.359375 108.94921875 C-23.39557282 107.91758952 -24.43213937 106.88633054 -25.46905518 105.85542297 C-27.6323724 103.7010044 -29.78997028 101.54105179 -31.94384766 99.37719727 C-34.69467263 96.61486938 -37.46106038 93.86874355 -40.23217392 91.12678814 C-42.3737394 89.0036272 -44.50585494 86.87116846 -46.63538361 84.73594093 C-47.65132153 83.71985041 -48.6703377 82.70682744 -49.69255829 81.69705772 C-60.82460827 70.68164928 -60.82460827 70.68164928 -61.9375 61.9375 C-60.72302576 52.04820974 -53.79706877 46.09347204 -47.0390625 39.41796875 C-46.00474402 38.38349501 -44.97109447 37.34835204 -43.93807983 36.31257629 C-41.78075635 34.15387494 -39.6166852 32.00225606 -37.44726562 29.85571289 C-34.67591091 27.11279435 -31.92045677 24.35452844 -29.16965675 21.59101391 C-27.04079833 19.45518173 -24.90460411 17.32681188 -22.76606369 15.20067787 C-21.74739614 14.18650455 -20.7307814 13.17026475 -19.71632767 12.15187645 C-18.2956147 10.72823344 -16.86406411 9.31543107 -15.43212891 7.90307617 C-14.62256744 7.09891769 -13.81300598 6.29475922 -12.97891235 5.4662323 C-9.0824829 2.17917009 -5.16907232 -0.05618557 0 0 Z " fill="#000000" transform="translate(340.5,109.625)"/>
<path d="M0 0 C7.06551805 4.92331849 13.09453866 11.9083537 19.17480469 17.98950195 C20.88719442 19.69967866 22.60747044 21.40165936 24.328125 23.10351562 C25.42496709 24.19742766 26.5213386 25.29181178 27.6171875 26.38671875 C28.12861298 26.89095871 28.64003845 27.39519867 29.16696167 27.91471863 C32.91304884 31.68509284 34.82975908 34.12734991 35.3125 39.4375 C34.98188521 43.20650866 34.38353057 45.08679596 32 48 C28.05986392 48 27.4590563 46.84838242 24.69628906 44.11621094 C23.83239563 43.26822937 22.9685022 42.4202478 22.07843018 41.54656982 C21.15020447 40.61854553 20.22197876 39.69052124 19.265625 38.734375 C18.30374163 37.77958942 17.34155901 36.82510522 16.37908936 35.87091064 C14.36321657 33.86849418 12.3533943 31.86022371 10.34716797 29.84814453 C7.77237614 27.26745165 5.17979994 24.70548326 2.58194351 22.14803696 C0.58992387 20.18183414 -1.39054481 18.20430862 -3.36786652 16.22333527 C-4.78256557 14.81115891 -6.20834952 13.41011579 -7.63421631 12.00921631 C-8.4855011 11.1486261 -9.33678589 10.28803589 -10.21386719 9.40136719 C-10.97092957 8.64635925 -11.72799194 7.89135132 -12.50799561 7.11346436 C-14 5 -14 5 -13.86553955 2.8069458 C-13 1 -13 1 -10.9375 -0.3125 C-7.0240938 -1.22840358 -3.7873848 -1.29534363 0 0 Z " fill="#000000" transform="translate(376,102)"/>
</svg>
