<?xml version="1.0" encoding="UTF-8"?>
<svg version="1.1" xmlns="http://www.w3.org/2000/svg" width="512" height="512">
<path d="M0 0 C0.81710449 0.20963379 1.63420898 0.41926758 2.47607422 0.63525391 C39.39343757 10.2862209 72.26493968 29.50392365 101.1875 54 C102.07731567 54.74419189 102.07731567 54.74419189 102.98510742 55.50341797 C105.7740169 57.88414699 108.28362334 60.23012846 110.54296875 63.125 C112.92166107 66.05752521 114.69723948 68.15420192 118 70 C123.02809194 69.63677354 127.3780428 68.18285525 132.12255859 66.56689453 C142.13509754 63.54360254 153.77970646 67.14040369 162.75 71.6875 C173.40930881 77.92971394 181.35165646 87.93547031 184.52734375 99.97265625 C186.77887289 114.39360735 185.12064755 126.89010195 176.59375 138.984375 C174.27194921 141.92077012 171.74224374 144.45363082 169 147 C170.47038893 152.00947219 171.97837884 156.99838135 173.6484375 161.9453125 C190.03054976 210.79550207 192.3874121 264.80417475 177.28540039 314.34619141 C176.91688095 317.77288632 177.84164137 319.03652843 179.875 321.75 C180.87080078 322.96236328 180.87080078 322.96236328 181.88671875 324.19921875 C196.03543518 342.95084478 197.52097855 370.12783123 194.4921875 392.453125 C193.85118512 395.73918319 193.04928856 398.82263626 192 402 C191.64808594 403.07507813 191.29617188 404.15015625 190.93359375 405.2578125 C186.54298633 417.51673618 180.45999551 428.13293663 172 438 C171.55527344 438.58910156 171.11054688 439.17820312 170.65234375 439.78515625 C158.6771948 455.27594526 139.33856431 463.82919477 121 469 C119.70835937 469.36931641 119.70835937 469.36931641 118.390625 469.74609375 C100.92465247 473.77884218 79.70393104 471.98341908 63.4296875 464.57421875 C57.97057196 463.28404193 53.15083784 466.93680378 48.5625 469.5625 C14.28438509 488.36353983 -26.27453416 496.49853128 -65.125 496.3125 C-66.32506683 496.30976578 -66.32506683 496.30976578 -67.54937744 496.30697632 C-113.94082964 496.13021737 -174.78325179 483.68444023 -210 451 C-211.47933952 447.66200313 -212.18808844 445.89864476 -211.4375 442.3125 C-209.61199851 439.3758237 -208.20086475 438.30944467 -205 437 C-199.11802652 437.21656751 -195.38120534 440.11665863 -190.6875 443.3125 C-172.11666238 455.43099087 -152.1727646 463.62441958 -131 470 C-132.21623047 468.83597656 -132.21623047 468.83597656 -133.45703125 467.6484375 C-141.40081689 459.94251867 -148.4756077 451.93687704 -155 443 C-155.40250977 442.45778809 -155.80501953 441.91557617 -156.21972656 441.35693359 C-162.47311705 432.84097133 -167.44828899 423.67159549 -172.3125 414.3125 C-172.89942627 413.18432861 -173.48635254 412.05615723 -174.09106445 410.89379883 C-184 391.5188089 -184 391.5188089 -184 387 C-184.87398438 387.05220703 -184.87398438 387.05220703 -185.765625 387.10546875 C-198.12766267 387.51364924 -209.81919107 384.06326582 -219.359375 376.0078125 C-222.82630197 372.65476269 -225.82388575 369.3522285 -228 365 C-233.31194412 365.55522661 -237.27864618 367.38390165 -241.9375 369.8125 C-242.61490234 370.15603516 -243.29230469 370.49957031 -243.99023438 370.85351562 C-247.34417642 372.56746684 -250.63113708 374.35408524 -253.87890625 376.26171875 C-257 378 -257 378 -259 378 C-252.53025176 386.89731521 -245.96316025 395.43933318 -238.40625 403.44140625 C-236.39839912 405.57637756 -234.49405513 407.74473705 -232.625 410 C-230.13429194 413.02715468 -230.13429194 413.02715468 -227.25 415.1875 C-224.88945758 417.08904806 -223.85118241 418.10597979 -223 421 C-223.14588553 424.5012527 -223.64157637 426.47615008 -225.625 429.375 C-228.96108855 431.6575869 -231.01340838 431.42803405 -235 431 C-237.921875 429.015625 -237.921875 429.015625 -240.75 426.25 C-241.51969116 425.50290771 -241.51969116 425.50290771 -242.30493164 424.74072266 C-243.89274041 423.18144616 -245.44912692 421.59594796 -247 420 C-248.36705078 418.61167969 -248.36705078 418.61167969 -249.76171875 417.1953125 C-284.41890699 380.66613015 -307.43355116 332.67589291 -315 283 C-315.18256348 281.8457251 -315.36512695 280.6914502 -315.55322266 279.50219727 C-317.21180326 267.90468685 -317.39866065 256.38995975 -317.375 244.6875 C-317.37445618 243.6738739 -317.37391235 242.6602478 -317.37335205 241.61590576 C-317.33347417 225.41878779 -316.46747801 209.87491635 -313 194 C-312.78037598 192.97374512 -312.56075195 191.94749023 -312.33447266 190.89013672 C-307.58880387 169.26426174 -300.66406494 147.46520344 -289.89941406 128.01098633 C-288.89950554 125.77530596 -288.73307234 124.20041049 -288.69140625 121.76171875 C-288.66868652 120.94928711 -288.6459668 120.13685547 -288.62255859 119.29980469 C-288.60273926 118.43774414 -288.58291992 117.57568359 -288.5625 116.6875 C-287.75238419 96.15716786 -282.56932989 78.75793148 -269 63 C-268.31292969 62.20078125 -267.62585938 61.4015625 -266.91796875 60.578125 C-255.28253101 48.05761685 -238.77017548 39.82376991 -222 37 C-219.97910279 37.01326048 -217.95824484 37.03436305 -215.9375 37.0625 C-207.51615478 36.59912455 -201.54696585 31.69512206 -194.765625 27.13671875 C-188.17340737 22.71410849 -181.18256091 19.34105043 -174 16 C-173.32211426 15.67580078 -172.64422852 15.35160156 -171.94580078 15.01757812 C-151.91229793 5.45072966 -130.86482399 -1.19035989 -109 -5 C-108.06236816 -5.16371094 -107.12473633 -5.32742188 -106.15869141 -5.49609375 C-70.99568184 -11.31153767 -34.37205168 -9.00297563 0 0 Z M-57 8 C-57 47.6 -57 87.2 -57 128 C-53.04 129.98 -49.08 131.96 -45 134 C-40.85804253 137.31356598 -39.25283442 138.70815179 -36.8125 143 C-36.32394531 143.845625 -35.83539063 144.69125 -35.33203125 145.5625 C-34.1707298 147.68757949 -33.07612233 149.83113347 -32 152 C-22.70078132 152.26550466 -13.64800598 151.47200144 -4.4375 150.3125 C-3.7266626 150.22518616 -3.0158252 150.13787231 -2.28344727 150.0479126 C14.97349534 147.91751501 32.0424581 144.85077514 49 141 C48.41830624 136.12525883 47.40918918 131.72405824 45.85546875 127.0703125 C45.64440994 126.43568085 45.43335114 125.80104919 45.21589661 125.14718628 C44.77077211 123.81346175 44.32270752 122.48071515 43.87182617 121.14892578 C43.19243651 119.13959995 42.52425114 117.12680554 41.85742188 115.11328125 C39.77149477 108.86935047 37.62826706 102.73846253 34.73535156 96.81542969 C33.50484891 93.77757521 33.55218507 91.19867808 34 88 C35.54527568 85.56009103 36.63073868 85.11660884 39.375 84.25 C42.15648185 83.98509697 44.30562334 84.30716029 47 85 C47.28520508 85.87438721 47.57041016 86.74877441 47.86425781 87.6496582 C48.88957887 90.67426715 49.99826306 93.63594455 51.171875 96.60546875 C56.26941381 109.61182019 61.02974131 122.60441174 65 136 C71.70668936 134.64504448 78.00331293 132.7507548 84.4375 130.4375 C85.78231445 129.96280273 85.78231445 129.96280273 87.15429688 129.47851562 C91.65259229 127.91949537 91.65259229 127.91949537 96 126 C95.85691406 124.47632813 95.85691406 124.47632813 95.7109375 122.921875 C94.33559542 106.72998847 96.88505319 94.67242021 106 81 C98.6992048 73.46986045 91.27775875 66.47023702 83 60 C82.06285156 59.23429687 81.12570312 58.46859375 80.16015625 57.6796875 C57.61272829 39.63013771 27.88399591 21.79474332 -1 17 C2.25606212 20.9239723 5.57291719 24.59160426 9.25 28.125 C14.32783258 33.15154135 18.63657297 38.61756222 22.82763672 44.38769531 C23.94417653 45.9232282 25.08288056 47.442572 26.22265625 48.9609375 C29.39166817 53.45929636 31.53418254 56.5628896 30.9375 62.1875 C30.4734375 64.0746875 30.4734375 64.0746875 30 66 C21.46701847 67.42216359 21.46701847 67.42216359 18 65 C15.95703125 62.34765625 15.95703125 62.34765625 13.8125 59.0625 C1.22314088 40.2863404 -14.0397603 24.53765271 -34.5 14.5625 C-35.13897217 14.24442383 -35.77794434 13.92634766 -36.4362793 13.59863281 C-43.28167311 10.44613766 -49.19831137 9.67179042 -57 8 Z M-127.51806641 37.49072266 C-135.73361394 45.85785854 -142.53583786 55.24789366 -149 65 C-148.56429687 65.63164063 -148.12859375 66.26328125 -147.6796875 66.9140625 C-137.97382244 81.49386846 -132.39437947 96.66073435 -132.5625 114.25 C-132.56717285 115.33249023 -132.5718457 116.41498047 -132.57666016 117.53027344 C-132.77488581 128.36338617 -134.81750253 137.97707815 -139 148 C-132.93817917 149.46773142 -126.95411462 150.50003282 -120.75 151.125 C-119.93168701 151.20991699 -119.11337402 151.29483398 -118.27026367 151.38232422 C-111.49188274 152.04217248 -104.8112008 152.22011062 -98 152 C-97.68869141 151.1646875 -97.68869141 151.1646875 -97.37109375 150.3125 C-93.67342005 141.15340867 -87.9881404 134.33446771 -79 130 C-77.02 129.34 -75.04 128.68 -73 128 C-73 88.4 -73 48.8 -73 8 C-93.43839106 8 -113.86586525 24.08763302 -127.51806641 37.49072266 Z M-185 40 C-181.88781649 42.07478901 -178.66499313 43.68049325 -175.3125 45.3125 C-169.99856596 47.92826309 -164.94450303 50.736628 -160 54 C-159.40574219 53.14019531 -158.81148437 52.28039062 -158.19921875 51.39453125 C-150.05513031 39.73209018 -141.30954182 28.84444971 -131 19 C-130.34 18.34 -129.68 17.68 -129 17 C-147.38761972 17 -169.32348326 31.42752502 -185 40 Z M-256 73 C-266.90120206 86.22100804 -272.93948758 100.87009318 -272.37890625 118.17578125 C-271.19236706 130.15126447 -267.70515002 140.94227497 -261 151 C-260.34 151.33 -259.68 151.66 -259 152 C-258.78085937 151.26136719 -258.56171875 150.52273437 -258.3359375 149.76171875 C-253.64864415 134.76619084 -247.19655956 124.66104297 -234 116 C-234.28875 115.175 -234.5775 114.35 -234.875 113.5 C-235.24625 112.345 -235.6175 111.19 -236 110 C-236.5878125 108.1746875 -236.5878125 108.1746875 -237.1875 106.3125 C-239.11686246 98.14382828 -237.54535044 90.47440662 -233.5 83.22265625 C-228.70992468 76.12486235 -222.16633257 73.09484183 -214 71 C-206.59617742 69.7931498 -198.55739302 72.13604342 -192.25 76.0625 C-187.15824972 80.02006894 -183.1101581 86.63184036 -182 93 C-181.22883767 101.50806965 -182.56655699 108.21344175 -186 116 C-185.443125 116.32871094 -184.88625 116.65742188 -184.3125 116.99609375 C-172.78418113 124.18181953 -165.9483774 133.72320378 -162.1875 146.83203125 C-161.72445439 148.87393378 -161.34988238 150.93569394 -161 153 C-158.13773549 149.60608376 -155.92429459 146.28079105 -153.9375 142.3125 C-153.45152344 141.35988281 -152.96554688 140.40726562 -152.46484375 139.42578125 C-148.99639055 131.31422538 -147.46453989 124.01090737 -147.5625 115.1875 C-147.57007324 114.22481201 -147.57764648 113.26212402 -147.58544922 112.27026367 C-147.95810232 96.0979349 -154.82370261 81.6474735 -166 70 C-181.39151413 56.35300469 -197.52309704 51.89863697 -217.57177734 52.80908203 C-232.61479997 53.99183326 -245.81792463 62.21797069 -256 73 Z M115.54296875 94.92578125 C111.2150539 100.74381362 109.64011106 107.23538334 110.1796875 114.37890625 C111.37025439 122.14188835 114.4472205 128.87978294 120.40625 134.11328125 C129.09961331 140.43691751 136.70692032 142.26318432 147.359375 140.640625 C154.9057777 138.6603633 161.24391629 133.19940123 165.484375 126.73828125 C169.40522352 119.0528499 170.47752763 110.86560669 168.3515625 102.42578125 C164.73780984 93.57672026 158.91937502 87.89955218 150.33203125 83.91015625 C136.81068829 78.6329822 124.44286763 84.29698369 115.54296875 94.92578125 Z M-220.3125 91.3125 C-222.27688633 94.44096713 -222.92604832 96.30241609 -223 100 C-221.38764222 105.19537508 -219.52251212 107.98499192 -215 111 C-211.50452678 112.74773661 -207.71861548 111.8363668 -204 111 C-200.56238428 108.87891796 -198.22439161 106.8957915 -197 103 C-196.5175413 97.78944603 -197.01083486 94.33911068 -200 90 C-202.91104205 87.67835412 -205.85480815 86.19552056 -209.5625 85.5625 C-214.04296168 86.36668543 -217.10511633 88.10511633 -220.3125 91.3125 Z M-235.53125 136.97265625 C-242.84466559 147.42295352 -243.40785202 155.55296048 -243 168 C-226.52631408 176.2102725 -209.9764067 180.27956038 -191.8671875 175.0625 C-183.3361747 172.04869932 -183.3361747 172.04869932 -176 167 C-175.11903402 155.52695469 -177.03539865 146.28102162 -184 137 C-189.53492994 131.1232716 -195.0598837 126.95706913 -203.3359375 126.56640625 C-205.34888552 126.54923543 -207.36202828 126.54837839 -209.375 126.5625 C-210.37789062 126.54251953 -211.38078125 126.52253906 -212.4140625 126.50195312 C-221.73291261 126.50805185 -229.64563014 129.39041638 -235.53125 136.97265625 Z M97.91015625 141.29296875 C97.13140137 141.59170898 96.35264648 141.89044922 95.55029297 142.19824219 C94.31883545 142.6879248 94.31883545 142.6879248 93.0625 143.1875 C86.1907256 145.84253365 79.39551019 148.17651365 72.2734375 150.078125 C71.52320313 150.38234375 70.77296875 150.6865625 70 151 C68.7439115 154.7682655 69.44392791 157.63066645 70.14453125 161.4296875 C70.411382 162.95244456 70.67805812 164.47523223 70.94458008 165.99804688 C71.08666901 166.79460693 71.22875793 167.59116699 71.37515259 168.41186523 C73.88899893 182.56981417 76.09114852 196.63652331 77 211 C77.05494629 211.79615723 77.10989258 212.59231445 77.16650391 213.41259766 C78.66603558 235.61362854 78.06502508 257.79309415 77 280 C78.05445313 279.84144531 79.10890625 279.68289063 80.1953125 279.51953125 C111.01973478 275.70878251 137.012842 282.03390478 161.63671875 300.93359375 C162.08660156 301.28550781 162.53648437 301.63742187 163 302 C181.02822698 268.64308524 171.64778 212.02357147 161.70849609 177.6887207 C159.40657822 170.03436997 156.90445444 162.44907139 154 155 C153.13375 155.165 152.2675 155.33 151.375 155.5 C137.43540272 157.38296979 124.4803141 155.89109919 112.86328125 147.5234375 C110.40673541 145.5149409 108.24197426 143.24197426 106 141 C102.82624876 139.78940235 101.02917923 140.06285484 97.91015625 141.29296875 Z M-79.875 149.9375 C-83.70313435 155.45451715 -84.38519591 158.94492036 -83.5390625 165.56640625 C-82.27739194 171.26220883 -78.68297028 174.80187396 -74 178 C-69.9211756 180.14674968 -66.5795049 180.46571236 -62 180 C-55.8319516 178.00375178 -51.58958467 174.35332523 -48 169 C-46.16670559 163.50011677 -46.19080441 158.0913828 -48.5625 152.75 C-51.38187869 147.70532598 -55.58818084 144.80393972 -61 143 C-68.67109223 142.34990744 -74.65504318 144.01338479 -79.875 149.9375 Z M-281 148 C-296.43936589 176.84815759 -301.4478808 211.29324155 -301.3125 243.625 C-301.31034485 244.55230927 -301.3081897 245.47961853 -301.30596924 246.43502808 C-301.25480927 260.15787669 -300.86127938 273.53260571 -298 287 C-297.79600586 287.98629395 -297.59201172 288.97258789 -297.38183594 289.98876953 C-291.80113709 316.36914725 -283.09711813 342.45716421 -268 365 C-267.42636719 364.67128906 -266.85273438 364.34257812 -266.26171875 364.00390625 C-257.71931415 359.22067818 -248.894745 355.08993036 -240.02368164 350.95800781 C-239.3558667 350.64186523 -238.68805176 350.32572266 -238 350 C-237.26458984 349.69416992 -236.52917969 349.38833984 -235.77148438 349.07324219 C-235.18689453 348.71907227 -234.60230469 348.36490234 -234 348 C-233.40124576 344.76483067 -233.40124576 344.76483067 -233.4375 341 C-232.92457625 327.40347548 -228.37214405 316.38280841 -218.33325195 306.94873047 C-215.91194711 304.92645829 -213.45627326 303.35564477 -210.734375 301.765625 C-209.84459961 301.24258789 -208.95482422 300.71955078 -208.03808594 300.18066406 C-207.36551758 299.79104492 -206.69294922 299.40142578 -206 299 C-206.06058594 298.43458496 -206.12117188 297.86916992 -206.18359375 297.28662109 C-207.98527822 279.45340966 -208.22294513 261.661859 -208.25 243.75 C-208.25499512 242.61052917 -208.25999023 241.47105835 -208.26513672 240.29705811 C-208.3220839 224.43071851 -207.59441028 208.78753309 -206 193 C-206.86501129 192.94197708 -206.86501129 192.94197708 -207.74749756 192.88278198 C-224.29409631 191.74960372 -240.28330442 188.98671695 -254 179 C-254.83789062 178.39285156 -255.67578125 177.78570312 -256.5390625 177.16015625 C-266.16943286 169.81372569 -272.75371512 161.29792913 -279 151 C-279.66 150.01 -280.32 149.02 -281 148 Z M46.40625 156.85546875 C45.47296875 157.06381348 44.5396875 157.2721582 43.578125 157.48681641 C42.05445313 157.83365479 42.05445313 157.83365479 40.5 158.1875 C16.53864634 163.37840316 -7.60788075 165.93983074 -32 168 C-32.26264648 168.75853271 -32.52529297 169.51706543 -32.79589844 170.29858398 C-33.1468457 171.29188721 -33.49779297 172.28519043 -33.859375 173.30859375 C-34.20452148 174.29400146 -34.54966797 175.27940918 -34.90527344 176.29467773 C-36.14352792 179.35469066 -37.7950822 181.55884101 -40 184 C-40 184.66 -40 185.32 -40 186 C-40.57878906 186.2784375 -41.15757812 186.556875 -41.75390625 186.84375 C-44.59785213 188.30776388 -47.22519811 190.03551686 -49.90234375 191.78125 C-52 193 -52 193 -57 195 C-57 235.92 -57 276.84 -57 319 C-44.46 319.66 -31.92 320.32 -19 321 C-12.34550615 321.62657434 -5.74479678 322.27078193 0.875 323.125 C2.38787686 323.30977636 3.90089994 323.4933593 5.4140625 323.67578125 C8.94446046 324.1038084 12.47275306 324.54663823 16 325 C16.57790283 324.13987305 17.15580566 323.27974609 17.7512207 322.39355469 C21.87008437 316.3167916 25.89693551 310.38403891 31.1875 305.25 C31.72793945 304.71761719 32.26837891 304.18523437 32.82519531 303.63671875 C40.02835696 296.7765648 48.33333568 291.7120961 57.3125 287.5 C60.21127061 285.95905553 60.21127061 285.95905553 61.55908203 283.10571289 C61.62651611 282.01891235 61.62651611 282.01891235 61.6953125 280.91015625 C61.78244507 279.70480225 61.78244507 279.70480225 61.87133789 278.47509766 C61.91379639 277.65831543 61.95625488 276.8415332 62 276 C62.05341553 275.26700684 62.10683105 274.53401367 62.16186523 273.77880859 C64.90411647 234.93674763 62.66505523 195.00808315 54 157 C50.71107192 155.90369064 49.69125238 156.09537511 46.40625 156.85546875 Z M-151.265625 165.46484375 C-152.28226254 166.60325729 -153.27628802 167.76216079 -154.25 168.9375 C-162.72254384 178.20691689 -172.20488358 183.89345991 -184.15185547 187.83569336 C-187.77857348 189.09965419 -187.77857348 189.09965419 -190.11938477 191.9934082 C-191.34402026 196.17455214 -191.73781414 200.29298868 -192.109375 204.625 C-192.19346619 205.58575439 -192.27755737 206.54650879 -192.36419678 207.53637695 C-193.23946374 218.52454646 -193.30107591 229.5051488 -193.26074219 240.52246094 C-193.25000951 243.99692218 -193.26071776 247.47086662 -193.2734375 250.9453125 C-193.93603492 273.75504431 -193.93603492 273.75504431 -190 296 C-188.76636719 296.14695312 -188.76636719 296.14695312 -187.5078125 296.296875 C-172.45828688 298.31274679 -161.25436105 303.28306164 -151.7265625 315.33984375 C-149.70171091 318.45958116 -148.43262972 321.56917594 -147 325 C-146.10845215 324.88930176 -145.2169043 324.77860352 -144.29833984 324.66455078 C-140.76885669 324.23296492 -137.23825904 323.81365784 -133.70654297 323.40087891 C-132.21968678 323.22494723 -130.73329344 323.04502601 -129.24755859 322.85986328 C-110.52927365 320.53469118 -91.89921238 319.99469539 -73 319 C-73 278.08 -73 237.16 -73 195 C-77.62 192.69 -82.24 190.38 -87 188 C-91.95555198 183.50188358 -94.19560514 179.88540852 -96.68359375 173.73046875 C-97.1211499 172.65563232 -97.55870605 171.5807959 -98.00952148 170.47338867 C-98.33637939 169.65717041 -98.6632373 168.84095215 -99 168 C-100.1645874 167.88406494 -101.3291748 167.76812988 -102.52905273 167.64868164 C-106.88457284 167.21495117 -111.2400255 166.78054665 -115.59545898 166.34594727 C-117.47402162 166.15859126 -119.35260205 165.97141364 -121.23120117 165.78442383 C-123.94454671 165.51431377 -126.65782579 165.24354434 -129.37109375 164.97265625 C-130.19959335 164.89032242 -131.02809296 164.80798859 -131.88169861 164.72315979 C-132.68184891 164.64315231 -133.48199921 164.56314484 -134.30639648 164.48071289 C-135.08161652 164.40599258 -135.85683655 164.33127228 -136.6555481 164.25428772 C-138.26954591 164.07922769 -139.88000235 163.86914212 -141.48580933 163.63035583 C-142.28173492 163.51643997 -143.07766052 163.40252411 -143.89770508 163.28515625 C-144.60824539 163.17252441 -145.31878571 163.05989258 -146.05085754 162.94384766 C-148.54810857 163.01579032 -149.4550337 163.79602955 -151.265625 165.46484375 Z M45 314 C44.15953125 314.74894531 43.3190625 315.49789063 42.453125 316.26953125 C27.74125457 330.06748246 18.85081899 349.76899152 17.796875 369.875 C17.40751446 390.15358245 22.568318 407.89457556 35 424 C35.66 424.99 36.32 425.98 37 427 C37.66 427 38.32 427 39 427 C39.08636719 426.21238281 39.17273438 425.42476562 39.26171875 424.61328125 C41.52140439 407.09553481 48.67575943 393.60070696 62 382 C64.91781807 379.85259216 67.89784681 377.87009235 71 376 C69.92281321 373.23941741 68.80861845 370.63254743 67.4375 368 C64.07801946 360.14978526 63.90479223 349.95099243 67 342 C71.92049908 331.72023123 78.31607259 325.8509535 89 322 C98.24893878 319.20122293 107.94543895 320.9433284 116.4140625 325.21875 C124.15499055 329.87884046 129.0092673 336.8372421 131.52734375 345.4921875 C133.65521937 356.7822383 131.13380036 365.98677677 126 376 C127.2684375 376.81791016 127.2684375 376.81791016 128.5625 377.65234375 C144.14045717 387.91425118 153.72299368 400.71351027 157.6875 419.20703125 C158.16689069 421.80040173 158.60980944 424.39188416 159 427 C170.83136023 416.60274404 177.77576523 399.38921643 179.30322266 383.93139648 C179.43544958 380.84337778 179.4683509 377.77813342 179.4375 374.6875 C179.42847656 373.59445557 179.41945313 372.50141113 179.41015625 371.37524414 C178.96633183 350.5632691 169.89293751 331.59990657 155.8125 316.375 C139.28691845 300.74876983 118.43218457 293.30469565 95.91479492 293.53173828 C76.75080918 294.10857561 59.17366475 300.95926423 45 314 Z M-212 323 C-217.21930329 329.73015424 -218.59070588 336.15885292 -218.4375 344.546875 C-217.33953457 353.21295927 -212.82930837 360.3236484 -206.015625 365.66796875 C-199.54494967 369.9441321 -192.7250491 371.62298783 -185 371 C-175.57459855 368.66126063 -168.77797712 364.21680812 -163.125 356.3125 C-159.5502572 350.05972955 -158.28170592 342.47124903 -159.5 335.375 C-162.0416609 326.51135978 -167.01306426 319.60083941 -175 315 C-188.43330069 307.60887431 -202.0556744 312.64978356 -212 323 Z M-112.19555664 336.171875 C-114.22899424 336.3792313 -116.26352784 336.56969374 -118.29882812 336.7578125 C-126.58271383 337.54378526 -134.79161768 338.63529403 -143 340 C-143.21914062 341.17175781 -143.43828125 342.34351563 -143.6640625 343.55078125 C-146.512119 357.98483002 -150.73385041 369.81719909 -163.2890625 378.6015625 C-165.16762098 379.78976733 -167.05534828 380.92423522 -169 382 C-155.04465327 418.08982053 -132.39144019 457.05687493 -95.72753906 473.77416992 C-89.06619751 476.6028748 -80.31470633 480 -73 480 C-73 432.15 -73 384.3 -73 335 C-92.69287769 334.91433204 -92.69287769 334.91433204 -112.19555664 336.171875 Z M-57 335 C-57 382.85 -57 430.7 -57 480 C-24.91528796 472.45065599 -5.12864943 455.95238274 14.00708008 429.70068359 C15.14300121 427.75506604 15.70378389 426.23656755 16 424 C14.85930522 421.3236412 13.65703266 418.81970581 12.3125 416.25 C0.71203717 392.95830785 0.85842999 367.7970004 7.25 343.0625 C7.62125 341.5465625 7.62125 341.5465625 8 340 C6.27406771 338.27406771 3.88249595 338.54242488 1.5234375 338.28125 C0.38543701 338.15403564 -0.75256348 338.02682129 -1.92504883 337.89575195 C-3.14603271 337.76515381 -4.3670166 337.63455566 -5.625 337.5 C-6.86596436 337.3661792 -8.10692871 337.2323584 -9.38549805 337.09448242 C-25.40558322 335.39584349 -40.73753865 335 -57 335 Z M84.125 342.875 C80.4456357 348.28582985 79.53643965 352.42798364 80.4609375 358.82421875 C81.82816836 364.34267955 85.43403843 367.88178234 90 371 C94.0788244 373.14674968 97.4204951 373.46571236 102 373 C108.1680484 371.00375178 112.41041533 367.35332523 116 362 C117.72565255 356.82304236 117.6858707 351.87711982 115.8125 346.75 C112.11721869 341.14336629 108.42018298 338.10316339 102 336 C94.86821653 335.09231847 88.89880209 337.53957414 84.125 342.875 Z M70.98046875 395.23828125 C60.99485823 404.12094465 54.82453973 414.46909165 54 428 C53.92454649 432.66805703 53.94099238 437.33184183 54 442 C75.72496774 453.4899701 97.74158965 459.44921505 122 452 C133.27624469 448.3547441 133.27624469 448.3547441 143 442 C143.81595061 438.93574651 143.71023757 436.02531324 143.5625 432.875 C143.52805786 431.59230225 143.52805786 431.59230225 143.49291992 430.28369141 C143.24886049 424.16414877 142.5659511 418.61819132 140 413 C139.6596875 412.24847656 139.319375 411.49695313 138.96875 410.72265625 C133.63155308 400.1744799 125.79981393 392.83831664 115 388 C110.80776479 387.07121181 108.14996498 387.15114353 104 388 C99.2174611 388.22379298 94.64003794 388.17169744 89.9375 387.25 C82.54483638 386.78062453 76.6346355 390.75783375 70.98046875 395.23828125 Z M26 439 C25.47792969 439.72703125 24.95585937 440.4540625 24.41796875 441.203125 C16.78300192 451.63267689 8.24332862 460.96207868 -1 470 C1.62445848 471.31222924 2.40753542 470.74932148 5.15625 469.84765625 C6.00590332 469.56954102 6.85555664 469.29142578 7.73095703 469.00488281 C8.64474121 468.69389648 9.55852539 468.38291016 10.5 468.0625 C11.43312012 467.74764648 12.36624023 467.43279297 13.32763672 467.10839844 C19.70740522 464.90654099 25.94952068 462.47188465 32.125 459.75 C32.87587891 459.42136963 33.62675781 459.09273926 34.40039062 458.75415039 C37.82433406 457.1988582 40.45344329 455.75707206 43 453 C42.35933594 452.49210937 41.71867187 451.98421875 41.05859375 451.4609375 C35.95375788 447.39837065 30.92311866 443.28097275 26 439 Z " fill="#000000" transform="translate(317,12)"/>
</svg>
