<?xml version="1.0" encoding="UTF-8"?>
<svg version="1.1" xmlns="http://www.w3.org/2000/svg" width="512" height="512">
<path d="M0 0 C0.96594086 0.00054382 1.93188171 0.00108765 2.92709351 0.00164795 C18.82427694 0.04267209 34.1070568 0.96742637 49.6875 4.375 C51.16669922 4.69645996 51.16669922 4.69645996 52.67578125 5.02441406 C101.53665776 16.02291411 149.39188546 42.47830381 181.6875 81.375 C182.46996094 82.24640625 183.25242187 83.1178125 184.05859375 84.015625 C213.00993644 116.51674278 232.16563537 159.5009304 238.6875 202.375 C238.86265137 203.49511475 239.03780273 204.61522949 239.21826172 205.76928711 C240.8222463 217.07945314 241.08675288 228.27504914 241.0625 239.6875 C241.06168427 241.13641129 241.06168427 241.13641129 241.06085205 242.61459351 C240.91942085 297.42031418 222.15513018 351.27730465 186.6875 393.375 C186.24293457 393.90834961 185.79836914 394.44169922 185.34033203 394.99121094 C176.46755486 405.62194229 167.31894347 415.5049157 156.45703125 424.1640625 C154.64230999 425.61276804 152.84694774 427.08613988 151.07421875 428.5859375 C109.76426566 463.46989788 54.93725882 480.86382648 1.375 480.75 C0.40905914 480.74945618 -0.55688171 480.74891235 -1.55209351 480.74835205 C-17.44927694 480.70732791 -32.7320568 479.78257363 -48.3125 476.375 C-49.29863281 476.16069336 -50.28476563 475.94638672 -51.30078125 475.72558594 C-92.44383101 466.46435554 -130.42236543 447.15013436 -161.3125 418.375 C-162.70394666 417.16161781 -164.09958639 415.95302197 -165.5 414.75 C-171.99360756 409.06159978 -177.58778833 402.98521623 -182.99609375 396.25 C-184.48745378 394.3990034 -185.99911746 392.56409151 -187.53515625 390.75 C-198.24374514 378.0583391 -206.60569543 364.03942695 -214.3125 349.375 C-214.66022461 348.7243457 -215.00794922 348.07369141 -215.36621094 347.40332031 C-226.53507442 326.25330663 -233.61844915 301.92313867 -237.3125 278.375 C-237.49506348 277.21943604 -237.67762695 276.06387207 -237.86572266 274.87329102 C-239.46605387 263.60328263 -239.71166633 252.4342251 -239.6875 241.0625 C-239.68695618 240.09655914 -239.68641235 239.13061829 -239.68585205 238.13540649 C-239.64482791 222.23822306 -238.72007363 206.9554432 -235.3125 191.375 C-235.09819336 190.38886719 -234.88388672 189.40273437 -234.66308594 188.38671875 C-225.40185554 147.24366899 -206.08763436 109.26513457 -177.3125 78.375 C-176.09911781 76.98355334 -174.89052197 75.58791361 -173.6875 74.1875 C-139.73622792 35.31914714 -87.79834506 10.21606455 -37.3125 2.375 C-36.18803467 2.19839844 -35.06356934 2.02179687 -33.9050293 1.83984375 C-22.59999807 0.2374094 -11.40708054 -0.02424147 0 0 Z M-143.3125 65.375 C-143.85648437 65.8302002 -144.40046875 66.28540039 -144.9609375 66.75439453 C-190.23206398 104.69861654 -219.71293497 159.31912233 -225.3125 218.375 C-225.77479356 223.70458437 -226.08751675 229.03027587 -226.3125 234.375 C-226.35503906 235.38304687 -226.39757812 236.39109375 -226.44140625 237.4296875 C-227.40894673 286.06472246 -211.30341738 335.40411574 -182.3125 374.375 C-181.88001953 374.96297363 -181.44753906 375.55094727 -181.00195312 376.15673828 C-145.10615235 424.61606932 -91.33096392 455.48624707 -32.06640625 465.0859375 C26.20760619 473.45410994 86.63352672 458.62465498 134.15234375 423.83203125 C140.06265468 419.3871893 145.70144804 414.66864089 151.19287109 409.71826172 C152.621848 408.43400316 154.07028663 407.17149881 155.51953125 405.91015625 C159.90277365 402.06578323 163.99291308 398.15749651 167.73828125 393.6875 C169.22132218 391.92806066 170.74773891 390.2050812 172.29296875 388.5 C199.1089822 358.70845525 215.83461606 321.41523998 223.6875 282.375 C223.86007324 281.52019043 224.03264648 280.66538086 224.21044922 279.78466797 C234.99225016 224.07313305 221.93251758 163.07125264 190.55908203 115.93286133 C188.33467981 112.69682727 186.03114297 109.52542941 183.6875 106.375 C183.25501953 105.78702637 182.82253906 105.19905273 182.37695312 104.59326172 C146.48115235 56.13393068 92.70596392 25.26375293 33.44140625 15.6640625 C-29.27076599 6.65856846 -94.74504366 24.43322659 -143.3125 65.375 Z " fill="#B000FF" transform="translate(255.3125,15.625)"/>
<path d="M0 0 C18.93883727 -0.51596191 38.04415075 5.65102422 52.0625 18.55859375 C53.97061471 20.38357356 55.82947083 22.24388139 57.6875 24.12109375 C58.35523438 24.76691406 59.02296875 25.41273438 59.7109375 26.078125 C70.43972546 37.21955865 76.68707327 53.86458618 77.6875 69.12109375 C77.7390625 69.90097656 77.790625 70.68085938 77.84375 71.484375 C78.55864379 91.59076292 71.4011499 111.09945449 58.4375 126.30859375 C45.39090543 140.23820656 27.91830475 148.51714791 8.890625 149.50390625 C-13.09334663 150.14782477 -32.81879185 145.52453984 -49.3125 130.12109375 C-64.79878026 115.01813726 -71.93859071 95.66778376 -72.625 74.24609375 C-72.18805322 53.54573994 -63.62385887 35.696146 -49.3125 21.12109375 C-48.63574219 20.41984375 -47.95898438 19.71859375 -47.26171875 18.99609375 C-34.57533753 6.76365084 -17.35288562 0.90868151 0 0 Z M-2.3125 21.12109375 C-2.55503813 23.33182352 -2.55503813 23.33182352 -2.4375 25.74609375 C-2.41042969 26.97199219 -2.41042969 26.97199219 -2.3828125 28.22265625 C-2.35960937 28.84914062 -2.33640625 29.475625 -2.3125 30.12109375 C-2.96323486 30.1053833 -3.61396973 30.08967285 -4.28442383 30.07348633 C-7.23119424 30.01114726 -10.17782598 29.97210691 -13.125 29.93359375 C-14.14916016 29.90845703 -15.17332031 29.88332031 -16.22851562 29.85742188 C-17.21142578 29.84775391 -18.19433594 29.83808594 -19.20703125 29.828125 C-20.11300049 29.81241455 -21.01896973 29.7967041 -21.95239258 29.78051758 C-24.36879731 29.93777149 -24.36879731 29.93777149 -26.13549805 31.47924805 C-27.56961597 33.13171206 -27.56961597 33.13171206 -27.25 35.68359375 C-26.43424308 38.62211335 -26.43424308 38.62211335 -22.3125 40.12109375 C-22.3125 63.22109375 -22.3125 86.32109375 -22.3125 110.12109375 C-24.6225 110.12109375 -26.9325 110.12109375 -29.3125 110.12109375 C-31.44120693 111.0822728 -31.44120693 111.0822728 -32.3125 113.12109375 C-32.23707659 116.24102981 -32.23707659 116.24102981 -31.3125 119.12109375 C-28.54632437 120.50418156 -26.30232 120.23319571 -23.2109375 120.21875 C-21.99921875 120.21552734 -20.7875 120.21230469 -19.5390625 120.20898438 C-18.26804687 120.20060547 -16.99703125 120.19222656 -15.6875 120.18359375 C-13.769375 120.17682617 -13.769375 120.17682617 -11.8125 120.16992188 C-8.64578708 120.15810578 -5.47916644 120.1416319 -2.3125 120.12109375 C-2.34186646 121.05755737 -2.34186646 121.05755737 -2.37182617 122.01293945 C-2.38705322 122.82851318 -2.40228027 123.64408691 -2.41796875 124.484375 C-2.44733521 125.69927612 -2.44733521 125.69927612 -2.47729492 126.9387207 C-2.50062795 129.2914317 -2.50062795 129.2914317 -0.625 131.30859375 C1.73275956 132.38505333 1.73275956 132.38505333 4.375 131.37109375 C6.58505147 130.31881065 6.58505147 130.31881065 7.6875 129.12109375 C7.75929964 127.60181337 7.77142007 126.07941893 7.75 124.55859375 C7.74097656 123.73230469 7.73195313 122.90601563 7.72265625 122.0546875 C7.71105469 121.41660156 7.69945312 120.77851563 7.6875 120.12109375 C8.36554688 120.17910156 9.04359375 120.23710937 9.7421875 120.296875 C17.1714967 120.65702157 22.62766815 119.57321511 28.6875 115.12109375 C34.66983263 109.09444755 37.64950301 103.35871509 38.125 94.87109375 C38.01554923 88.19459667 35.60650371 82.23834361 31.01953125 77.33984375 C30.57996094 76.93765625 30.14039063 76.53546875 29.6875 76.12109375 C30.83537138 73.6340391 32.0911308 71.55348793 33.6875 69.30859375 C37.24319692 63.64170178 38.49160734 57.77093381 37.6875 51.12109375 C36.0598227 44.10430002 32.32488641 37.75660356 26.4609375 33.5078125 C20.20917074 29.98499155 14.76184143 29.51587443 7.6875 30.12109375 C7.71070313 29.49460938 7.73390625 28.868125 7.7578125 28.22265625 C7.77585937 27.40539062 7.79390625 26.588125 7.8125 25.74609375 C7.83570313 24.93398437 7.85890625 24.121875 7.8828125 23.28515625 C7.90120051 20.90767132 7.90120051 20.90767132 5.6875 19.12109375 C1.18269723 18.61059795 1.18269723 18.61059795 -2.3125 21.12109375 Z " fill="#AF00FF" transform="translate(253.3125,180.87890625)"/>
<path d="M0 0 C10.46255078 7.63819497 17.73397162 16.82716654 20.2421875 29.7265625 C21.31048622 39.12759126 19.82806247 47.6613741 15.30078125 55.9921875 C14.74390625 57.1471875 14.18703125 58.3021875 13.61328125 59.4921875 C14.6853544 62.54759597 16.48149708 64.59522793 18.67578125 66.9296875 C20.48546386 69.02018293 21.651101 70.57578905 22.80078125 73.1171875 C22.61328125 75.4921875 22.61328125 75.4921875 20.48828125 78.3671875 C17.61328125 80.4921875 17.61328125 80.4921875 15.1875 80.34765625 C11.43555313 79.10080289 9.35068244 76.71691699 6.578125 73.98828125 C4.49447187 72.08831756 4.49447187 72.08831756 0.61328125 72.4921875 C-1.39141987 73.23946949 -3.36967089 74.05963026 -5.32421875 74.9296875 C-16.06735894 79.69687107 -26.05266678 79.65929653 -37.1796875 75.87109375 C-48.00717101 71.21567148 -55.69939679 63.26343292 -60.73046875 52.66015625 C-65.00913237 41.73428309 -65.53183455 31.3076108 -61.08984375 20.26953125 C-55.55178361 8.7509371 -48.22995844 1.18303504 -36.32421875 -3.9453125 C-24.35264648 -7.86791278 -10.6571447 -6.73266424 0 0 Z " fill="#9B00FF" transform="translate(177.38671875,119.5078125)"/>
<path d="M0 0 C3.25 0.6875 3.25 0.6875 5.375 2.75 C6.37530375 6.10816258 5.97910828 7.79178344 4.421875 10.90625 C2.41817036 13.95188105 -0.05995696 16.2365719 -2.75 18.6875 C-1.75207533 21.19349917 -0.74677739 23.6952829 0.28515625 26.1875 C0.62417969 27.0125 0.96320313 27.8375 1.3125 28.6875 C1.65410156 29.5125 1.99570313 30.3375 2.34765625 31.1875 C6.16332762 41.75905704 4.61501186 52.53544692 0.25 62.6875 C-5.62991414 73.27134546 -14.92142628 81.34694206 -26.5390625 85.05859375 C-39.53922499 87.60485429 -50.90001277 86.17003926 -62.234375 79.1484375 C-71.13867743 72.84371329 -77.52888062 63.39881537 -79.75 52.6875 C-81.11348971 40.66074503 -79.85240973 29.985481 -72.5625 20 C-63.91401456 9.75740813 -54.7706609 3.16272725 -41.125 1.75 C-31.83983105 1.38479073 -24.96334142 3.12454189 -16.9765625 7.859375 C-14.78582723 8.93477984 -14.78582723 8.93477984 -12.66796875 8.0234375 C-10.72605972 6.67082469 -9.11937541 5.22430529 -7.4375 3.5625 C-4.69184632 1.15931495 -3.77193137 0.69152075 0 0 Z " fill="#9B00FF" transform="translate(193.75,312.3125)"/>
<path d="M0 0 C4.71486295 0.92751402 6.63131722 2.84507918 9.91796875 6.21875 C11.92499087 8.16906557 11.92499087 8.16906557 15.8125 7.75 C17.81720112 7.00271801 19.79545214 6.18255724 21.75 5.3125 C32.77063321 0.42218109 43.48058991 0.62131958 54.8125 4.75 C66.99335552 10.82435803 73.54855527 19.38502915 78.8125 31.75 C81.69744724 41.75351654 80.94022045 53.86076925 76.3515625 63.140625 C70.09842779 73.74238638 61.78772151 81.2141603 49.92578125 85.08984375 C38.46429704 87.52019611 26.45551161 86.44030601 16.35546875 80.2421875 C5.97443761 72.63768428 -1.46792411 63.3207974 -3.78125 50.4453125 C-4.86507351 39.97656274 -3.37690562 32.02004136 1.984375 22.9765625 C3.06046294 20.78697908 3.06046294 20.78697908 2.14453125 18.6796875 C0.35109607 16.08157319 -1.7019517 13.83958742 -3.84765625 11.53125 C-5.33500045 9.55390611 -5.86971062 8.19453372 -6.1875 5.75 C-4.79121723 1.91022238 -4.02585697 0.94726046 0 0 Z " fill="#C400FF" transform="translate(318.1875,312.25)"/>
<path d="M0 0 C7.81318483 6.65223612 14.60997718 14.60861479 16.37890625 24.98828125 C17.52619495 39.35063605 15.52452545 49.88971453 6.50390625 61.546875 C3.44018255 65.06677815 0.41885044 67.65945578 -3.62109375 69.98828125 C-4.44738281 70.47296875 -5.27367187 70.95765625 -6.125 71.45703125 C-15.92017169 76.36142876 -27.53646352 76.6939873 -38.109375 74.1484375 C-40.70200549 73.21873915 -43.14088353 72.18052266 -45.62109375 70.98828125 C-47.28420291 70.31278873 -48.94998507 69.64373377 -50.62109375 68.98828125 C-51.34425781 69.72884766 -51.34425781 69.72884766 -52.08203125 70.484375 C-52.71367187 71.12503906 -53.3453125 71.76570313 -53.99609375 72.42578125 C-54.62257813 73.06386719 -55.2490625 73.70195312 -55.89453125 74.359375 C-58.41408182 76.73641705 -59.5209554 76.97735707 -63.05859375 77.36328125 C-66.62109375 76.98828125 -66.62109375 76.98828125 -68.74609375 74.92578125 C-69.7463975 71.56761867 -69.35020203 69.88399781 -67.79296875 66.76953125 C-65.78926411 63.7239002 -63.31113679 61.43920935 -60.62109375 58.98828125 C-61.61216337 56.49949657 -62.60907318 54.01658629 -63.65625 51.55078125 C-68.31459342 39.9314912 -68.76991001 28.86143906 -64.62109375 16.98828125 C-58.87280765 4.57128861 -49.88515324 -2.27046396 -37.37109375 -7.32421875 C-24.06185475 -10.6515285 -10.88062076 -8.35099805 0 0 Z " fill="#C400FF" transform="translate(381.62109375,122.01171875)"/>
<path d="M0 0 C2 2 2 2 2.1953125 5.6953125 C2.182009 7.17200108 2.15814835 8.64862358 2.125 10.125 C2.11597656 10.87910156 2.10695313 11.63320313 2.09765625 12.41015625 C2.0740687 14.27357254 2.03819719 16.13682593 2 18 C2.8353125 18.22042969 2.8353125 18.22042969 3.6875 18.4453125 C12.35432734 20.99265702 18.576774 25.09206657 23.03515625 33.078125 C26.71394001 40.4059048 27.19234107 48.03083803 25.27734375 56.01171875 C21.86847616 66.12791285 16.32125037 71.14979006 7 76 C-0.53692429 78.5123081 -10.54141415 78.26906947 -17.6875 74.75 C-19.14922397 73.87247675 -20.591365 72.96043296 -22 72 C-22.928125 71.401875 -23.85625 70.80375 -24.8125 70.1875 C-31.30006103 63.69993897 -34.01446415 56.29393764 -34.375 47.1875 C-34.2073882 38.80691016 -31.51436651 31.69864095 -25.7734375 25.53515625 C-21.1131258 21.50100978 -16.06753012 19.00236877 -10 18 C-10.04640625 16.87980469 -10.0928125 15.75960938 -10.140625 14.60546875 C-10.17814423 13.13283915 -10.21454423 11.66018073 -10.25 10.1875 C-10.30027344 9.08051758 -10.30027344 9.08051758 -10.3515625 7.95117188 C-10.45021797 2.50045689 -10.45021797 2.50045689 -8.1796875 -0.0234375 C-5.11388521 -1.39700483 -3.18246184 -0.89939139 0 0 Z " fill="#B000FF" transform="translate(260,339)"/>
<path d="M0 0 C5.62065084 4.17534062 8.36895311 10.46846289 10.96484375 16.8203125 C10.96484375 17.4803125 10.96484375 18.1403125 10.96484375 18.8203125 C12.08503906 18.77390625 13.20523438 18.7275 14.359375 18.6796875 C15.8320046 18.64216827 17.30466302 18.60576827 18.77734375 18.5703125 C19.51533203 18.53679687 20.25332031 18.50328125 21.01367188 18.46875 C26.46438686 18.37009453 26.46438686 18.37009453 28.98828125 20.640625 C30.36184858 23.70642729 29.86423514 25.63785066 28.96484375 28.8203125 C26.96484375 30.8203125 26.96484375 30.8203125 23.26953125 31.015625 C21.79284267 31.0023215 20.31622017 30.97846085 18.83984375 30.9453125 C18.08574219 30.93628906 17.33164063 30.92726563 16.5546875 30.91796875 C14.69127121 30.8943812 12.82801782 30.85850969 10.96484375 30.8203125 C10.81789062 31.3771875 10.6709375 31.9340625 10.51953125 32.5078125 C7.98827865 41.1198903 3.89410299 47.40771345 -4.04296875 51.85546875 C-12.38448902 55.89538151 -21.13756283 56.05987791 -29.84765625 53.1328125 C-38.58839551 49.54463971 -42.77031357 44.01658997 -47.03515625 35.8203125 C-49.54746435 28.28338821 -49.30422572 18.27889835 -45.78515625 11.1328125 C-44.907633 9.67108853 -43.99558921 8.2289475 -43.03515625 6.8203125 C-42.43703125 5.8921875 -41.83890625 4.9640625 -41.22265625 4.0078125 C-29.73137465 -7.4834691 -13.65725988 -7.91649229 0 0 Z " fill="#9600FF" transform="translate(144.03515625,231.1796875)"/>
<path d="M0 0 C7.85167463 8.39946588 10.24633887 16.55650006 10.0390625 27.7734375 C9.7395583 33.25763632 7.75454671 37.37666483 4.6875 41.875 C4.089375 42.803125 3.49125 43.73125 2.875 44.6875 C-3.41467534 50.97717534 -10.70793801 53.86065047 -19.5625 54.25 C-27.71212245 54.07088742 -35.71564483 51.50743915 -41.7421875 45.859375 C-45.03226157 41.70176897 -49.3125 35.31548054 -49.3125 29.875 C-50.36050781 29.89820313 -51.40851563 29.92140625 -52.48828125 29.9453125 C-53.86718037 29.96407303 -55.2460872 29.98227293 -56.625 30 C-57.31529297 30.01675781 -58.00558594 30.03351563 -58.71679688 30.05078125 C-62.48385396 30.08717794 -64.09681704 30.01878864 -67.3125 27.875 C-68.29118153 25.01423862 -68.53385111 23.48797231 -67.5 20.625 C-66.3125 18.875 -66.3125 18.875 -64.3125 17.875 C-61.76092345 17.8033265 -59.23777029 17.78191558 -56.6875 17.8125 C-55.62789063 17.81926758 -55.62789063 17.81926758 -54.546875 17.82617188 C-52.80204725 17.83796125 -51.057263 17.85589676 -49.3125 17.875 C-49.16554688 17.318125 -49.01859375 16.76125 -48.8671875 16.1875 C-46.31984298 7.52067266 -42.22043343 1.298226 -34.234375 -3.16015625 C-22.79818394 -8.90149607 -10.51661026 -6.7465047 0 0 Z " fill="#CA00FF" transform="translate(406.3125,232.125)"/>
<path d="M0 0 C7.58354467 4.38938862 12.6463221 10.71425955 15 19.1875 C16.87642817 29.37382436 14.89078243 38.17944209 9.3125 46.875 C4.16743409 51.68451813 -1.51510831 55.49280662 -8.5625 56.5625 C-8.53929687 57.61050781 -8.51609375 58.65851563 -8.4921875 59.73828125 C-8.47342697 61.11718037 -8.45522707 62.4960872 -8.4375 63.875 C-8.42074219 64.56529297 -8.40398437 65.25558594 -8.38671875 65.96679688 C-8.35032206 69.73385396 -8.41871136 71.34681704 -10.5625 74.5625 C-13.42326138 75.54118153 -14.94952769 75.78385111 -17.8125 74.75 C-19.5625 73.5625 -19.5625 73.5625 -20.5625 71.5625 C-20.6341735 69.01092345 -20.65558442 66.48777029 -20.625 63.9375 C-20.62048828 63.23109375 -20.61597656 62.5246875 -20.61132812 61.796875 C-20.59953875 60.05204725 -20.58160324 58.307263 -20.5625 56.5625 C-21.119375 56.41554687 -21.67625 56.26859375 -22.25 56.1171875 C-30.8620778 53.5859349 -37.14990095 49.49175924 -41.59765625 41.5546875 C-45.63756901 33.21316723 -45.80206541 24.46009342 -42.875 15.75 C-39.28682721 7.00926074 -33.75877747 2.82734268 -25.5625 -1.4375 C-17.50958119 -4.12180627 -7.66117349 -3.51056304 0 0 Z " fill="#B000FF" transform="translate(270.5625,98.4375)"/>
<path d="M0 0 C6.6825 -0.12375 6.6825 -0.12375 13.5 -0.25 C15.58344727 -0.30462402 15.58344727 -0.30462402 17.70898438 -0.36035156 C24.94725179 -0.42509083 29.9475392 -0.11974222 36 4 C38.75472482 6.97103115 39.91553023 10.31060464 40.1171875 14.34375 C39.77463591 18.81181424 39.03091663 22.57799736 36 26 C28.7056166 30.81269767 22.03751238 30.47383733 13.5 30.25 C9.045 30.1675 4.59 30.085 0 30 C0 20.1 0 10.2 0 0 Z " fill="#B000FF" transform="translate(241,261)"/>
<path d="M0 0 C6.6825 -0.12375 6.6825 -0.12375 13.5 -0.25 C15.58344727 -0.30462402 15.58344727 -0.30462402 17.70898438 -0.36035156 C24.94725179 -0.42509083 29.9475392 -0.11974222 36 4 C38.75472482 6.97103115 39.91553023 10.31060464 40.1171875 14.34375 C39.77463591 18.81181424 39.03091663 22.57799736 36 26 C28.7056166 30.81269767 22.03751238 30.47383733 13.5 30.25 C9.045 30.1675 4.59 30.085 0 30 C0 20.1 0 10.2 0 0 Z " fill="#B000FF" transform="translate(241,221)"/>
</svg>
