<?xml version="1.0" encoding="UTF-8"?>
<svg version="1.1" xmlns="http://www.w3.org/2000/svg" width="512" height="512">
<path d="M0 0 C1.99293772 -0.03144274 3.98551057 -0.08379598 5.97799683 -0.13659668 C13.47712175 -0.16957052 18.81518414 0.29086671 24.53488159 5.40539551 C28.9070267 9.89259707 30.3476032 14.08314342 30.84738159 20.28039551 C30.66650021 25.54605348 29.54024415 30.21596585 25.91769409 34.17102051 C18.56501866 40.67166917 11.51278518 41.37866473 1.99215698 41.64440918 C-18.32994241 42.26801525 -38.19390982 45.98165931 -57.46511841 52.40539551 C-58.31493286 52.68866699 -59.16474731 52.97193848 -60.04031372 53.26379395 C-78.88020081 59.69536611 -97.41971625 68.53459652 -113.46511841 80.40539551 C-113.98718872 80.78905273 -114.50925903 81.17270996 -115.04714966 81.56799316 C-121.66938466 86.45906428 -128.0025089 91.60221012 -134.05886841 97.18664551 C-136.5553458 99.48859219 -139.1028191 101.72530093 -141.65261841 103.96789551 C-145.96296327 107.86326928 -149.8033028 111.8997047 -153.46511841 116.40539551 C-154.29785278 117.42375488 -155.13058716 118.44211426 -155.98855591 119.49133301 C-187.4452883 158.43882917 -204.96386519 205.64501363 -204.84011841 255.78039551 C-204.83880417 257.09066208 -204.83880417 257.09066208 -204.83746338 258.42739868 C-204.73296219 290.1751481 -197.92811319 319.648487 -184.46511841 348.40539551 C-183.84529679 349.77907991 -183.22550345 351.15277707 -182.60574341 352.52648926 C-176.00674571 366.75158671 -166.89725053 379.77061604 -157.34011841 392.15539551 C-148.70680024 403.38833737 -147.38060722 414.56467107 -148.46511841 428.40539551 C-151.00792309 441.84824829 -161.5253903 451.92071783 -170.96511841 461.09289551 C-171.88293091 461.99717285 -172.80074341 462.9014502 -173.74636841 463.83312988 C-175.97914474 466.03101909 -178.21865544 468.22151258 -180.46511841 470.40539551 C-165.72569536 471.19522066 -151.01582 471.61860557 -136.25491333 471.64562988 C-132.97773753 471.65554644 -129.70113826 471.68682205 -126.42410278 471.71789551 C-124.31408037 471.72440987 -122.20405361 471.72966644 -120.09402466 471.73352051 C-118.64401817 471.75204071 -118.64401817 471.75204071 -117.16471863 471.77093506 C-111.56289956 471.75245018 -107.19734858 471.56932082 -102.46511841 468.40539551 C-99.08741834 460.96918308 -100.31655498 452.11384953 -100.48855591 444.09289551 C-100.51476086 442.51250695 -100.54002476 440.93210253 -100.56439209 439.35168457 C-100.63067291 435.2153091 -100.7096435 431.07927192 -100.79135132 426.94317627 C-100.8726351 422.71326568 -100.94178806 418.48315816 -101.01199341 414.25305176 C-101.15123209 405.97026065 -101.30389116 397.68778765 -101.46511841 389.40539551 C-102.45511841 389.73539551 -103.44511841 390.06539551 -104.46511841 390.40539551 C-111.77714384 391.06618595 -118.56637139 391.21615141 -124.46511841 386.40539551 C-129.31271556 381.67222662 -130.89529398 377.13624605 -131.21511841 370.40539551 C-130.88073116 363.48729484 -129.07722059 359.47207861 -124.46511841 354.40539551 C-123.415177 353.2317041 -123.415177 353.2317041 -122.34402466 352.03430176 C-115.44954959 344.75746412 -107.85896302 338.64672144 -97.47683716 338.06945801 C-89.40660368 337.90088433 -82.43129343 337.84184003 -75.46511841 342.40539551 C-74.77160278 342.82949707 -74.07808716 343.25359863 -73.36355591 343.69055176 C-66.24797285 348.47424898 -61.67751674 355.14258864 -59.46511841 363.40539551 C-59.16755125 366.94021641 -59.17134389 370.46383668 -59.17459106 374.00964355 C-59.16787384 375.06574326 -59.16115662 376.12184296 -59.15423584 377.20994568 C-59.13526428 380.69571664 -59.13133173 384.18129489 -59.12918091 387.66711426 C-59.12275134 390.0984149 -59.11602286 392.52971477 -59.10900879 394.96101379 C-59.09703735 400.05764559 -59.09332773 405.15420963 -59.09451294 410.25085449 C-59.09471587 416.76280547 -59.06743924 423.27431878 -59.03296852 429.78616619 C-59.01066313 434.80924959 -59.00667656 439.83222837 -59.00773239 444.85535622 C-59.00538094 447.25498777 -58.99658332 449.6546224 -58.98106766 452.05420494 C-58.96133913 455.42116737 -58.96727382 458.78719538 -58.97927856 462.1541748 C-58.96803955 463.13378174 -58.95680054 464.11338867 -58.94522095 465.12268066 C-59.05913933 477.77890321 -64.58653449 489.48752509 -73.21511841 498.65539551 C-83.42341791 508.2632068 -95.74652845 513.03860368 -109.66873169 512.92297363 C-111.25879532 512.93348755 -111.25879532 512.93348755 -112.88098145 512.94421387 C-116.34940578 512.96167312 -119.81699976 512.95021533 -123.28543091 512.93664551 C-125.71437739 512.93934347 -128.14332282 512.94322843 -130.57226562 512.94824219 C-135.64749497 512.95412057 -140.7224416 512.94562606 -145.79763794 512.92687988 C-152.28839118 512.90406743 -158.77848357 512.91723923 -165.26921272 512.94116974 C-170.27936751 512.95565157 -175.28936663 512.9510111 -180.29952621 512.94065857 C-182.69242304 512.93799917 -185.08533421 512.9412332 -187.47821426 512.95057678 C-190.82595317 512.96078403 -194.17263371 512.94518266 -197.52029419 512.92297363 C-198.49923645 512.93107056 -199.47817871 512.93916748 -200.48678589 512.94750977 C-210.21007217 512.82856399 -218.42048451 509.12375163 -225.46511841 502.40539551 C-233.42507814 492.57458049 -234.53144147 482.66360509 -233.46511841 470.40539551 C-231.35153555 458.3854014 -219.5955284 449.43114916 -211.23074341 441.24914551 C-210.61632889 440.6471785 -210.00191437 440.04521149 -209.36888123 439.42500305 C-206.83559228 436.94637767 -204.30089354 434.46964762 -201.74832153 432.01086426 C-199.85613432 430.18483743 -197.97990528 428.34364311 -196.10574341 426.49914551 C-195.5226239 425.94496948 -194.93950439 425.39079346 -194.3387146 424.81982422 C-192.55150175 423.10317319 -192.55150175 423.10317319 -190.46511841 420.40539551 C-190.95353732 416.31663497 -193.21226461 413.98105558 -195.77761841 410.84289551 C-226.83491656 371.67357414 -246.25367075 318.64714586 -246.70339966 268.56945801 C-246.71319351 267.660392 -246.72298737 266.75132599 -246.733078 265.81471252 C-246.90803554 245.35447974 -246.67796635 225.51741615 -242.46511841 205.40539551 C-242.25081177 204.37269531 -242.03650513 203.33999512 -241.81570435 202.27600098 C-238.64768014 187.52186203 -234.0207451 173.42123871 -228.46511841 159.40539551 C-228.19119263 158.70043945 -227.91726685 157.9954834 -227.63504028 157.26916504 C-212.441768 118.57201477 -184.10355179 81.95433311 -151.46511841 56.40539551 C-150.48027466 55.6152002 -149.49543091 54.82500488 -148.48074341 54.01086426 C-114.73871673 27.18837116 -74.27833727 9.51382519 -31.71707153 2.76379395 C-29.69674481 2.44225886 -27.68198513 2.08619264 -25.66824341 1.72570801 C-17.15331039 0.39182365 -8.60657932 0.1236972 0 0 Z " fill="#000000" transform="translate(247.46511840820313,-0.4053955078125)"/>
<path d="M0 0 C0.91804916 -0.0071553 1.83609833 -0.01431061 2.78196716 -0.02168274 C3.78202789 -0.02437164 4.78208862 -0.02706055 5.81245422 -0.02983093 C6.87147446 -0.03640213 7.93049469 -0.04297333 9.02160645 -0.04974365 C12.52781751 -0.0694607 16.03398575 -0.08113608 19.54023743 -0.09111023 C20.73891764 -0.09518576 21.93759785 -0.09926128 23.1726017 -0.10346031 C29.51772006 -0.12431475 35.86281683 -0.13861893 42.20796204 -0.147995 C48.75377081 -0.15905502 55.29923925 -0.19345254 61.84492779 -0.23316669 C66.88507713 -0.25934156 71.9251455 -0.26768766 76.96535683 -0.27127647 C79.37781382 -0.27614052 81.79026724 -0.28774921 84.2026577 -0.30631447 C87.58458114 -0.33072227 90.96562549 -0.32973733 94.34761047 -0.32279968 C95.33755005 -0.33560974 96.32748962 -0.3484198 97.34742737 -0.36161804 C107.11789371 -0.28883527 115.32456824 3.39608776 122.40351868 10.14717102 C130.36347841 19.97798604 131.46984174 29.88896144 130.40351868 42.14717102 C128.28993582 54.16716512 116.53392867 63.12141737 108.16914368 71.30342102 C107.55472916 71.90538803 106.94031464 72.50735504 106.30728149 73.12756348 C103.77399255 75.60618886 101.23929381 78.0829189 98.6867218 80.54170227 C96.79453459 82.36772909 94.91830555 84.20892342 93.04414368 86.05342102 C92.46102417 86.60759705 91.87790466 87.16177307 91.27711487 87.73274231 C89.48990202 89.44939334 89.48990202 89.44939334 87.40351868 92.14717102 C87.89193759 96.23593155 90.15066488 98.57151095 92.71601868 101.70967102 C117.89392188 133.46392657 132.55463183 171.72294394 140.40351868 211.14717102 C140.58430969 212.02872864 140.76510071 212.91028625 140.95137024 213.81855774 C146.75796974 243.51533155 145.54316656 277.63078879 139.40351868 307.14717102 C139.21628235 308.05563782 139.02904602 308.96410461 138.83613586 309.90010071 C126.69629737 366.69944867 94.27972158 420.23588104 48.40351868 456.14717102 C47.41867493 456.93736633 46.43383118 457.72756165 45.41914368 458.54170227 C9.45583383 487.14784921 -34.95536082 505.76088636 -80.59648132 511.14717102 C-81.70104675 511.28421448 -81.70104675 511.28421448 -82.82792664 511.42402649 C-90.28136403 512.26899387 -97.7254486 512.43803188 -105.22148132 512.52217102 C-106.49249695 512.55955383 -107.76351257 512.59693665 -109.07304382 512.63545227 C-116.57702385 512.70580208 -121.87101491 512.26014127 -127.59648132 507.14717102 C-131.96862643 502.65996946 -133.40920293 498.46942311 -133.90898132 492.27217102 C-133.72809994 487.00651305 -132.60184388 482.33660068 -128.97929382 478.38154602 C-120.82782368 471.17466684 -112.69846453 471.1779118 -102.20951843 470.60395813 C-52.60879599 467.71515858 -5.60060127 449.11146478 31.06367493 415.29951477 C33.36782452 413.18000488 35.72347302 411.1328176 38.09101868 409.08467102 C42.25031632 405.37463549 45.86841988 401.45016799 49.40351868 397.14717102 C49.83003723 396.6383136 50.25655579 396.12945618 50.69599915 395.60517883 C74.59260279 367.04082116 90.91163866 333.68414745 98.40351868 297.14717102 C98.56577942 296.40338196 98.72804016 295.6595929 98.8952179 294.89326477 C108.06831847 251.34707009 100.04160429 203.95805497 81.40351868 164.14717102 C80.78369706 162.77348662 80.16390372 161.39978946 79.54414368 160.02607727 C72.94514598 145.80097982 63.83565079 132.78195049 54.27851868 120.39717102 C45.6452005 109.16422916 44.31900749 97.98789546 45.40351868 84.14717102 C47.94632336 70.70431824 58.46379057 60.6318487 67.90351868 51.45967102 C68.82133118 50.55539368 69.73914368 49.65111633 70.68476868 48.71943665 C72.91754501 46.52154744 75.15705571 44.33105395 77.40351868 42.14717102 C62.66409563 41.35734587 47.95422027 40.93396096 33.1933136 40.90693665 C29.9161378 40.89702008 26.63953853 40.86574447 23.36250305 40.83467102 C21.25248064 40.82815666 19.14245388 40.82290009 17.03242493 40.81904602 C16.06575394 40.80669922 15.09908295 40.79435242 14.1031189 40.78163147 C8.50815779 40.80009372 4.08908297 40.9155342 -0.59648132 44.14717102 C-3.70870176 52.09669234 -2.75683715 60.9216426 -2.57304382 69.33857727 C-2.54683066 70.89511597 -2.52156747 72.45167094 -2.49720764 74.00823975 C-2.43100702 78.07720246 -2.35202027 82.14581721 -2.27024841 86.2144928 C-2.18888508 90.37746469 -2.11978204 94.5406388 -2.04960632 98.70381165 C-1.91047365 106.85184354 -1.75781469 114.99954859 -1.59648132 123.14717102 C-0.60648132 122.81717102 0.38351868 122.48717102 1.40351868 122.14717102 C8.71554411 121.48638057 15.50477165 121.33641512 21.40351868 126.14717102 C26.25111582 130.88033991 27.83369424 135.41632048 28.15351868 142.14717102 C27.81913143 149.06527169 26.01562086 153.08048792 21.40351868 158.14717102 C20.70355774 158.92963196 20.0035968 159.7120929 19.28242493 160.51826477 C12.38794986 167.79510241 4.79736328 173.90584509 -5.58476257 174.48310852 C-13.65499605 174.6516822 -20.6303063 174.7107265 -27.59648132 170.14717102 C-28.28999695 169.72306946 -28.98351257 169.2989679 -29.69804382 168.86201477 C-36.81362688 164.07831755 -41.38408299 157.40997788 -43.59648132 149.14717102 C-43.89404848 145.61235012 -43.89025584 142.08872985 -43.88700867 138.54292297 C-43.89372589 137.48682327 -43.90044312 136.43072357 -43.90736389 135.34262085 C-43.92633545 131.85684988 -43.930268 128.37127163 -43.93241882 124.88545227 C-43.93884839 122.45415163 -43.94557687 120.02285176 -43.95259094 117.59155273 C-43.96456238 112.49492094 -43.968272 107.3983569 -43.96708679 102.30171204 C-43.96688386 95.78976106 -43.99416049 89.27824775 -44.02863121 82.76640034 C-44.0509366 77.74331694 -44.05492317 72.72033815 -44.05386734 67.69721031 C-44.05621879 65.29757876 -44.06501641 62.89794413 -44.08053207 60.49836159 C-44.1002606 57.13139916 -44.09432591 53.76537115 -44.08232117 50.39839172 C-44.09356018 49.41878479 -44.10479919 48.43917786 -44.11637878 47.42988586 C-44.00047795 34.55341446 -38.24854668 23.0075161 -29.72148132 13.52217102 C-22.20508959 6.30129555 -10.55431639 0.05667706 0 0 Z " fill="#000000" transform="translate(368.5964813232422,-0.1471710205078125)"/>
</svg>
