<?xml version="1.0" encoding="UTF-8"?>
<svg version="1.1" xmlns="http://www.w3.org/2000/svg" width="512" height="512">
<path d="M0 0 C0.99606262 0.00182281 1.99212524 0.00364563 3.01837158 0.00552368 C17.53080287 0.05026745 31.66059519 0.50780957 45.9375 3.3125 C46.83307617 3.47347168 47.72865234 3.63444336 48.65136719 3.80029297 C91.84008171 11.61389252 129.2661861 31.14069325 163.9375 57.3125 C163.91655273 56.65765625 163.89560547 56.0028125 163.87402344 55.328125 C163.79019617 52.32307672 163.73863105 49.31827536 163.6875 46.3125 C163.65398437 45.28253906 163.62046875 44.25257812 163.5859375 43.19140625 C163.49413213 35.98468449 164.300061 30.22335977 169.3503418 24.79345703 C174.86190128 19.89174344 179.99308107 18.84583014 187.15234375 19 C192.83261537 19.63733763 197.03382782 21.9989938 200.8125 26.25 C204.40779623 31.43145633 205.23622015 35.58940217 205.22802734 41.8215332 C205.23474457 42.56043793 205.24146179 43.29934265 205.24838257 44.06063843 C205.26732555 46.49492179 205.27128501 48.92892884 205.2734375 51.36328125 C205.27986856 53.06333019 205.28659715 54.76337804 205.29360962 56.46342468 C205.30557352 60.02504033 205.30929141 63.58655905 205.30810547 67.14819336 C205.30790246 71.6976702 205.3351898 76.24652112 205.36964989 80.7958498 C205.39195963 84.30731524 205.39594175 87.8186311 205.39488602 91.33016014 C205.39723641 93.00659527 205.40602815 94.68303488 205.42155075 96.3593998 C205.57290992 114.39562335 205.57290992 114.39562335 199.52548218 120.81025696 C194.20942867 125.60972156 189.29328879 126.6120502 182.33666992 126.60302734 C181.58801163 126.60974457 180.83935333 126.61646179 180.06800842 126.62338257 C177.60126037 126.64232768 175.13478496 126.64628512 172.66796875 126.6484375 C170.94549957 126.6548684 169.22303148 126.66159698 167.50056458 126.66860962 C163.89187082 126.68057405 160.28327273 126.68429136 156.67456055 126.68310547 C152.06455295 126.68290245 147.45516301 126.71019022 142.84530163 126.74464989 C139.28751341 126.76695764 135.72987285 126.77094181 132.17202187 126.76988602 C130.47325833 126.77223669 128.77449039 126.78103003 127.07579613 126.79655075 C108.69104872 126.9487885 108.69104872 126.9487885 101.87890625 120.3046875 C97.87258173 114.1533337 95.88257688 108.47703664 97.38671875 101.11328125 C99.33973404 95.18650074 102.54113285 90.76030515 107.9375 87.5 C112.98397256 85.50243794 117.85270762 85.10309389 123.25 84.75 C124.50425781 84.66621094 125.75851562 84.58242187 127.05078125 84.49609375 C128.00339844 84.43550781 128.95601563 84.37492187 129.9375 84.3125 C124.96615351 80.93480501 119.96483343 77.60627018 114.9375 74.3125 C114.33953613 73.91788574 113.74157227 73.52327148 113.12548828 73.11669922 C70.92332047 45.54653835 12.82643187 34.73937121 -36.66894531 44.80322266 C-37.45881836 44.97128418 -38.24869141 45.1393457 -39.0625 45.3125 C-39.93745117 45.49474121 -40.81240234 45.67698242 -41.71386719 45.86474609 C-88.9473334 55.91424113 -133.12575657 80.80617785 -164.0625 118.3125 C-164.83335937 119.24578125 -165.60421875 120.1790625 -166.3984375 121.140625 C-177.45743047 135.02541744 -186.65298457 150.19467477 -194.0625 166.3125 C-194.59359375 167.45847656 -195.1246875 168.60445312 -195.671875 169.78515625 C-201.47133214 182.80404071 -205.75360886 196.08979298 -208.8125 210 C-209.01109619 210.90097412 -209.20969238 211.80194824 -209.41430664 212.73022461 C-212.28572913 226.42574163 -213.36992176 239.65164983 -213.26831055 253.60009766 C-213.25007069 256.17751063 -213.24780182 258.75456033 -213.24804688 261.33203125 C-213.22787628 270.208895 -213.02396443 279.033471 -212.32633972 287.88571167 C-211.92529696 293.38444495 -212.17615203 296.58938514 -215.0625 301.3125 C-220.14370289 306.90853842 -224.81998497 309.91967453 -232.4375 310.625 C-238.8116949 310.07550044 -244.59133933 308.03205849 -249.0625 303.3125 C-257.32033636 290.56608359 -255.46547179 271.64990637 -255.4375 257.125 C-255.43718277 255.60522552 -255.43718277 255.60522552 -255.43685913 254.05474854 C-255.40239141 237.47593887 -254.45690373 221.5844403 -251.0625 205.3125 C-250.88058105 204.42143555 -250.69866211 203.53037109 -250.51123047 202.61230469 C-238.37387259 145.10357234 -205.18702936 89.98315069 -158.0625 54.3125 C-157.52367187 53.89726074 -156.98484375 53.48202148 -156.4296875 53.05419922 C-121.79970099 26.43142652 -81.29922597 8.85329643 -38.0625 2.3125 C-36.93787354 2.13517334 -35.81324707 1.95784668 -34.65454102 1.77514648 C-23.10059556 0.12374292 -11.65784453 -0.04420897 0 0 Z " fill="#000000" transform="translate(255.0625,-0.31250000000000006)"/>
<path d="M0 0 C7.4891011 5.95723951 9.2366352 12.95296884 10.35050964 22.03488159 C11.40387615 31.53851278 11.34956309 41.07480622 11.3125 50.625 C11.30976578 52.08599625 11.30976578 52.08599625 11.30697632 53.57650757 C11.26276583 67.59670526 10.84516456 81.22973085 8 95 C7.81775879 95.93457031 7.63551758 96.86914062 7.44775391 97.83203125 C-0.05530365 136.09323705 -14.55231109 171.69653776 -38 203 C-38.88945313 204.19302734 -38.88945313 204.19302734 -39.796875 205.41015625 C-41.49520153 207.63819891 -43.23687209 209.82288818 -45 212 C-45.72832031 212.91394531 -46.45664062 213.82789063 -47.20703125 214.76953125 C-59.44286901 229.84487872 -73.3638988 243.49890712 -89 255 C-90.43279297 256.12535156 -90.43279297 256.12535156 -91.89453125 257.2734375 C-100.45935974 263.95189473 -109.61698314 269.55316477 -119 275 C-119.6815918 275.39719238 -120.36318359 275.79438477 -121.06542969 276.20361328 C-153.89320738 295.0832115 -193.94045752 307.01012206 -231.9140625 307.203125 C-232.83825989 307.21013931 -233.76245728 307.21715363 -234.71466064 307.22438049 C-237.68482375 307.24180898 -240.65478762 307.24823376 -243.625 307.25 C-244.63854553 307.25067474 -245.65209106 307.25134949 -246.6963501 307.25204468 C-261.34827036 307.23651835 -275.58427133 306.8319623 -290 304 C-290.89557617 303.83902832 -291.79115234 303.67805664 -292.71386719 303.51220703 C-335.89719871 295.69958136 -373.30864686 276.16059842 -408 250 C-407.98428955 250.6297876 -407.9685791 251.2595752 -407.95239258 251.90844727 C-407.88959768 254.79303825 -407.85086942 257.67748486 -407.8125 260.5625 C-407.78736328 261.55314453 -407.76222656 262.54378906 -407.73632812 263.56445312 C-407.65943073 271.27982539 -408.80955025 275.83601702 -413.25 282.25 C-418.13168418 287.13168418 -422.22065321 288.17853882 -428.9375 288.5 C-436.25998467 288.30754421 -440.43059756 285.70463414 -445.375 280.5 C-448.59433634 275.54717486 -449.29819614 271.32449132 -449.29052734 265.4909668 C-449.29724457 264.75206207 -449.30396179 264.01315735 -449.31088257 263.25186157 C-449.32982555 260.81757821 -449.33378501 258.38357116 -449.3359375 255.94921875 C-449.34236856 254.24916981 -449.34909715 252.54912196 -449.35610962 250.84907532 C-449.36807352 247.28745967 -449.37179141 243.72594095 -449.37060547 240.16430664 C-449.37040246 235.6148298 -449.3976898 231.06597888 -449.43214989 226.5166502 C-449.45445963 223.00518476 -449.45844175 219.4938689 -449.45738602 215.98233986 C-449.45973641 214.30590473 -449.46852815 212.62946512 -449.48405075 210.9531002 C-449.63540992 192.91687665 -449.63540992 192.91687665 -443.58798218 186.50224304 C-438.25781978 181.69004059 -433.34144066 180.70072835 -426.36743164 180.7253418 C-425.23962532 180.7176754 -425.23962532 180.7176754 -424.08903503 180.70985413 C-421.61266031 180.69599565 -419.13656506 180.696912 -416.66015625 180.69921875 C-414.93289589 180.69532985 -413.20563647 180.69099478 -411.4783783 180.68623352 C-407.86128639 180.67877944 -404.24429211 180.67905676 -400.62719727 180.68432617 C-395.99915567 180.69012075 -391.37151429 180.67318625 -386.74353886 180.6499815 C-383.17725806 180.63522779 -379.61107329 180.63437467 -376.04476738 180.63749123 C-374.33878219 180.63697887 -372.63279151 180.63175725 -370.92683601 180.62167931 C-368.53828267 180.60929979 -366.15050445 180.61611509 -363.76196289 180.62768555 C-363.06203217 180.62004181 -362.36210144 180.61239807 -361.64096069 180.60452271 C-355.63081052 180.66865688 -351.77232166 182.43376225 -347.3125 186.375 C-342.68841045 191.62396652 -340.81754388 195.98684278 -341 203 C-342.13730958 209.16381172 -344.53875772 213.64250754 -349 218 C-354.93096041 221.58328858 -360.49164661 222.11627595 -367.3125 222.5625 C-368.56675781 222.64628906 -369.82101562 222.73007812 -371.11328125 222.81640625 C-372.06589844 222.87699219 -373.01851563 222.93757812 -374 223 C-325.3053616 255.99167468 -269.01502924 273.29260314 -209.9140625 262.97265625 C-208.27457092 262.65595861 -206.63653395 262.33164241 -205 262 C-204.13600586 261.82839355 -203.27201172 261.65678711 -202.38183594 261.47998047 C-168.5859898 254.56635125 -134.99516351 239.99227393 -109 217 C-108.00226563 216.14728516 -108.00226563 216.14728516 -106.984375 215.27734375 C-104.96661078 213.54255866 -102.98111033 211.77653915 -101 210 C-100.0615625 209.16597656 -99.123125 208.33195313 -98.15625 207.47265625 C-59.5471258 172.88159254 -34.95543614 121.63841323 -31 70 C-30.74035098 64.35250364 -30.75123082 58.70413026 -30.79418945 53.05200195 C-30.81266236 50.54042542 -30.81469667 48.02921621 -30.81445312 45.51757812 C-30.81936346 43.8880177 -30.82518965 42.25845971 -30.83203125 40.62890625 C-30.83370049 39.52706749 -30.83370049 39.52706749 -30.83540344 38.40296936 C-30.87629878 33.8616498 -31.21630554 29.42419756 -31.76731873 24.91601562 C-32.57654434 18.2524415 -32.5955719 11.87714742 -29 6 C-20.94922844 -3.0282383 -10.97446876 -5.74191614 0 0 Z " fill="#000000" transform="translate(501,205)"/>
<path d="M0 0 C2.6976011 1.53678669 5.08622623 3.26430445 7.5546875 5.15234375 C8.17408203 5.62510742 8.79347656 6.09787109 9.43164062 6.58496094 C13.21803268 9.48619925 16.97384719 12.42438109 20.71875 15.37890625 C25.36394011 19.0280298 30.09754019 22.54321099 34.8671875 26.02734375 C42.61688611 31.69625309 50.27865356 37.47131377 57.89819336 43.31396484 C61.96834294 46.43244844 66.04783294 49.53029918 70.19140625 52.55078125 C87.14800881 64.93230768 87.14800881 64.93230768 89.5546875 72.15234375 C90.49519933 84.68647251 90.49519933 84.68647251 86.5546875 90.15234375 C81.84978071 95.35570319 76.62174741 99.52545446 70.9296875 103.58984375 C69.23842327 104.81610996 67.54836302 106.04403806 65.859375 107.2734375 C64.98764648 107.90749512 64.11591797 108.54155273 63.21777344 109.19482422 C58.78410848 112.45381997 54.42117736 115.80418865 50.0546875 119.15234375 C41.10138765 126.00309938 32.05855639 132.72106249 22.96337891 139.38183594 C20.39740159 141.26795671 17.84052262 143.16593748 15.28515625 145.06640625 C14.42035645 145.70819824 13.55555664 146.34999023 12.66455078 147.01123047 C11.00625603 148.24231645 9.34959217 149.47560331 7.69482422 150.71142578 C6.94861816 151.26427246 6.20241211 151.81711914 5.43359375 152.38671875 C4.7794751 152.87366211 4.12535645 153.36060547 3.45141602 153.86230469 C-2.61520318 157.98844909 -8.26141243 157.70840093 -15.4453125 157.15234375 C-21.53662115 155.26957562 -25.35723665 150.59695868 -28.59375 145.2578125 C-30.52001223 140.49517332 -30.15312242 134.84582177 -28.86328125 129.9375 C-24.20916957 119.20541599 -11.81417626 112.65192151 -2.71484375 106.0234375 C3.65911915 101.3666008 9.91960217 96.5632702 16.17285156 91.74609375 C21.24485704 87.85469293 26.39431135 84.15659534 31.71655273 80.61303711 C32.32313721 80.1310083 32.92972168 79.64897949 33.5546875 79.15234375 C33.5546875 78.49234375 33.5546875 77.83234375 33.5546875 77.15234375 C32.09294424 75.80363049 32.09294424 75.80363049 30.13671875 74.45703125 C29.38753174 73.9141748 28.63834473 73.37131836 27.86645508 72.81201172 C26.62931763 71.92860107 26.62931763 71.92860107 25.3671875 71.02734375 C23.6160372 69.75809594 21.86607991 68.48720089 20.1171875 67.21484375 C19.20195312 66.5496875 18.28671875 65.88453125 17.34375 65.19921875 C11.90942626 61.21100357 6.5694832 57.09886287 1.2199707 52.99804688 C-2.87983213 49.8587824 -6.98844955 46.73752759 -11.15234375 43.68359375 C-12.24446167 42.87946045 -12.24446167 42.87946045 -13.35864258 42.05908203 C-14.69630118 41.07716205 -16.03823514 40.10102439 -17.38549805 39.13232422 C-22.80653468 35.14388043 -27.50278549 30.82911692 -29.4453125 24.15234375 C-30.38347698 17.54569076 -29.89486945 12.3393018 -25.9453125 6.875 C-19.15189257 -0.9268182 -10.04146061 -3.4808258 0 0 Z " fill="#000000" transform="translate(304.4453125,177.84765625)"/>
<path d="M0 0 C6.12286866 2.30925093 10.0425101 6.57439267 13.25 12.1875 C14.76422703 17.86585135 14.92238027 23.66171555 12.5625 29.125 C6.99601757 38.66754131 -3.99047995 44.76218914 -12.73046875 51.12890625 C-19.10443165 55.78574295 -25.36491467 60.58907355 -31.61816406 65.40625 C-36.69016954 69.29765082 -41.83962385 72.99574841 -47.16186523 76.53930664 C-47.76844971 77.02133545 -48.37503418 77.50336426 -49 78 C-49 78.66 -49 79.32 -49 80 C-47.53825674 81.34871326 -47.53825674 81.34871326 -45.58203125 82.6953125 C-44.83284424 83.23816895 -44.08365723 83.78102539 -43.31176758 84.34033203 C-42.07463013 85.22374268 -42.07463013 85.22374268 -40.8125 86.125 C-39.0613497 87.39424781 -37.31139241 88.66514286 -35.5625 89.9375 C-34.64726562 90.60265625 -33.73203125 91.2678125 -32.7890625 91.953125 C-27.35473876 95.94134018 -22.0147957 100.05348088 -16.6652832 104.15429688 C-12.56548037 107.29356135 -8.45686295 110.41481616 -4.29296875 113.46875 C-3.56489014 114.00483887 -2.83681152 114.54092773 -2.08666992 115.09326172 C-0.74901132 116.0751817 0.59292264 117.05131936 1.94018555 118.02001953 C7.21362213 121.89986887 12.35701769 126.42807076 14 133 C14.77148508 139.84841372 14.10761889 145.34257399 10 151 C5.24610597 155.99540202 0.73988362 158.30149734 -6.125 158.5 C-13.39902646 158.32278119 -17.30103431 156.35893862 -23 152 C-23.61939453 151.52723633 -24.23878906 151.05447266 -24.87695312 150.56738281 C-28.66334518 147.6661445 -32.41915969 144.72796266 -36.1640625 141.7734375 C-40.80925261 138.12431395 -45.54285269 134.60913276 -50.3125 131.125 C-58.06022792 125.45753222 -65.71708463 119.6802669 -73.33911133 113.8449707 C-77.4438717 110.70391331 -81.55553282 107.57521698 -85.70703125 104.49609375 C-86.43510986 103.95549316 -87.16318848 103.41489258 -87.91333008 102.85791016 C-89.25298751 101.86574547 -90.59507338 100.87684668 -91.94018555 99.89208984 C-97.48488887 95.7827414 -102.68497136 91.70139871 -105 85 C-105.87803304 77.40822656 -105.4163375 71.36474481 -101 65 C-98.51604657 62.49653815 -95.78583082 60.44645782 -92.9375 58.375 C-92.14384033 57.77800293 -91.35018066 57.18100586 -90.5324707 56.56591797 C-88.03390983 54.69340844 -85.51911502 52.84473715 -83 51 C-81.44233355 49.84946556 -79.88503367 48.69843466 -78.328125 47.546875 C-75.99508726 45.82447832 -73.66011499 44.10495475 -71.32006836 42.39208984 C-65.32365624 38.00036856 -59.40162865 33.51808672 -53.5 29 C-46.62130536 23.73955951 -39.71540624 18.52021668 -32.75 13.375 C-31.62561523 12.54162109 -31.62561523 12.54162109 -30.47851562 11.69140625 C-12.78310819 -1.33063933 -12.78310819 -1.33063933 0 0 Z " fill="#000000" transform="translate(223,177)"/>
</svg>
