<?xml version="1.0" encoding="UTF-8"?>
<svg version="1.1" xmlns="http://www.w3.org/2000/svg" width="512" height="512">
<path d="M0 0 C1.3365287 -0.01469078 1.3365287 -0.01469078 2.70005798 -0.02967834 C22.60828118 -0.20334589 41.90456474 -0.03544421 61.4453125 4.23828125 C62.92451172 4.55974121 62.92451172 4.55974121 64.43359375 4.88769531 C113.29447026 15.88619536 161.14969796 42.34158506 193.4453125 81.23828125 C194.22777344 82.1096875 195.01023437 82.98109375 195.81640625 83.87890625 C224.76774894 116.38002403 243.92344787 159.36421165 250.4453125 202.23828125 C250.62046387 203.358396 250.79561523 204.47851074 250.97607422 205.63256836 C252.5800588 216.94273439 252.84456538 228.13833039 252.8203125 239.55078125 C252.81949677 240.99969254 252.81949677 240.99969254 252.81866455 242.47787476 C252.67723335 297.28359543 233.91294268 351.1405859 198.4453125 393.23828125 C198.00074707 393.77163086 197.55618164 394.30498047 197.09814453 394.85449219 C188.22536736 405.48522354 179.07675597 415.36819695 168.21484375 424.02734375 C166.40012249 425.47604929 164.60476024 426.94942113 162.83203125 428.44921875 C121.52207816 463.33317913 66.69507132 480.72710773 13.1328125 480.61328125 C12.16687164 480.61273743 11.20093079 480.6121936 10.20571899 480.6116333 C-5.69146444 480.57060916 -20.9742443 479.64585488 -36.5546875 476.23828125 C-37.54082031 476.02397461 -38.52695313 475.80966797 -39.54296875 475.58886719 C-80.68601851 466.32763679 -118.66455293 447.01341561 -149.5546875 418.23828125 C-150.94613416 417.02489906 -152.34177389 415.81630322 -153.7421875 414.61328125 C-160.23579506 408.92488103 -165.82997583 402.84849748 -171.23828125 396.11328125 C-172.72964128 394.26228465 -174.24130496 392.42737276 -175.77734375 390.61328125 C-186.48593264 377.92162035 -194.84788293 363.9027082 -202.5546875 349.23828125 C-202.90241211 348.58762695 -203.25013672 347.93697266 -203.60839844 347.26660156 C-214.77726192 326.11658788 -221.86063665 301.78641992 -225.5546875 278.23828125 C-225.73725098 277.08271729 -225.91981445 275.92715332 -226.10791016 274.73657227 C-227.70824137 263.46656388 -227.95385383 252.29750635 -227.9296875 240.92578125 C-227.92914368 239.95984039 -227.92859985 238.99389954 -227.92803955 237.99868774 C-227.88701541 222.10150431 -226.96226113 206.81872445 -223.5546875 191.23828125 C-223.34038086 190.25214844 -223.12607422 189.26601562 -222.90527344 188.25 C-213.64404304 147.10695024 -194.32982186 109.12841582 -165.5546875 78.23828125 C-164.34130531 76.84683459 -163.13270947 75.45119486 -161.9296875 74.05078125 C-123.16385022 29.67058133 -58.73818865 0.53610464 0 0 Z M-11.5546875 88.23828125 C-17.08037066 95.19801076 -17.73236986 101.25341462 -18.078125 109.98828125 C-18.59779703 113.5322741 -18.89296406 114.07984224 -21.5546875 116.23828125 C-23.48071289 117.14208984 -23.48071289 117.14208984 -25.65234375 117.88671875 C-26.44938721 118.16765381 -27.24643066 118.44858887 -28.06762695 118.73803711 C-28.90898193 119.02686768 -29.75033691 119.31569824 -30.6171875 119.61328125 C-36.83098672 121.80442928 -42.73684789 124.05751555 -48.44921875 127.390625 C-51.4202225 128.58674339 -53.37181024 128.68156779 -56.5546875 128.23828125 C-58.77551834 126.67097615 -60.60267366 125.20854433 -62.5546875 123.36328125 C-68.51180011 117.82502812 -73.7816282 115.62767044 -81.921875 115.8828125 C-92.37456185 117.29408031 -100.13953709 125.42364341 -106.5546875 133.23828125 C-110.99941602 139.53884631 -112.84637164 145.56198695 -111.5546875 153.23828125 C-109.74379065 159.89698273 -106.06000544 164.2559385 -101.1640625 169 C-98.97372737 172.04626707 -99.02185323 173.53530699 -99.5546875 177.23828125 C-100.58236962 180.01214273 -101.89305309 182.60852081 -103.2421875 185.23828125 C-106.55365158 191.92858107 -109.24073713 198.57997241 -111.546875 205.67578125 C-112.5546875 208.23828125 -112.5546875 208.23828125 -114.5546875 209.23828125 C-116.76163121 209.36861257 -118.97044938 209.46799395 -121.1796875 209.55078125 C-128.88104517 210.06315407 -133.50766463 211.6067615 -139.3046875 216.61328125 C-147.17791773 225.79871652 -148.28448085 234.3870719 -147.5546875 246.23828125 C-146.85499553 253.31419844 -144.28319273 258.89931254 -139.5546875 264.23828125 C-132.59495799 269.76396441 -126.53955413 270.41596361 -117.8046875 270.76171875 C-114.26069465 271.28139078 -113.71312651 271.57655781 -111.5546875 274.23828125 C-110.65087891 276.16430664 -110.65087891 276.16430664 -109.90625 278.3359375 C-109.62531494 279.13298096 -109.34437988 279.93002441 -109.05493164 280.7512207 C-108.76610107 281.59257568 -108.47727051 282.43393066 -108.1796875 283.30078125 C-105.98853947 289.51458047 -103.7354532 295.42044164 -100.40234375 301.1328125 C-99.22167788 304.06543419 -99.14408498 306.10240513 -99.5546875 309.23828125 C-101.41796875 311.73046875 -101.41796875 311.73046875 -103.8671875 314.11328125 C-109.31644314 319.85384929 -111.55117199 324.22896518 -112.0546875 332.11328125 C-111.60630605 342.61821798 -105.03033309 349.76968772 -97.67578125 356.5859375 C-91.52075027 361.98690649 -85.31921671 365.15586584 -76.9921875 364.6484375 C-69.18701536 363.33506719 -64.21309041 359.44130346 -58.79296875 353.84765625 C-55.74670168 351.65732112 -54.25766176 351.70544698 -50.5546875 352.23828125 C-47.78082602 353.26596337 -45.18444794 354.57664684 -42.5546875 355.92578125 C-35.86438768 359.23724533 -29.21299634 361.92433088 -22.1171875 364.23046875 C-19.5546875 365.23828125 -19.5546875 365.23828125 -18.5546875 367.23828125 C-18.42435618 369.44522496 -18.3249748 371.65404313 -18.2421875 373.86328125 C-17.72981468 381.56463892 -16.18620725 386.19125838 -11.1796875 391.98828125 C-1.99425223 399.86151148 6.59410315 400.9680746 18.4453125 400.23828125 C26.82274774 399.40989052 33.49297469 395.79622682 38.8828125 389.30078125 C42.13801309 382.92058808 42.72629618 376.96682509 43.00390625 369.91015625 C43.51675017 366.80586209 44.07995989 366.20339481 46.4453125 364.23828125 C48.37133789 363.33447266 48.37133789 363.33447266 50.54296875 362.58984375 C51.73853394 362.16844116 51.73853394 362.16844116 52.95825195 361.73852539 C53.79960693 361.44969482 54.64096191 361.16086426 55.5078125 360.86328125 C61.72161172 358.67213322 67.62747289 356.41904695 73.33984375 353.0859375 C76.3108475 351.88981911 78.26243524 351.79499471 81.4453125 352.23828125 C83.66614334 353.80558635 85.49329866 355.26801817 87.4453125 357.11328125 C93.40242511 362.65153438 98.6722532 364.84889206 106.8125 364.59375 C117.26518685 363.18248219 125.03016209 355.05291909 131.4453125 347.23828125 C135.89004102 340.93771619 137.73699664 334.91457555 136.4453125 327.23828125 C134.63441565 320.57957977 130.95063044 316.220624 126.0546875 311.4765625 C123.86435237 308.43029543 123.91247823 306.94125551 124.4453125 303.23828125 C125.47299462 300.46441977 126.78367809 297.86804169 128.1328125 295.23828125 C131.44427658 288.54798143 134.13136213 281.89659009 136.4375 274.80078125 C137.4453125 272.23828125 137.4453125 272.23828125 139.4453125 271.23828125 C141.65225621 271.10794993 143.86107438 271.00856855 146.0703125 270.92578125 C153.77167017 270.41340843 158.39828963 268.869801 164.1953125 263.86328125 C172.06854273 254.67784598 173.17510585 246.0894906 172.4453125 234.23828125 C171.61692177 225.86084601 168.00325807 219.19061906 161.5078125 213.80078125 C155.12761933 210.54558066 149.17385634 209.95729757 142.1171875 209.6796875 C139.01289334 209.16684358 138.41042606 208.60363386 136.4453125 206.23828125 C135.54150391 204.31225586 135.54150391 204.31225586 134.796875 202.140625 C134.37547241 200.94505981 134.37547241 200.94505981 133.94555664 199.7253418 C133.65672607 198.88398682 133.36789551 198.04263184 133.0703125 197.17578125 C130.87916447 190.96198203 128.6260782 185.05612086 125.29296875 179.34375 C124.09685036 176.37274625 124.00202596 174.42115851 124.4453125 171.23828125 C126.0126176 169.01745041 127.47504942 167.19029509 129.3203125 165.23828125 C134.85856563 159.28116864 137.05592331 154.01134055 136.80078125 145.87109375 C135.40932873 135.56517071 127.26144536 127.51494478 119.4453125 121.23828125 C112.91759355 116.87585444 107.21198136 115.39962687 99.4453125 116.23828125 C92.37535021 117.95386715 88.03177318 121.04938645 83.4296875 126.62890625 C81.4453125 128.23828125 81.4453125 128.23828125 78.7109375 128.703125 C74.46284308 128.09843213 71.23547586 126.49523206 67.4453125 124.55078125 C60.75501268 121.23931717 54.10362134 118.55223162 47.0078125 116.24609375 C44.4453125 115.23828125 44.4453125 115.23828125 43.4453125 113.23828125 C43.31498118 111.03133754 43.2155998 108.82251937 43.1328125 106.61328125 C42.62043968 98.91192358 41.07683225 94.28530412 36.0703125 88.48828125 C22.86070061 77.16575677 1.80432315 76.40675438 -11.5546875 88.23828125 Z " fill="#B000FF" transform="translate(243.5546875,15.76171875)"/>
<path d="M0 0 C0.89847656 -0.020625 1.79695312 -0.04125 2.72265625 -0.0625 C7.66522003 -0.09170274 11.19618338 -0.08442001 15.125 3.25 C18.83039834 6.97446557 19.59482054 9.42259309 19.6875 14.625 C20.03157864 21.39952618 20.98752078 25.35406042 25.0625 30.875 C29.64743206 34.4306616 34.73398829 36.19194485 40.125 38.25 C42.09550964 39.02448639 44.06319309 39.8057093 46.02978516 40.59008789 C47.91073041 41.33943597 49.79513081 42.08009384 51.6796875 42.8203125 C55.125 44.25 55.125 44.25 58.26171875 45.90234375 C62.61307003 47.95038767 66.41289547 47.911348 71.125 47.25 C75.64440034 45.30198261 78.58570735 42.87151933 82.1875 39.5625 C85.46254651 36.62755447 87.56445114 35.15296705 92.125 35.25 C100.66639377 36.23554543 106.39930964 42.99246761 111.6875 49.3125 C114.02543864 54.0900268 114.82312493 58.0625419 113.1875 63.1875 C110.72217956 66.84812731 107.89178062 69.99182055 104.8671875 73.19921875 C101.79458639 76.81606983 101.60865903 80.6207888 101.6484375 85.1953125 C102.33918418 89.62288548 104.21691872 93.32146808 106.20849609 97.28027344 C108.58602726 102.00687655 110.4870713 106.76422633 112.25 111.75 C115.26220925 120.8777239 115.26220925 120.8777239 122.015625 127.28515625 C126.42887761 128.99171976 130.54582693 129.36821 135.25 129.5625 C140.48633954 129.87681412 143.17211653 131.05231723 146.91796875 134.6796875 C150.10853431 138.83052036 149.34674588 144.15933847 149.375 149.125 C149.4059375 150.47271484 149.4059375 150.47271484 149.4375 151.84765625 C149.4761421 158.38783252 148.57776898 161.69521712 143.96484375 166.5 C140.20246027 168.81849766 137.03027386 168.993433 132.6875 169.25 C126.70818764 169.60510327 122.9418986 170.30231618 118.125 174.25 C114.92772866 178.85783222 113.21525513 183.60949713 111.40625 188.890625 C110.39436325 191.54374269 109.30864985 194.04924967 108.09375 196.609375 C102.22928507 207.91136891 102.22928507 207.91136891 102.125 220.25 C104.07680648 224.77819103 106.45289654 227.62742637 109.8125 231.1875 C112.71869087 234.4381747 114.22801408 236.8468449 114.3828125 241.25 C113.3815279 249.01754117 107.78482908 254.32742321 102.125 259.25 C97.43550042 262.71129731 93.46199914 263.58992715 87.6875 262.75 C83.6683902 261.05774324 81.73350492 259.05604505 78.796875 255.9375 C75.21328565 252.32041916 71.69671027 251.07981843 66.71484375 250.8515625 C59.94735298 250.9284728 54.51531529 253.69582631 48.5 256.5625 C46.34197674 257.56039262 44.18313992 258.556528 42.0234375 259.55078125 C41.01144287 260.02161133 39.99944824 260.49244141 38.95678711 260.97753906 C35.39927639 262.57610324 31.78604907 263.90915654 28.125 265.25 C23.55116532 267.89266004 22.13372007 270.73751714 20.66015625 275.6171875 C20.06166244 278.5616023 19.9290675 281.37432684 19.8125 284.375 C19.49818588 289.61133954 18.32268277 292.29711653 14.6953125 296.04296875 C10.54447964 299.23353431 5.21566153 298.47174588 0.25 298.5 C-0.64847656 298.520625 -1.54695312 298.54125 -2.47265625 298.5625 C-9.01283252 298.6011421 -12.32021712 297.70276898 -17.125 293.08984375 C-19.44349766 289.32746027 -19.618433 286.15527386 -19.875 281.8125 C-20.22697935 275.88578894 -20.7994597 271.90871794 -24.875 267.25 C-29.50450828 264.14524624 -34.26276334 262.20938829 -39.5 260.375 C-44.76540269 258.49021822 -49.74282086 256.39045492 -54.75 253.875 C-60.24934639 251.29866838 -64.84452223 249.87190113 -70.875 251.25 C-75.40707646 253.20291295 -78.87467888 256.21579224 -82.5 259.5 C-85.56587713 262.19131295 -87.67390469 263.25 -91.875 263.25 C-99.89141914 262.32502856 -105.19480193 256.39263133 -110.3671875 250.5703125 C-113.00999886 247.00155264 -113.79800883 243.63849688 -113.875 239.25 C-112.22514502 233.31052208 -108.83427274 229.68352382 -104.6171875 225.265625 C-101.52351062 221.68639346 -101.3588346 217.85902074 -101.3984375 213.3046875 C-102.08918418 208.87711452 -103.96691872 205.17853192 -105.95849609 201.21972656 C-108.33602726 196.49312345 -110.2370713 191.73577367 -112 186.75 C-115.01220925 177.6222761 -115.01220925 177.6222761 -121.765625 171.21484375 C-126.17887761 169.50828024 -130.29582693 169.13179 -135 168.9375 C-140.23633954 168.62318588 -142.92211653 167.44768277 -146.66796875 163.8203125 C-149.85853431 159.66947964 -149.09674588 154.34066153 -149.125 149.375 C-149.1559375 148.02728516 -149.1559375 148.02728516 -149.1875 146.65234375 C-149.2261421 140.11216748 -148.32776898 136.80478288 -143.71484375 132 C-139.95246027 129.68150234 -136.78027386 129.506567 -132.4375 129.25 C-126.45412649 128.89465555 -122.70175978 128.18991536 -117.875 124.25 C-114.112578 119.00541176 -112.38088201 113.15399716 -110.3125 107.078125 C-109.11431531 103.72802814 -107.62262785 100.59776463 -106.02587891 97.421875 C-102.84915564 91.08452945 -100.23926196 85.45252395 -101.875 78.25 C-103.82680648 73.72180897 -106.20289654 70.87257363 -109.5625 67.3125 C-112.46869087 64.0618253 -113.97801408 61.6531551 -114.1328125 57.25 C-113.1315279 49.48245883 -107.53482908 44.17257679 -101.875 39.25 C-97.18550042 35.78870269 -93.21199914 34.91007285 -87.4375 35.75 C-83.4183902 37.44225676 -81.48350492 39.44395495 -78.546875 42.5625 C-74.88693537 46.25664467 -71.37063007 47.41728142 -66.29296875 47.58203125 C-60.4477405 47.51458835 -56.15367714 45.5904673 -51 43 C-49.25223801 42.16198302 -47.5022386 41.32861591 -45.75 40.5 C-44.9146875 40.10425781 -44.079375 39.70851562 -43.21875 39.30078125 C-40.2122616 37.95287228 -37.15374308 36.94612292 -34 36 C-28.59956244 34.2861799 -24.63903672 32.65207082 -21.890625 27.3515625 C-20.19460295 22.91950488 -19.75170883 18.8493079 -19.5625 14.125 C-19.24818588 8.88866046 -18.07268277 6.20288347 -14.4453125 2.45703125 C-10.29447964 -0.73353431 -4.96566153 0.02825412 0 0 Z M-2.125 52.75 C-4.05202205 54.1754644 -4.05202205 54.1754644 -4.875 56.625 C-5.12840312 59.37893616 -5.12840312 59.37893616 -3.1875 61.625 C-1.05496912 63.48164007 -1.05496912 63.48164007 1.25 63.125 C3.30833091 62.29449779 3.30833091 62.29449779 5.125 60.25 C5.70850505 57.79290625 5.70850505 57.79290625 5.125 55.25 C2.57091126 53.05064581 1.24796839 52.00045147 -2.125 52.75 Z M19.9375 56.9375 C17.92670476 59.09457941 17.92670476 59.09457941 17.8125 61.75 C19.98355359 65.88534017 23.90084736 66.66594276 28.125 68.25 C52.52134381 77.80076646 68.58411893 92.12040821 79.26757812 116.11376953 C88.56432774 139.27622941 86.69076069 164.63011004 77.125 187.25 C67.35089924 208.62194043 49.86190349 221.99238709 28.375 230.125 C27.58802734 230.41133301 26.80105469 230.69766602 25.99023438 230.99267578 C21.68958946 232.50353647 21.68958946 232.50353647 18.125 235.25 C17.62485047 237.70741537 17.62485047 237.70741537 18.125 240.25 C19.46655783 242.40479867 19.46655783 242.40479867 22.125 243.25 C42.48834032 241.00790218 62.28205705 226.53516344 75.125 211.25 C92.25315747 189.45216591 98.30175651 163.27218414 95.92285156 135.92626953 C92.8308755 110.71791371 79.24302968 88.42768785 59.828125 72.34765625 C52.49125419 66.91886426 28.25866773 50.51831347 19.9375 56.9375 Z M-70.125 82.1875 C-81.91158791 94.32731373 -89.87451363 109.84800589 -93.875 126.25 C-94.09929687 127.14074219 -94.32359375 128.03148437 -94.5546875 128.94921875 C-99.6872137 153.59237539 -94.88862594 180.18389891 -81.71484375 201.515625 C-68.18863039 221.61827755 -48.44852456 237.51314039 -24.46484375 243.03515625 C-21.82993351 243.47162428 -21.82993351 243.47162428 -19.5 242.125 C-17.67780791 240.33439327 -17.67780791 240.33439327 -17.375 237.75 C-17.63717876 235.19132414 -17.63717876 235.19132414 -19.43359375 233.76953125 C-22.59581448 231.80136507 -25.9390995 230.65015842 -29.4375 229.4375 C-52.14839345 221.19253642 -67.84697072 206.27236139 -78.15234375 184.55859375 C-87.78365356 161.91592956 -86.92023428 137.19424076 -78.24609375 114.4921875 C-69.95231007 94.88010644 -55.20373998 79.56977481 -35.52148438 71.25585938 C-32.27793352 69.95792703 -29.02333418 68.70185091 -25.74023438 67.50732422 C-21.43958946 65.99646353 -21.43958946 65.99646353 -17.875 63.25 C-17.37485047 60.79258463 -17.37485047 60.79258463 -17.875 58.25 C-30.12493405 46.40839708 -61.86986359 74.25512081 -70.125 82.1875 Z M47.17944336 115.97094727 C46.60460205 116.51678467 46.02976074 117.06262207 45.4375 117.625 C44.19628915 118.74717495 42.9540918 119.86825966 41.7109375 120.98828125 C41.10217773 121.54596191 40.49341797 122.10364258 39.86621094 122.67822266 C37.50194957 124.8124227 35.04319257 126.81557886 32.5625 128.8125 C28.54142072 132.07778171 24.57150481 135.39552873 20.625 138.75 C16.67849519 142.10447127 12.70857928 145.42221829 8.6875 148.6875 C5.01866884 151.67076855 1.40720085 154.70959489 -2.17260742 157.79833984 C-5.06413025 160.29312334 -7.96873348 162.77242547 -10.875 165.25 C-11.7825 166.02730469 -12.69 166.80460937 -13.625 167.60546875 C-14.40875 168.25128906 -15.1925 168.89710938 -16 169.5625 C-16.66257813 170.11550781 -17.32515625 170.66851562 -18.0078125 171.23828125 C-19.875 172.25 -19.875 172.25 -21.81336975 171.97424316 C-25.29398088 170.75151721 -27.50504442 167.89828546 -29.99609375 165.28125 C-31.19065394 164.05849481 -32.38531862 162.83584169 -33.58007812 161.61328125 C-35.45054461 159.68062157 -37.31756068 157.74473773 -39.18188477 155.80615234 C-40.98644479 153.93519746 -42.80307921 152.07661957 -44.62109375 150.21875 C-45.17333115 149.6364563 -45.72556854 149.0541626 -46.29454041 148.45422363 C-49.30525377 145.38649495 -51.45998996 143.3625214 -55.875 143.25 C-57.81154948 144.26970318 -57.81154948 144.26970318 -58.875 146.25 C-59.20566991 149.17472414 -59.2369654 150.70587298 -57.5866394 153.18673706 C-56.98296539 153.80042145 -56.37929138 154.41410583 -55.75732422 155.04638672 C-54.73528397 156.10175125 -54.73528397 156.10175125 -53.69259644 157.17843628 C-52.94583649 157.92134918 -52.19907654 158.66426208 -51.4296875 159.4296875 C-50.66705597 160.20184601 -49.90442444 160.97400452 -49.11868286 161.76956177 C-47.5024624 163.39794744 -45.87970327 165.01986539 -44.25097656 166.63574219 C-41.75915992 169.115883 -39.30099344 171.62628215 -36.84375 174.140625 C-35.27017273 175.718087 -33.69471264 177.29367353 -32.1171875 178.8671875 C-31.01526566 179.99977493 -31.01526566 179.99977493 -29.89108276 181.15524292 C-25.90298459 185.26787805 -25.90298459 185.26787805 -20.5090332 186.32080078 C-17.40556318 185.05916212 -15.58202458 183.5916743 -13.1875 181.25 C-9.7367497 177.98466315 -6.25913234 174.86032699 -2.5625 171.875 C1.54473353 168.54982081 5.59988279 165.17342443 9.625 161.75 C13.57138883 158.39539595 17.54142493 155.07777828 21.5625 151.8125 C26.42104957 147.85918237 31.1736409 143.79345748 35.91796875 139.70483398 C39.59348924 136.5439066 43.3042921 133.43724348 47.0625 130.375 C47.93261719 129.65828125 48.80273438 128.9415625 49.69921875 128.203125 C51.23438816 126.96707877 52.79724884 125.76403698 54.39453125 124.609375 C56.62045722 123.02541148 56.62045722 123.02541148 59.125 120.25 C59.2393337 116.44998135 59.2393337 116.44998135 58.125 113.25 C53.11570337 111.62823074 51.05234784 112.49785545 47.17944336 115.97094727 Z M-4.875 238.25 C-5.54166667 240.75 -5.54166667 240.75 -4.875 243.25 C-3.29804368 245.3285608 -3.29804368 245.3285608 -0.875 246.25 C1.88191443 245.91390749 1.88191443 245.91390749 4.125 244.25 C5.37653259 241.90904469 5.37653259 241.90904469 5.125 239.25 C3.41618236 236.87419982 3.41618236 236.87419982 1.125 235.25 C-1.7573175 235.25 -2.83075462 236.27389614 -4.875 238.25 Z " fill="#B000FF" transform="translate(255.875,106.75)"/>
</svg>
