<?xml version="1.0" encoding="UTF-8"?>
<svg version="1.1" xmlns="http://www.w3.org/2000/svg" width="512" height="512">
<path d="M0 0 C0 11.22 0 22.44 0 34 C7.58193202 34.11036665 15.14888841 34.18610634 22.72949219 34.17700195 C25.30156146 34.18393345 27.87366038 34.21024209 30.4453125 34.25708008 C49.17490757 34.98582085 49.17490757 34.98582085 64.89628601 26.20593262 C66.27819051 24.81775246 67.63999735 23.40964427 69 22 C71.54295659 20.17770954 74.17967334 18.65826529 76.9375 17.1875 C77.92943359 16.646698 77.92943359 16.646698 78.94140625 16.0949707 C95.47187087 7.28566298 113.4028705 1.88369738 132.21386719 1.82299805 C133.11095901 1.81642685 134.00805084 1.80985565 134.93232727 1.80308533 C137.88717759 1.78345775 140.84197712 1.77170804 143.796875 1.76171875 C144.81483406 1.75764322 145.83279312 1.7535677 146.88159943 1.74936867 C152.27864881 1.72854428 157.67567311 1.71423161 163.07275391 1.70483398 C168.59628797 1.69382791 174.11941271 1.6594849 179.64280319 1.61966228 C183.93274586 1.59327027 188.22259472 1.58512192 192.51261139 1.58155251 C194.54559314 1.576738 196.5785722 1.56527471 198.61147308 1.54651451 C234.81189444 1.23343307 265.06293147 13.70335292 291 39 C309.14867869 57.09060291 319.52203629 81.01108363 324 106 C324.13277344 106.73992187 324.26554687 107.47984375 324.40234375 108.2421875 C328.31994802 135.82641486 319.83041066 161.94988206 312 188 C312.94057251 188.43783813 312.94057251 188.43783813 313.90014648 188.88452148 C319.00653982 191.59712597 321.90811698 198.1986931 323.875 203.4375 C326.31315356 211.79688364 325.46540771 220.0530124 322 228 C316.70845111 237.01166811 309.1616685 243.32101467 299 246 C295.90595293 246.28377355 293.11545846 246.20099732 290 246 C289.79246094 246.969375 289.58492188 247.93875 289.37109375 248.9375 C282.15477968 280.98891844 262.62903119 308.09612904 234.9140625 325.6953125 C228.88429456 329.35722636 222.47525861 332.22620128 216 335 C215.82564694 338.47948066 216.18246565 340.99446834 218 344 C222.21595454 346.0492741 226.59340097 347.16188935 231.09619141 348.41845703 C238.63342829 350.72080356 244.82597176 355.41775245 250.8125 360.375 C251.3398877 360.80893066 251.86727539 361.24286133 252.41064453 361.68994141 C256.69330888 365.38301256 256.69330888 365.38301256 257.99690247 368.00552368 C259.38973707 370.67783629 260.5819891 372.16964723 263 374 C268.79286731 375.2238491 274.531266 375.07220894 280.4296875 375 C282.14748977 375.00752243 283.86527994 375.01855983 285.58303833 375.03295898 C290.09127224 375.06134542 294.59808299 375.0421348 299.10626221 375.01287842 C304.52206494 374.98768753 309.93778192 375.0218426 315.35354614 375.04600525 C323.56985859 375.07604051 331.78267446 375.03087769 340 375 C340 363.78 340 352.56 340 341 C343.86553549 342.93276774 346.49037909 345.1339874 349.5625 348.0625 C353.41569892 351.67048999 357.31356011 355.13592936 361.4375 358.4375 C366.21621628 362.28110057 370.69157687 366.36960164 375.16381836 370.55834961 C378.51099327 373.67553945 381.93005023 376.63573798 385.5 379.5 C389.66666457 382.84302158 393.60417858 386.35116931 397.5 390 C401.43790884 393.68766221 405.42186336 397.23614624 409.625 400.625 C413.55400515 403.79597912 417.41145069 407.02435217 421.1875 410.375 C422.10917969 411.18710937 423.03085937 411.99921875 423.98046875 412.8359375 C426 415 426 415 426 418 C424.05078125 419.83984375 424.05078125 419.83984375 421.3125 421.9375 C416.85334592 425.4578848 412.63689037 429.10765488 408.5 433 C403.76246981 437.43947596 398.87869865 441.59150922 393.8125 445.65625 C390.60150195 448.33208171 387.54970863 451.14358276 384.5 454 C379.76133536 458.43832674 374.87880674 462.5914225 369.8125 466.65625 C366.60146867 469.33210945 363.55009388 472.14395412 360.5 475 C345.25018551 489.24993816 345.25018551 489.24993816 340 491 C340 479.78 340 468.56 340 457 C318.55 457 297.1 457 275 457 C274.67 459.64 274.34 462.28 274 465 C269.36022069 477.95824078 260.26517252 487.89977567 248 494 C235.38685428 499.728612 221.52987066 498.3967704 208 498 C207.814375 498.5775 207.62875 499.155 207.4375 499.75 C205.27707197 503.13153952 202.71835872 504.73390598 199 506 C194.60872173 506.56288233 190.262049 506.53702464 185.83984375 506.49609375 C184.57660782 506.49754898 183.31337189 506.49900421 182.01185608 506.50050354 C179.34775688 506.49884718 176.68509928 506.48942136 174.02124023 506.46655273 C170.61951196 506.43813965 167.21868094 506.44091996 163.81688595 506.45364285 C160.55364804 506.46229695 157.29055368 506.44714484 154.02734375 506.43359375 C152.20371559 506.43799721 152.20371559 506.43799721 150.34324646 506.44248962 C142.66775048 506.35695014 137.86126296 505.79767934 132.1875 500.25 C129.76174857 496.64602645 129.46859254 494.2526033 129 490 C128.39639648 490.01571045 127.79279297 490.0314209 127.17089844 490.04760742 C107.79293621 490.48532921 91.88437214 489.17703584 77.0703125 475.265625 C71.18899491 468.82946613 67.07638449 461.46525983 65 453 C64.82944092 452.31574951 64.65888184 451.63149902 64.4831543 450.92651367 C63.83122981 446.97774214 63.79768472 443.10195685 63.76171875 439.10546875 C63.753647 438.24045242 63.74557526 437.3754361 63.73725891 436.48420715 C63.72345117 434.65103129 63.71271427 432.81783007 63.70483398 430.98461914 C63.69339955 429.13948852 63.67308599 427.29438868 63.64331055 425.44946289 C63.40128457 410.42357108 64.45483329 396.20669429 71.6875 382.6875 C72.02998779 382.02999756 72.37247559 381.37249512 72.7253418 380.69506836 C82.3946113 362.78034623 98.70855434 350.85584308 118 345 C119.32 344.67 120.64 344.34 122 344 C122.66 341.03 123.32 338.06 124 335 C122.45892578 334.25556641 122.45892578 334.25556641 120.88671875 333.49609375 C90.11523408 318.48479556 65.6350737 295.597063 54.17431641 262.62451172 C50 249.72516828 50 249.72516828 50 246 C48.72125 246.0825 47.4425 246.165 46.125 246.25 C37.69063596 246.21027772 30.87147698 242.71705714 24.8203125 236.984375 C17.58477371 229.09670611 14.42499467 221.32521691 14.6875 210.64453125 C15.64311907 202.5576049 19.20888168 194.77567533 25 189 C25.99 188.67 26.98 188.34 28 188 C27.71278076 187.04448242 27.42556152 186.08896484 27.12963867 185.10449219 C20.31075943 162.31886788 14.33391766 140.97896414 15 117 C10.05 116.67 5.1 116.34 0 116 C0 127.22 0 138.44 0 150 C-4.080918 147.959541 -7.16337571 145.46942979 -10.5625 142.5 C-11.18165283 141.96463623 -11.80080566 141.42927246 -12.4387207 140.87768555 C-17.15503283 136.78285117 -21.76285934 132.57979778 -26.36328125 128.35546875 C-28.9725941 126.02448261 -31.6481282 123.81672813 -34.375 121.625 C-39.1714071 117.75781137 -43.6704146 113.65019284 -48.16357422 109.44189453 C-51.51081785 106.32460664 -54.92995906 103.36433518 -58.5 100.5 C-63.31301687 96.6355339 -67.84803831 92.539372 -72.34643555 88.31835938 C-76.01011362 84.88348805 -79.76750759 81.61912802 -83.70703125 78.5 C-85 77 -85 77 -85 73 C-83.27631854 71.089812 -81.62336076 69.47992454 -79.6875 67.8125 C-79.14279053 67.32837646 -78.59808105 66.84425293 -78.03686523 66.34545898 C-73.74506862 62.56099339 -69.305909 58.96475271 -64.84765625 55.37890625 C-61.04561367 52.2027143 -57.45096248 48.82729178 -53.83618164 45.44165039 C-49.64670474 41.5400333 -45.27827064 37.92675203 -40.8125 34.34375 C-37.60150066 31.66791722 -34.54972364 28.85640293 -31.5 26 C-26.75110388 21.55248821 -21.86437219 17.37899775 -16.78125 13.3125 C-13.00802385 10.17521084 -9.43116108 6.84100967 -5.88256836 3.45288086 C-2.2119884 0 -2.2119884 0 0 0 Z M56 57 C53.4248192 60.20553815 51.16940013 63.50962851 49 67 C48.41734375 67.89976563 47.8346875 68.79953125 47.234375 69.7265625 C33.49029674 91.8963583 28.68181558 119.45000369 34 145 C36.92429422 157.10383154 40.47648221 169.05983684 44 181 C45.32 180.67 46.64 180.34 48 180 C48.02578125 178.75605469 48.0515625 177.51210937 48.078125 176.23046875 C48.3579802 166.92130548 48.64608775 158.44097181 53 150 C53.39960938 149.21496094 53.79921875 148.42992187 54.2109375 147.62109375 C60.92545449 136.15207774 73.3588889 131.08333868 85.0625 126.125 C87.03844543 125.27627176 89.01260175 124.4237015 90.98472595 123.56613159 C92.7483148 122.80091641 94.51672799 122.04684792 96.28540039 121.29345703 C99.07118541 120.15160534 99.07118541 120.15160534 101 118 C100.26910156 117.45214844 99.53820312 116.90429688 98.78515625 116.33984375 C95.93396713 113.94452498 93.75637831 111.47017176 91.4375 108.5625 C90.32181641 107.17224609 90.32181641 107.17224609 89.18359375 105.75390625 C88.46300781 104.84511719 87.74242187 103.93632813 87 103 C85.84177734 101.71416016 85.84177734 101.71416016 84.66015625 100.40234375 C83 98 83 98 82.90234375 95.921875 C84.53765983 93.05861696 86.75584912 91.92753846 89.5625 90.25 C90.57441406 89.63640625 91.58632812 89.0228125 92.62890625 88.390625 C93.80259766 87.70226562 93.80259766 87.70226562 95 87 C98.01490455 89.89972842 100.60755392 92.96045127 103.1875 96.25 C119.40621132 116.09623508 143.31686452 128.46831197 168.7578125 131.09228516 C169.58360306 131.17769876 170.40939362 131.26311237 171.26020813 131.35111427 C179.40040154 132.13226129 187.50103042 132.28126978 195.67352295 132.27439499 C198.27419523 132.27340448 200.87448171 132.28665431 203.47509766 132.30337524 C210.85234871 132.34894439 218.22954577 132.37427371 225.60693359 132.38085938 C230.16129168 132.38589876 234.71522581 132.41024241 239.2694397 132.44618607 C240.98521368 132.45589996 242.70104646 132.45836264 244.4168396 132.45301437 C258.97907012 132.40966532 270.15355681 134.42547617 280.90625 144.84765625 C288.46468525 152.90251415 290.97947611 161.43060585 291.5625 172.25 C291.60568359 172.99507812 291.64886719 173.74015625 291.69335938 174.5078125 C291.79896725 176.338349 291.89994201 178.16915176 292 180 C293.32 180.33 294.64 180.66 296 181 C297.25013215 176.62722676 298.49501941 172.25300452 299.73535156 167.87744141 C300.15681197 166.39332168 300.5796307 164.90958692 301.00390625 163.42626953 C310.15054592 131.43460294 310.31050651 102.93742402 294.33984375 72.875 C280.00816973 47.2803931 257.24936428 30.18951193 229.41796875 21.7890625 C217.57399884 19.05479745 206.23495448 18.68889687 194.140625 18.69921875 C192.22312326 18.69532147 190.30562237 18.69098472 188.38812256 18.68623352 C184.38404534 18.67880879 180.38005634 18.67903476 176.37597656 18.68432617 C171.28840305 18.69010889 166.20119501 18.67320025 161.11368179 18.6499815 C157.15669708 18.63512418 153.1997979 18.63438874 149.24279022 18.63749123 C147.36923246 18.63698379 145.49566916 18.63185702 143.62213898 18.62167931 C108.72454688 18.45536108 79.49883417 30.9747816 56 57 Z M-37.14794922 54.54248047 C-41.46399484 58.56060208 -45.94597404 62.32443594 -50.54296875 66.01953125 C-53.75753947 68.61060812 -56.88012108 71.29610494 -60 74 C-58.49542094 77.76565039 -56.36583433 79.54295677 -53.1875 82 C-48.77861582 85.50405436 -44.60340153 89.14427025 -40.5 93 C-34.8668462 98.27471076 -29.0259129 103.17533117 -23 108 C-20.99219137 109.65760945 -18.99575263 111.32788293 -17 113 C-17 108.38 -17 103.76 -17 99 C-5.45 99 6.1 99 18 99 C18.61875 96.628125 19.2375 94.25625 19.875 91.8125 C21.91744962 84.55853045 24.69831053 77.79841134 27.9375 71 C28.34403809 70.14124268 28.75057617 69.28248535 29.16943359 68.39770508 C31.70196881 63.21578698 34.56744906 58.44695724 37.86547852 53.71484375 C39.09196082 52.20369477 39.09196082 52.20369477 39 51 C20.52 51 2.04 51 -17 51 C-17 46.71 -17 42.42 -17 38 C-22.63242873 38 -32.87134214 50.53957625 -37.14794922 54.54248047 Z M109.9140625 133.1953125 C108.40295898 133.89394409 108.40295898 133.89394409 106.86132812 134.60668945 C105.79333984 135.10773193 104.72535156 135.60877441 103.625 136.125 C101.44016218 137.14205173 99.25526683 138.15897987 97.0703125 139.17578125 C96.02004883 139.66643066 94.96978516 140.15708008 93.88769531 140.66259766 C91.53620518 141.75166284 89.17861724 142.81664866 86.8046875 143.85546875 C77.60593337 147.91118422 70.34329719 151.61847807 66 161 C64.89014841 164.43969405 64.85462707 167.6852509 64.82299805 171.28710938 C64.81016281 172.5636438 64.79732758 173.84017822 64.78410339 175.15539551 C64.7759239 176.55150965 64.76848252 177.94762828 64.76171875 179.34375 C64.75764322 180.05430038 64.7535677 180.76485077 64.74936867 181.49693298 C64.72850509 185.27415675 64.71421712 189.0513444 64.70483398 192.82861328 C64.6960567 195.9144313 64.6753833 198.99978679 64.64331055 202.08544922 C64.29929523 235.91838983 68.39759557 265.86735456 92 292 C92.75925781 292.84175781 93.51851562 293.68351563 94.30078125 294.55078125 C110.68924058 311.79755596 134.91358918 324.74155023 158.96582031 326.17700195 C193.83741444 326.86360143 220.37212879 318.77086657 246.125 294.25 C266.42871487 273.36801477 275.32066337 245.74973206 275.30078125 217.109375 C275.30468103 215.71079382 275.30901827 214.31221381 275.31376648 212.91363525 C275.32116395 210.00586067 275.32098276 207.09820769 275.31567383 204.19042969 C275.30985367 200.4830928 275.32690237 196.77625139 275.3500185 193.06899643 C275.36480769 190.18976993 275.36562112 187.31066187 275.36250877 184.43140411 C275.36301826 183.06479147 275.3681852 181.69817153 275.37832069 180.33159637 C275.43556856 171.54476615 275.06796907 164.88602482 270.3125 157.3125 C264.08135651 151.08135651 257.97979494 148.85450899 249.28173828 148.84228516 C248.49573242 148.83720444 247.70972656 148.83212372 246.89990234 148.82688904 C245.18935386 148.81618133 243.47879132 148.80756272 241.76822281 148.80076981 C239.0401421 148.78893158 236.31221624 148.76945599 233.584198 148.74765015 C225.82555508 148.68627284 218.06692112 148.63245631 210.30810547 148.59863281 C205.55822535 148.57737353 200.80861709 148.54181116 196.05889511 148.49787521 C194.26766091 148.48393513 192.47637847 148.47504397 190.68509293 148.47182083 C174.03007234 148.43874271 156.78938396 147.48486994 141 141.75 C140.13971191 141.45279053 139.27942383 141.15558105 138.39306641 140.84936523 C132.03121527 138.5738672 126.19347487 135.74544759 120.3984375 132.28515625 C116.27111168 130.0736087 113.90732219 131.33453436 109.9140625 133.1953125 Z M292 197 C292 207.56 292 218.12 292 229 C298.30391439 227.9493476 301.84923129 226.74408422 305.8125 221.6875 C307.9274819 216.90096202 308.52991192 212.87837709 306.9375 207.875 C305.16479986 203.73602592 302.793964 201.48066877 299 199 C296.69 198.34 294.38 197.68 292 197 Z M36.125 202.625 C33.55929397 206.69994488 32.19383444 210.17099428 32 215 C33.49014209 220.25932503 35.81605818 223.51338181 40 227 C42.98951623 228.49475812 44.6469189 229 48 229 C48 218.44 48 207.88 48 197 C43.42288995 197 39.32530037 199.70298661 36.125 202.625 Z M142 340 C141.34 342.64 140.68 345.28 140 348 C146.44046739 352.39396374 152.4115896 356.06022229 160 358 C160.804375 358.226875 161.60875 358.45375 162.4375 358.6875 C175.22044975 360.24639631 185.63582423 357.23059218 196.69921875 350.81640625 C199.06063426 349.21615958 199.06063426 349.21615958 199.95703125 347.08984375 C200.01322302 344.35688045 199.15665654 342.44939032 198 340 C196.89205078 340.19916016 196.89205078 340.19916016 195.76171875 340.40234375 C177.75271496 343.53732916 159.94324303 343.97544905 142 340 Z M97.25 376.25 C83.99172053 390.46211252 80.62950281 406.97779611 80.68432617 425.73144531 C80.68749431 427.9959294 80.66392365 430.25911317 80.63867188 432.5234375 C80.58256659 444.99694287 81.93809051 454.81491892 91 464 C102.59731955 473.85449417 114.49458281 473.30645248 129 473 C129 462.44 129 451.88 129 441 C114.07793895 440.66126283 114.07793895 440.66126283 102 446 C98.7 442.7 95.4 439.4 92 436 C94.02450979 431.95098043 94.46867712 431.35922564 98.1875 429.375 C98.92355469 428.97023438 99.65960938 428.56546875 100.41796875 428.1484375 C106.88208769 425.27332257 112.97248228 424.62923639 119.9375 424.375 C120.81212891 424.33632813 121.68675781 424.29765625 122.58789062 424.2578125 C124.72494631 424.1643893 126.86244294 424.08114602 129 424 C129.0093457 423.40050537 129.01869141 422.80101074 129.02832031 422.18334961 C129.08242276 419.43393733 129.16598797 416.68615448 129.25 413.9375 C129.26417969 412.99455078 129.27835938 412.05160156 129.29296875 411.08007812 C129.50844004 404.89605221 130.37079448 401.05664814 134 396 C138.68839807 392.39353995 143.44864199 391.87945407 149.22998047 391.85473633 C150.24808807 391.84835648 151.26619568 391.84197662 152.31515503 391.83540344 C153.40482574 391.83429062 154.49449646 391.8331778 155.6171875 391.83203125 C156.74770538 391.82870285 157.87822327 391.82537445 159.04299927 391.82194519 C161.4318196 391.8168881 163.82064698 391.81453649 166.20947266 391.81469727 C169.85461119 391.81251222 173.49944629 391.79434723 177.14453125 391.77539062 C179.46874897 391.77245613 181.79296812 391.77047171 184.1171875 391.76953125 C185.20280975 391.76234573 186.28843201 391.75516022 187.4069519 391.74775696 C200.3790059 391.7867161 200.3790059 391.7867161 205.8125 396.375 C209.56582771 400.87899326 210.25917331 403.84858573 210.4140625 409.734375 C210.45273437 411.02988281 210.49140625 412.32539063 210.53125 413.66015625 C210.56270267 415.02343284 210.59395007 416.38671418 210.625 417.75 C210.66320469 419.12893028 210.70225787 420.50783734 210.7421875 421.88671875 C210.83648004 425.25767718 210.9220822 428.62862978 211 432 C224.09853981 432.76946091 224.09853981 432.76946091 236 428 C239 428 239 428 241.26171875 429.96875 C242.06222656 430.8040625 242.86273438 431.639375 243.6875 432.5 C244.49574219 433.3353125 245.30398438 434.170625 246.13671875 435.03125 C246.75160156 435.6809375 247.36648438 436.330625 248 437 C246.05665524 441.25938577 244.19757371 442.72334985 240 445 C235.71 446.32 231.42 447.64 227 449 C227 459.56 227 470.12 227 481 C238.07588636 478.98620248 245.76292245 476.81100298 252.75390625 467.859375 C257.99806685 460.03423253 259.1569765 453.16194462 259.23828125 443.88671875 C259.25038887 442.55590019 259.25038887 442.55590019 259.26274109 441.19819641 C259.27655036 439.3179416 259.28728659 437.43766206 259.29516602 435.55737305 C259.30660352 433.66374185 259.32692213 431.77014074 259.35668945 429.87670898 C259.68648424 408.86012135 256.76860635 391.30102486 241.6953125 375.5078125 C234.21982522 368.55235912 224.91583814 363.52498796 215 361 C210.50405409 361.24859101 207.17875946 363.50357571 203.4375 365.8125 C188.70602717 374.57951333 171.7552196 377.62216542 154.875 374 C146.70063868 371.61867345 137.48037378 367.53381594 130.78125 362.25 C122.15650192 356.19754521 103.5743388 370.37539196 97.25 376.25 Z M357 379 C357 383.29 357 387.58 357 392 C328.95 392 300.9 392 272 392 C272.99 397.28 273.98 402.56 275 408 C275.33 418.56 275.66 429.12 276 440 C302.73 440 329.46 440 357 440 C357 444.62 357 449.24 357 454 C362.33507017 450.26545088 367.08378483 446.14495852 371.8125 441.6875 C376.84082653 436.9480576 381.98246486 432.46649545 387.37890625 428.14453125 C391.72650189 424.58740754 395.86194675 420.79695559 400 417 C396.12048384 412.22203255 392.05271057 408.10367284 387.3125 404.1875 C386.07172465 403.14464577 384.83215537 402.10035502 383.59375 401.0546875 C382.9853125 400.54131836 382.376875 400.02794922 381.75 399.49902344 C379.21637267 397.32875673 376.76447276 395.07423349 374.3125 392.8125 C366.25145026 384.26119311 366.25145026 384.26119311 357 379 Z M146 409 C146 435.4 146 461.8 146 489 C154.25 489 162.5 489 171 489 C169.88625 487.22625 168.7725 485.4525 167.625 483.625 C162.448855 474.68724355 160.64248275 466.19279517 163 456 C166.49411527 446.53774825 171.07023655 440.60485858 179.8125 435.75 C184 434 184 434 194 432 C194 424.41 194 416.82 194 409 C178.16 409 162.32 409 146 409 Z M181.5625 455.625 C178.44792638 460.3591519 178.38982449 464.41388614 179 470 C181.35672092 474.89472807 184.32812344 477.31615602 189 480 C191.76565382 480.92188461 193.38283702 481.11785222 196.23046875 481.09765625 C196.95387451 481.09515869 197.67728027 481.09266113 198.42260742 481.09008789 C199.33502197 481.08098389 200.24743652 481.07187988 201.1875 481.0625 C204.095625 481.041875 207.00375 481.02125 210 481 C210 470.44 210 459.88 210 449 C207.195 448.9175 204.39 448.835 201.5 448.75 C200.63310547 448.71358398 199.76621094 448.67716797 198.87304688 448.63964844 C191.7956001 448.54019202 186.43092496 450.38208081 181.5625 455.625 Z " fill="#586CEA" transform="translate(86,3)"/>
<path d="M0 0 C5.94 0 11.88 0 18 0 C18.495 8.415 18.495 8.415 19 17 C20.52625 17.5775 22.0525 18.155 23.625 18.75 C34.34388608 23.0857292 42.01606216 29.95333342 46.9921875 40.41015625 C49.39680457 46.58946291 50.27951664 51.88968632 50.125 58.4375 C50.08375 60.933125 50.0425 63.42875 50 66 C44.39 66 38.78 66 33 66 C32.1875 58.375 32.1875 58.375 31.95385742 56.00927734 C31.11359922 48.77479196 28.57957935 43.81872762 23 39 C16.92316447 34.75902344 11.21660949 33.94596014 3.9453125 33.68359375 C2.83671875 33.64169922 1.728125 33.59980469 0.5859375 33.55664062 C-0.55617187 33.51732422 -1.69828125 33.47800781 -2.875 33.4375 C-4.0403125 33.39431641 -5.205625 33.35113281 -6.40625 33.30664062 C-9.27072625 33.20098371 -12.13528321 33.09888201 -15 33 C-14.14237696 43.54748338 -13.46440318 51.53559682 -5.6875 59.3125 C0.24619478 63.03830835 5.4861223 64.13889019 12.375 64.9375 C23.99131251 66.36649082 33.39680135 70.23264164 41.01171875 79.4296875 C47.34430959 88.16521113 50.14088946 95.63674581 50.09765625 106.48828125 C50.09515869 107.77516846 50.09266113 109.06205566 50.09008789 110.38793945 C50.08098389 112.01304443 50.07187988 113.63814941 50.0625 115.3125 C50.041875 120.489375 50.02125 125.66625 50 131 C39.44 131 28.88 131 18 131 C18 136.28 18 141.56 18 147 C12.06 147 6.12 147 0 147 C0 141.39 0 135.78 0 130 C-1.423125 129.67 -2.84625 129.34 -4.3125 129 C-14.8999624 125.77577278 -22.81264287 118.66991029 -28 109 C-32.50005938 99.59809022 -32.35193505 91.20611647 -32 81 C-26.39 81 -20.78 81 -15 81 C-14.9175 82.959375 -14.835 84.91875 -14.75 86.9375 C-14.12660632 95.0064971 -11.93853168 102.22642753 -6 108 C0.03343975 111.67740646 5.24515414 113.08356641 12.296875 113.31640625 C13.50214844 113.35830078 14.70742188 113.40019531 15.94921875 113.44335938 C17.20347656 113.48267578 18.45773437 113.52199219 19.75 113.5625 C21.01972656 113.60568359 22.28945313 113.64886719 23.59765625 113.69335938 C26.73166365 113.79939722 29.86574933 113.90146058 33 114 C32.1230121 100.35693292 32.1230121 100.35693292 25 89 C18.98541302 84.00917251 12.42876625 82.93570886 4.8125 82.25 C-6.04895166 80.86548689 -15.6740707 76.27649731 -23 68 C-31.55207474 56.44788082 -32.42892176 45.33758123 -32.1875 31.375 C-32.0946875 23.764375 -32.0946875 23.764375 -32 16 C-21.44 16 -10.88 16 0 16 C0 10.72 0 5.44 0 0 Z " fill="#5073E7" transform="translate(247,167)"/>
<path d="M0 0 C5.94 0 11.88 0 18 0 C18 2.866875 18 5.73375 18 8.6875 C18.01907223 14.7573895 18.01907223 14.7573895 20.63671875 19.95703125 C22.67923361 21.03405254 22.67923361 21.03405254 24.859375 21.87109375 C29.4421846 24.28794042 31.99838815 30.12036592 33.65625 34.88671875 C34.4621431 39.84112976 34.04994837 45.00516337 34 50 C27.565 50.495 27.565 50.495 21 51 C22.423125 52.19625 23.84625 53.3925 25.3125 54.625 C30.45521165 59.2025785 32.8985793 63.20295522 34 70 C34.07970902 72.20322602 34.10772312 74.40863682 34.09765625 76.61328125 C34.09443359 77.86044922 34.09121094 79.10761719 34.08789062 80.39257812 C34.07532227 82.33293945 34.07532227 82.33293945 34.0625 84.3125 C34.05798828 85.62541016 34.05347656 86.93832031 34.04882812 88.29101562 C34.03705959 91.52736328 34.01912463 94.76368745 34 98 C28.72 98 23.44 98 18 98 C18 103.61 18 109.22 18 115 C12.06 115 6.12 115 0 115 C-0.125 106.25 -0.125 106.25 -0.11767578 103.51269531 C-0.19930659 101.21573781 -0.36381305 99.21277732 -1 97 C-3.75909969 94.53194606 -3.75909969 94.53194606 -7 93 C-12.63887037 87.84024934 -15.77936546 82.26560102 -16.17578125 74.6015625 C-16.18619678 71.4005223 -16.09998423 68.19949527 -16 65 C-11.38 64.67 -6.76 64.34 -2 64 C-2.886875 63.46375 -3.77375 62.9275 -4.6875 62.375 C-10.64443057 58.35688173 -14.4072022 53.00908825 -16 46 C-16.35663121 40.82683986 -16.28420218 35.6793445 -16.1875 30.5 C-16.17242613 29.09116014 -16.1587425 27.68230468 -16.14648438 26.2734375 C-16.11129965 22.84879098 -16.05749832 19.42434456 -16 16 C-10.72 16 -5.44 16 0 16 C0 10.72 0 5.44 0 0 Z M1 33 C0.52810928 40.50556308 0.52810928 40.50556308 4 47 C7.16240582 49.10827055 8.50657469 49.33817465 12.1875 49.625 C13.08855469 49.69976562 13.98960937 49.77453125 14.91796875 49.8515625 C15.60503906 49.90054688 16.29210937 49.94953125 17 50 C17.34209795 44.29836742 17.43338466 39.85409556 14 35 C9.88476188 32.4132789 5.70715899 32.84043529 1 33 Z M1 65 C0.42344874 73.03847272 0.42344874 73.03847272 4 80 C6.64458379 81.32229189 8.67761301 81.09677194 11.625 81.0625 C12.62789063 81.05347656 13.63078125 81.04445313 14.6640625 81.03515625 C15.43492187 81.02355469 16.20578125 81.01195313 17 81 C17.36127957 74.01035273 17.36127957 74.01035273 14 68 C10.83759418 65.89172945 9.49342531 65.66182535 5.8125 65.375 C4.91144531 65.30023438 4.01039063 65.22546875 3.08203125 65.1484375 C2.39496094 65.09945312 1.70789063 65.05046875 1 65 Z " fill="#2599DB" transform="translate(442,37)"/>
<path d="M0 0 C5.61 0 11.22 0 17 0 C17 5.94 17 11.88 17 18 C19.475 18.99 19.475 18.99 22 20 C27.76687922 23.65675294 31.45523053 28.3153612 33 35 C33.30618421 40.02945214 33.23884934 44.96425978 33 50 C26.565 50.495 26.565 50.495 20 51 C21.85625 52.2684375 21.85625 52.2684375 23.75 53.5625 C28.81405881 57.35382191 31.83732955 61.6702914 33 68 C33.08197613 70.31648688 33.10747793 72.63520889 33.09765625 74.953125 C33.0962413 75.61334656 33.09482635 76.27356812 33.09336853 76.95379639 C33.08779245 79.05257794 33.07524447 81.15125095 33.0625 83.25 C33.0574819 84.67708179 33.05291954 86.10416525 33.04882812 87.53125 C33.03868377 91.02090832 33.01910401 94.51033332 33 98 C27.72 98 22.44 98 17 98 C17 103.61 17 109.22 17 115 C11.39 115 5.78 115 0 115 C0.020625 113.75863281 0.04125 112.51726562 0.0625 111.23828125 C0.43933124 102.56442622 0.43933124 102.56442622 -2.671875 94.90234375 C-4.72658805 93.7094896 -4.72658805 93.7094896 -6.9296875 92.859375 C-11.08027133 91.13649115 -13.28510783 87.42978435 -15.25 83.5 C-17.11330818 77.28897273 -17.08696998 71.43577843 -17 65 C-12.38 64.67 -7.76 64.34 -3 64 C-4.051875 63.34 -5.10375 62.68 -6.1875 62 C-12.3378412 57.56777031 -15.10587652 52.00248564 -16.62280273 44.70654297 C-17.37553877 39.30535738 -17.20329423 33.8789493 -17.125 28.4375 C-17.11597656 27.23802734 -17.10695312 26.03855469 -17.09765625 24.80273438 C-17.07427512 21.86840218 -17.038411 18.93417394 -17 16 C-11.39 16 -5.78 16 0 16 C0 10.72 0 5.44 0 0 Z M1 33 C0.39556735 40.01657861 0.39556735 40.01657861 2.375 46.5625 C6.40705475 48.77052998 11.36213424 50 16 50 C16.59325458 42.63812536 16.59325458 42.63812536 14.1875 35.875 C11.11948009 33.24526865 8.71595743 32.87350889 4.8125 32.9375 C3.554375 32.958125 2.29625 32.97875 1 33 Z M1 65 C0.21144648 72.76593251 0.21144648 72.76593251 2.875 79.75 C7.28700906 81.51480362 11.30969751 81.3278658 16 81 C16.60840341 74.15794102 16.60840341 74.15794102 14.125 67.9375 C9.8453777 65.28413417 5.95871251 65.10591425 1 65 Z " fill="#8445F7" transform="translate(69,362)"/>
<path d="M0 0 C5.61 0 11.22 0 17 0 C17 5.94 17 11.88 17 18 C11.39 18 5.78 18 0 18 C0 12.06 0 6.12 0 0 Z " fill="#6C5AF0" transform="translate(69,329)"/>
<path d="M0 0 C5.94 0 11.88 0 18 0 C18 5.61 18 11.22 18 17 C12.06 17 6.12 17 0 17 C0 11.39 0 5.78 0 0 Z " fill="#477BE4" transform="translate(442,200)"/>
<path d="M0 0 C5.94 0 11.88 0 18 0 C18 5.61 18 11.22 18 17 C12.06 17 6.12 17 0 17 C0 11.39 0 5.78 0 0 Z " fill="#3D84E1" transform="translate(442,167)"/>
<path d="M0 0 C5.61 0 11.22 0 17 0 C17 5.61 17 11.22 17 17 C11.39 17 5.78 17 0 17 C0 11.39 0 5.78 0 0 Z " fill="#6363ED" transform="translate(69,297)"/>
<path d="M0 0 C2.5 1.4375 2.5 1.4375 4 4 C4.60303852 7.1300571 4.65919094 9.87600818 4 13 C1.45528778 16.06862356 -0.08941981 16.84823663 -4 17.5 C-7.83460553 16.86089908 -9.40320527 15.89357127 -12 13 C-13.1659741 8.99196403 -13.43240501 6.94717289 -11.6875 3.125 C-8.57390093 -0.79582845 -4.71214485 -0.63325267 0 0 Z " fill="#8843F8" transform="translate(252,419)"/>
</svg>
