<?xml version="1.0" encoding="UTF-8"?>
<svg version="1.1" xmlns="http://www.w3.org/2000/svg" width="512" height="512">
<path d="M0 0 C1.58633493 -0.00462208 3.17266556 -0.01098368 4.75898743 -0.01890898 C9.07027176 -0.03544621 13.38119719 -0.02742798 17.69248199 -0.0149641 C22.36060388 -0.00585125 27.02866736 -0.01991402 31.69677734 -0.03088379 C40.82272378 -0.04860751 49.94853812 -0.04485654 59.07448959 -0.03323323 C66.495797 -0.02417488 73.91706755 -0.02298526 81.33837891 -0.02732849 C82.39733022 -0.02794142 83.45628153 -0.02855436 84.54732227 -0.02918586 C86.69901404 -0.03046485 88.85070579 -0.0317617 91.00239754 -0.03307623 C111.14694185 -0.04446402 131.29141317 -0.03139663 151.43594551 -0.00987476 C168.69561478 0.00799457 185.95517642 0.00488995 203.21484375 -0.0135498 C223.29062164 -0.03498838 243.36633567 -0.04336555 263.44212341 -0.03110075 C265.5856018 -0.02982664 267.72908019 -0.02856916 269.87255859 -0.02732849 C270.92700574 -0.02671139 271.98145288 -0.02609429 273.06785297 -0.02545848 C280.47445022 -0.02201454 287.88100672 -0.02781326 295.28759766 -0.0372467 C304.32206923 -0.04850131 313.3564019 -0.04535414 322.3908577 -0.02412373 C326.99443448 -0.01365975 331.59778025 -0.00941145 336.20135498 -0.02272034 C340.42561319 -0.03474732 344.64942893 -0.02791441 348.87364769 -0.00681013 C350.39160926 -0.00238727 351.90960918 -0.00451153 353.42754555 -0.01431328 C366.64745757 -0.09304705 379.95380911 1.80856332 391.79296875 8.07043457 C392.44531494 8.40849121 393.09766113 8.74654785 393.76977539 9.09484863 C411.32281311 18.615285 423.72348878 34.58742048 429.74108887 53.58190918 C432.95917554 65.18810447 432.1727623 77.456938 432.12836742 89.3919301 C432.11923133 93.03209886 432.13332859 96.67219384 432.14428711 100.31234741 C432.16198659 107.42412886 432.15827087 114.53574056 432.14663655 121.64752841 C432.13756851 127.43223881 432.13639272 133.21690195 432.14073181 139.00161743 C432.14134474 139.82786261 432.14195768 140.65410779 432.14258918 141.5053907 C432.1438682 143.18438174 432.14516506 144.86337276 432.14647955 146.54236376 C432.15786023 162.25177645 432.1448112 177.96109545 432.12327808 193.67049277 C432.10540938 207.12253847 432.1085142 220.57444605 432.12695312 234.02648926 C432.14840437 249.68327447 432.15676183 265.33997777 432.14450407 280.99677563 C432.14323 282.66926764 432.14197251 284.34175967 432.14073181 286.01425171 C432.14011471 286.83694929 432.13949761 287.65964687 432.13886181 288.50727469 C432.13542164 294.27876521 432.14120834 300.05020338 432.15065002 305.82168579 C432.16191882 312.86420636 432.15872818 319.90654882 432.13752705 326.94904923 C432.12708174 330.53583329 432.12278182 334.12232139 432.13612366 337.70910263 C432.22217222 362.96851039 429.23094581 383.12115454 411.60546875 402.50793457 C405.66012302 408.47861558 399.29067405 413.01184034 391.85546875 416.88293457 C391.2732959 417.1927124 390.69112305 417.50249023 390.09130859 417.82165527 C377.83507891 423.78112128 364.63715845 425.10256614 351.2109375 425.01586914 C349.62460257 425.02049122 348.03827194 425.02685282 346.45195007 425.03477812 C342.14066574 425.05131535 337.82974031 425.04329712 333.51845551 425.03083324 C328.85033362 425.02172039 324.18227014 425.03578316 319.51416016 425.04675293 C310.38821372 425.06447665 301.26239938 425.06072568 292.13644791 425.04910237 C284.7151405 425.04004402 277.29386995 425.0388544 269.87255859 425.04319763 C268.81360728 425.04381056 267.75465597 425.0444235 266.66361523 425.045055 C264.51192346 425.04633399 262.36023171 425.04763085 260.20853996 425.04894537 C240.06399565 425.06033316 219.91952433 425.04726577 199.77499199 425.0257439 C182.51532272 425.00787457 165.25576108 425.01097919 147.99609375 425.02941895 C127.92031586 425.05085752 107.84460183 425.05923469 87.76881409 425.04696989 C85.6253357 425.04569578 83.48185731 425.0444383 81.33837891 425.04319763 C80.28393176 425.04258053 79.22948462 425.04196343 78.14308453 425.04132763 C70.73648728 425.03788368 63.32993078 425.0436824 55.92333984 425.05311584 C46.88886827 425.06437045 37.8545356 425.06122328 28.8200798 425.03999287 C24.21650302 425.02952889 19.61315725 425.02528059 15.00958252 425.03858948 C10.78532431 425.05061646 6.56150857 425.04378355 2.33728981 425.02267927 C0.81932824 425.01825641 -0.69867168 425.02038067 -2.21660805 425.03018242 C-15.43652007 425.10891619 -28.74287161 423.20730582 -40.58203125 416.94543457 C-41.23437744 416.60737793 -41.88672363 416.26932129 -42.55883789 415.92102051 C-60.11187561 406.40058414 -72.51255128 390.42844866 -78.53015137 371.43395996 C-81.74823804 359.82776467 -80.9618248 347.55893114 -80.91742992 335.62393904 C-80.90829383 331.98377028 -80.92239109 328.3436753 -80.93334961 324.70352173 C-80.95104909 317.59174028 -80.94733337 310.48012858 -80.93569905 303.36834073 C-80.92663101 297.58363033 -80.92545522 291.79896719 -80.92979431 286.01425171 C-80.93040724 285.18800653 -80.93102018 284.36176135 -80.93165168 283.51047844 C-80.9329307 281.8314874 -80.93422756 280.15249638 -80.93554205 278.47350538 C-80.94692273 262.76409269 -80.9338737 247.05477369 -80.91234058 231.34537637 C-80.89447188 217.89333067 -80.8975767 204.44142309 -80.91601562 190.98937988 C-80.93746687 175.33259467 -80.94582433 159.67589137 -80.93356657 144.01909351 C-80.9322925 142.3466015 -80.93103501 140.67410947 -80.92979431 139.00161743 C-80.92917721 138.17891985 -80.92856011 137.35622227 -80.92792431 136.50859445 C-80.92448414 130.73710393 -80.93027084 124.96566576 -80.93971252 119.19418335 C-80.95098132 112.15166278 -80.94779068 105.10932032 -80.92658955 98.06681991 C-80.91614424 94.48003585 -80.91184432 90.89354775 -80.92518616 87.30676651 C-81.01123472 62.04735875 -78.02000831 41.8947146 -60.39453125 22.50793457 C-54.44918552 16.53725356 -48.07973655 12.0040288 -40.64453125 8.13293457 C-40.0623584 7.82315674 -39.48018555 7.51337891 -38.88037109 7.19421387 C-26.62414141 1.23474786 -13.42622095 -0.086697 0 0 Z M-40.39453125 46.50793457 C-49.05839312 57.31665113 -50.86105872 69.23248184 -50.77548218 82.76550293 C-50.78016215 83.92716697 -50.78484212 85.08883101 -50.78966391 86.28569698 C-50.80153537 90.13984368 -50.79218728 93.99362961 -50.78271484 97.84777832 C-50.78513518 100.62660446 -50.79202025 103.40541575 -50.79864502 106.18423462 C-50.81192883 112.92528687 -50.80912863 119.66623845 -50.8004071 126.40729451 C-50.79360976 131.88981398 -50.79272265 137.3723054 -50.79597855 142.85482788 C-50.79643825 143.63751571 -50.79689794 144.42020353 -50.79737157 145.22660917 C-50.79833083 146.81702273 -50.79930347 148.40743628 -50.80028935 149.99784982 C-50.80882756 164.88310718 -50.7990338 179.76830895 -50.78288825 194.65355718 C-50.76948649 207.40354673 -50.77181503 220.15345431 -50.78564453 232.90344238 C-50.80172814 247.73835504 -50.80800373 262.57321907 -50.79880774 277.40813923 C-50.79785217 278.9924399 -50.79690906 280.57674058 -50.79597855 282.16104126 C-50.79551572 282.94038448 -50.79505289 283.7197277 -50.79457604 284.52268738 C-50.79199448 289.99352025 -50.79633908 295.46432208 -50.80341721 300.93515015 C-50.81186338 307.60957565 -50.80948694 314.28389542 -50.79357497 320.95830894 C-50.78573383 324.35850707 -50.78416562 327.75838498 -50.79252243 331.15860367 C-50.80076935 334.85603094 -50.7903778 338.55296972 -50.77548218 342.25036621 C-50.78552043 343.83780844 -50.78552043 343.83780844 -50.79576147 345.45732021 C-50.68840801 359.27782187 -47.53807625 370.69506253 -38.1015625 381.01574707 C-24.90654796 393.728273 -9.6865033 394.82083322 7.86254883 394.76190186 C9.37403164 394.76421075 10.88551332 394.76739013 12.39699268 394.77135634 C16.51972014 394.77965411 20.64235422 394.77560207 24.76508188 394.76938391 C29.22322609 394.76483975 33.68135477 394.77185288 38.13949585 394.77734375 C46.86088547 394.78621849 55.58224059 394.7843243 64.30363154 394.77851847 C71.39420653 394.77399442 78.48477188 394.77339229 85.5753479 394.7755661 C86.58603956 394.77587257 87.59673122 394.77617903 88.6380499 394.77649479 C90.69150472 394.77713426 92.74495954 394.77778269 94.79841435 394.77843997 C114.03574838 394.78413764 133.27306332 394.7775942 152.51039422 394.76683924 C169.00270726 394.75790424 185.49499215 394.75945644 201.98730469 394.76867676 C221.15767092 394.77938933 240.32802044 394.78358837 259.49838924 394.77745223 C261.54412269 394.77681516 263.58985615 394.77618642 265.6355896 394.7755661 C267.14524354 394.77510327 267.14524354 394.77510327 268.68539554 394.7746311 C275.7641956 394.77290712 282.84298503 394.77581285 289.92178345 394.78052521 C298.55312052 394.78614501 307.18442124 394.78459449 315.81575418 394.77396372 C320.21622356 394.7687218 324.61663241 394.76662496 329.01710129 394.77326202 C333.0512146 394.77925433 337.08521167 394.77589264 341.11931455 394.76530692 C342.57272521 394.76308673 344.02614584 394.76417783 345.47955 394.7690585 C362.35298 394.82134105 376.91521258 392.88478168 389.5703125 380.75793457 C400.83282184 368.3064847 402.07821929 354.51993753 401.8984375 338.36340332 C401.89282548 336.85741097 401.888563 335.35141305 401.88557434 333.84541321 C401.87425166 329.92780793 401.844897 326.01054922 401.8114624 322.09307861 C401.78048623 318.07711471 401.76701084 314.06109349 401.75195312 310.04504395 C401.72001177 302.19918474 401.66897296 294.35360865 401.60546875 286.50793457 C401.0060015 286.50646801 400.40653425 286.50500145 399.78890133 286.50349045 C385.13768075 286.46628343 370.48665993 286.40708658 355.83563137 286.32403183 C348.75019944 286.28438439 341.66487628 286.25191993 334.5793457 286.23693848 C328.3966776 286.22384716 322.21425025 286.19669469 316.03171784 286.1533215 C312.76430055 286.13087258 309.49723832 286.11711309 306.22973442 286.11605072 C289.55489539 286.10518388 274.42056969 285.76856699 259.35546875 277.82043457 C258.69345459 277.47722168 258.03144043 277.13400879 257.34936523 276.78039551 C240.0074319 267.46912101 228.40211183 251.59294629 222.70043945 232.84289551 C217.21981786 212.66938328 220.49830176 192.33854598 230.41796875 174.19934082 C239.54000512 158.39403314 254.8156722 146.64240931 272.41307354 141.7230711 C280.05463286 139.8443833 287.15143298 139.06498858 295.00512695 139.07556152 C296.1677002 139.06536987 297.33027344 139.05517822 298.52807617 139.04467773 C302.3208514 139.01479856 306.11337306 139.0053202 309.90625 138.99621582 C312.55569702 138.9793505 315.20511175 138.96134035 317.85453796 138.94181824 C324.08374739 138.8984021 330.31293116 138.86970329 336.54224509 138.84649485 C343.64285032 138.81930846 350.74332278 138.77540619 357.84383261 138.73020613 C372.43096653 138.63771707 387.01815713 138.56587408 401.60546875 138.50793457 C401.6754149 129.86638605 401.72850397 121.2249586 401.76090527 112.58319569 C401.77646733 108.56915499 401.79752927 104.55530997 401.83178711 100.54138184 C401.86472247 96.65747379 401.88239259 92.77375227 401.89010048 88.88971519 C401.89558341 87.41836301 401.90628735 85.94701938 401.92265892 84.47574806 C402.08955081 68.83537947 400.16824159 55.87301151 389.3125 44.00012207 C376.11748546 31.28759614 360.8974408 30.19503592 343.34838867 30.25396729 C341.83690586 30.25165839 340.32542418 30.24847901 338.81394482 30.2445128 C334.69121736 30.23621503 330.56858328 30.24026707 326.44585562 30.24648523 C321.98771141 30.25102939 317.52958273 30.24401626 313.07144165 30.23852539 C304.35005203 30.22965065 295.62869691 30.23154484 286.90730596 30.23735067 C279.81673097 30.24187472 272.72616562 30.24247685 265.6355896 30.24030304 C264.62489794 30.23999657 263.61420628 30.23969011 262.5728876 30.23937435 C260.51943278 30.23873488 258.46597796 30.23808645 256.41252315 30.23742917 C237.17518912 30.2317315 217.93787418 30.23827494 198.70054328 30.2490299 C182.20823024 30.2579649 165.71594535 30.2564127 149.22363281 30.24719238 C130.05326658 30.23647981 110.88291706 30.23228077 91.71254826 30.23841691 C89.66681481 30.23905398 87.62108135 30.23968272 85.5753479 30.24030304 C84.06569396 30.24076587 84.06569396 30.24076587 82.52554196 30.24123804 C75.4467419 30.24296202 68.36795247 30.24005629 61.28915405 30.23534393 C52.65781698 30.22972413 44.02651626 30.23127465 35.39518332 30.24190542 C30.99471394 30.24714734 26.59430509 30.24924418 22.19383621 30.24260712 C18.1597229 30.23661481 14.12572583 30.2399765 10.09162295 30.25056222 C8.63821229 30.25278241 7.18479166 30.25169131 5.7313875 30.24681064 C-12.20260436 30.19124193 -27.80983183 32.59471601 -40.39453125 46.50793457 Z M260.60546875 183.50793457 C252.91100302 192.93812861 249.01196466 204.22654089 249.7890625 216.37902832 C251.32688098 228.57059956 257.08376573 239.47373252 266.69921875 247.18762207 C277.75822984 255.01459823 288.37339239 256.66837697 301.58959961 256.62145996 C302.67326813 256.62160599 303.75693665 256.62175201 304.8734436 256.62190247 C308.43908725 256.62120833 312.00467803 256.61343934 315.5703125 256.60559082 C318.04895499 256.60372487 320.52759785 256.6023018 323.00624084 256.6013031 C329.51800562 256.5974919 336.02974797 256.58767354 342.54150391 256.57659912 C350.36097835 256.56391399 358.18046477 256.55997611 365.99994659 256.55414581 C377.86846957 256.54446104 389.73694334 256.52529468 401.60546875 256.50793457 C401.60546875 227.46793457 401.60546875 198.42793457 401.60546875 168.50793457 C382.12109952 168.4497297 382.12109952 168.4497297 362.63671875 168.41027832 C354.68584384 168.39833876 346.7350199 168.38423802 338.78417969 168.35705566 C332.37159596 168.33527035 325.95906183 168.32335391 319.54644394 168.31818008 C317.10412694 168.31449455 314.66181255 168.30729767 312.21951675 168.29647446 C308.7896775 168.28188409 305.36004125 168.2799598 301.93017578 168.28088379 C300.92819656 168.27369324 299.92621735 168.26650269 298.89387512 168.25909424 C284.25735967 168.30155476 270.74970046 172.43116138 260.60546875 183.50793457 Z " fill="#000000" transform="translate(80.39453125,43.4920654296875)"/>
<path d="M0 0 C2.0898686 -0.0171578 4.17813146 -0.06103617 6.26757812 -0.10522461 C7.6061082 -0.11535709 8.94465169 -0.12387146 10.28320312 -0.13061523 C12.10223145 -0.15248901 12.10223145 -0.15248901 13.95800781 -0.17480469 C18.83738954 0.49899803 21.9537748 2.6934674 25.17382812 6.35766602 C27.68894178 10.46127251 27.84986398 14.61410432 27.36132812 19.29516602 C25.40746892 24.64257016 22.44896526 27.75134745 17.36132812 30.29516602 C13.15203109 30.55335048 8.93886229 30.56621974 4.72265625 30.59033203 C2.63278765 30.60748983 0.54452479 30.6513682 -1.54492188 30.69555664 C-2.88345195 30.70568912 -4.22199544 30.71420349 -5.56054688 30.72094727 C-7.3795752 30.74282104 -7.3795752 30.74282104 -9.23535156 30.76513672 C-14.11473329 30.091334 -17.23111855 27.89686463 -20.45117188 24.23266602 C-22.96628553 20.12905952 -23.12720773 15.97622771 -22.63867188 11.29516602 C-18.51727936 0.01556546 -10.39742383 0.05946239 0 0 Z " fill="#000000" transform="translate(381.638671875,240.704833984375)"/>
</svg>
