<?xml version="1.0" encoding="UTF-8"?>
<svg version="1.1" xmlns="http://www.w3.org/2000/svg" width="512" height="512">
<path d="M0 0 C1.63983874 -0.01440519 3.27965397 -0.03173833 4.91943359 -0.05177307 C9.36618345 -0.09645798 13.81187747 -0.09647687 18.25879955 -0.08570409 C21.97629127 -0.08046853 25.69357486 -0.09634107 29.41102815 -0.11195368 C38.18629446 -0.14818112 46.96103395 -0.14751059 55.73632812 -0.12402344 C64.77441247 -0.10048271 73.8107155 -0.13911494 82.84852386 -0.20856005 C90.61955746 -0.26604942 98.39002885 -0.28457068 106.16126466 -0.27220815 C110.79759124 -0.26522698 115.43270182 -0.27277123 120.06884003 -0.31788826 C124.43311845 -0.35866904 128.79469216 -0.35053038 133.15890503 -0.30576134 C134.75437017 -0.29737882 136.35003236 -0.30580897 137.94528961 -0.33289337 C149.91675646 -0.52104647 149.91675646 -0.52104647 155.13495636 3.07602119 C157.68354281 5.58151763 159.8782988 8.12300254 162.05566406 10.95336914 C163.55435949 12.7253067 165.05420282 14.4962746 166.55566406 16.26586914 C168.06199159 18.15667887 169.5618686 20.05264319 171.05566406 21.95336914 C171.82394531 22.90469727 172.59222656 23.85602539 173.38378906 24.83618164 C201.05566406 59.73844979 201.05566406 59.73844979 201.05566406 69.95336914 C199.94191406 70.29368164 198.82816406 70.63399414 197.68066406 70.98461914 C176.51389259 77.63222801 159.0805913 87.53757656 143.05566406 102.95336914 C142.42144531 103.51282227 141.78722656 104.07227539 141.13378906 104.64868164 C126.40889633 118.04132218 117.64000311 138.26731156 112.05566406 156.95336914 C111.39566406 156.95336914 110.73566406 156.95336914 110.05566406 156.95336914 C109.90871094 156.20313477 109.76175781 155.45290039 109.61035156 154.67993164 C107.3262185 144.25693366 103.66341522 135.86918257 94.77832031 129.53540039 C87.77330954 125.46505697 80.01915866 122.95649892 72.37988281 120.35180664 C71.60708984 120.08634033 70.83429688 119.82087402 70.03808594 119.54736328 C68.53408917 119.03520438 67.0263203 118.53396296 65.51464844 118.04492188 C60.27513346 116.28257323 60.27513346 116.28257323 58.05566406 112.95336914 C57.71427766 110.22227794 57.5915957 108.64780237 59.14160156 106.32836914 C63.54623463 103.16422457 70.8178593 104.21192706 76.05566406 104.95336914 C80.28169767 106.2377519 84.14094377 107.91931516 88.05566406 109.95336914 C91.5270997 111.68908696 95.26010225 111.41982707 99.05566406 110.95336914 C102.91553802 108.95195301 106.05012805 106.85888664 108.05566406 102.95336914 C109.31667454 98.33880183 109.56679141 94.24751936 107.74316406 89.76586914 C102.78058265 81.24648876 91.92388462 78.54374284 83.05566406 75.95336914 C83.01699219 75.1006543 83.01699219 75.1006543 82.97753906 74.23071289 C82.55082219 68.4215446 81.4769608 64.70517016 78.05566406 59.95336914 C74.3156793 56.92094906 70.83987851 56.1155459 66.05566406 55.95336914 C61.97897448 56.80840516 58.9064297 58.25932349 55.68066406 60.89086914 C53.928461 64.19309799 53.80741358 66.21096174 53.49316406 69.89086914 C52.97656045 73.78931305 52.73755567 75.39069715 49.66503906 77.92602539 C46.83847174 79.40354922 43.99078179 80.70765057 41.05566406 81.95336914 C33.62938022 86.57416797 29.68297487 95.28383804 27.52441406 103.51977539 C25.52934149 113.87752716 28.3651869 123.67390436 34.09350586 132.42871094 C41.26634825 141.65782169 51.95906442 145.19531103 62.61816406 148.70336914 C64.66719167 149.38324195 66.71345885 150.06866295 68.75437927 150.77252197 C70.58095248 151.40203323 72.41493949 152.00991196 74.24926758 152.61645508 C77.05566406 153.95336914 77.05566406 153.95336914 78.46557617 155.9465332 C79.26020316 158.64898824 78.96226842 160.30329487 78.05566406 162.95336914 C72.63821056 166.56500481 65.3840055 165.60739047 59.15332031 164.38305664 C55.58443411 163.36337487 52.55091808 162.25282506 49.36816406 160.32836914 C45.6804485 158.1356734 42.20330021 157.5029286 37.96972656 158.39086914 C33.33407184 159.90736585 30.70518341 161.71413819 28.05566406 165.95336914 C26.24412368 171.38799028 26.32449356 175.27971799 28.58300781 180.44946289 C31.13734819 184.67518974 34.52872273 186.29913022 38.93066406 188.26586914 C39.62546875 188.5990918 40.32027344 188.93231445 41.03613281 189.27563477 C44.96410937 191.12866325 48.89939676 192.67000761 53.05566406 193.95336914 C53.18521484 195.16573242 53.18521484 195.16573242 53.31738281 196.40258789 C54.15138376 203.20356153 54.15138376 203.20356153 57.43066406 209.07836914 C62.64048637 212.79967079 66.68020344 213.8609868 73.05566406 212.95336914 C77.03917269 210.88784615 79.68707284 208.74581435 82.05566406 204.95336914 C82.47349663 202.34115457 82.47349663 202.34115457 82.61816406 199.57836914 C83.16760045 196.01650565 83.46836937 194.46038614 86.22753906 192.07836914 C87.99126451 191.0764896 89.7801972 190.11777278 91.59082031 189.20336914 C97.07791147 186.42069217 100.27981309 181.44343609 103.72363281 176.52758789 C104.16320312 176.0080957 104.60277344 175.48860352 105.05566406 174.95336914 C105.71566406 174.95336914 106.37566406 174.95336914 107.05566406 174.95336914 C107.03209839 175.80378784 107.03209839 175.80378784 107.00805664 176.67138672 C106.16830567 211.88777853 114.73948377 243.63734667 139.11035156 269.92993164 C140.31509945 271.18306298 141.54548337 272.4127108 142.81347656 273.60180664 C144.05566406 274.95336914 144.05566406 274.95336914 144.05566406 276.95336914 C138.77405575 278.36182253 133.61164016 279.39335294 128.17285156 279.98852539 C127.08011429 280.1136274 127.08011429 280.1136274 125.96530151 280.24125671 C123.62114529 280.5065192 121.27610504 280.76223355 118.93066406 281.01586914 C117.72730408 281.14801819 117.72730408 281.14801819 116.49963379 281.28283691 C103.69496287 282.68116192 90.94114677 283.73300789 78.05566406 283.95336914 C77.37874512 283.96851563 76.70182617 283.98366211 76.00439453 283.99926758 C71.35192956 284.09466696 66.70729744 284.0486106 62.05566406 283.95336914 C61.21922363 283.94080078 60.3827832 283.92823242 59.52099609 283.9152832 C18.2216718 283.19473241 -49.47708102 281.65267227 -80.31933594 250.77368164 C-90.37820502 239.9663848 -97.14744693 226.18024867 -97.24511719 211.23852539 C-97.25071655 210.51444992 -97.25631592 209.79037445 -97.26208496 209.0443573 C-97.27396438 206.70131462 -97.26772701 204.358911 -97.25683594 202.01586914 C-97.25501312 201.21169556 -97.25319031 200.40752197 -97.25131226 199.57897949 C-97.1989812 185.85699283 -96.36678659 172.48301376 -93.94433594 158.95336914 C-93.6789502 157.47054443 -93.6789502 157.47054443 -93.40820312 155.95776367 C-85.61644442 113.74903968 -70.04670034 72.03773051 -44.94433594 36.95336914 C-44.42822754 36.22972168 -43.91211914 35.50607422 -43.38037109 34.76049805 C-31.17442588 17.7287061 -31.17442588 17.7287061 -24.00683594 10.15649414 C-21.96566356 8.1543477 -21.96566356 8.1543477 -20.99096298 6.2404871 C-16.18238466 -1.36680716 -8.01992009 -0.05308489 0 0 Z " fill="#A024B2" transform="translate(144.9443359375,183.046630859375)"/>
<path d="M0 0 C17.10100123 13.9310485 31.03760493 34.51378265 34.05322266 56.79199219 C36.76718188 84.13386715 31.88842741 108.69767957 14.6171875 130.43359375 C-0.36064332 148.02500579 -20.46744876 160.31311515 -43.7109375 163.16796875 C-68.2940111 165.0813999 -92.85168825 160.85288237 -112.51171875 144.89453125 C-114.96804046 142.70385618 -117.3557311 140.46658054 -119.7109375 138.16796875 C-120.6184375 137.30171875 -121.5259375 136.43546875 -122.4609375 135.54296875 C-123.2034375 134.75921875 -123.9459375 133.97546875 -124.7109375 133.16796875 C-125.15566406 132.70648438 -125.60039062 132.245 -126.05859375 131.76953125 C-141.8566062 114.49703763 -148.51805767 91.1751198 -147.99609375 68.140625 C-146.431344 46.34130318 -138.35997773 26.45320195 -123.7109375 10.16796875 C-122.77314453 9.10642578 -122.77314453 9.10642578 -121.81640625 8.0234375 C-90.64421659 -25.24877336 -35.39799387 -27.69350646 0 0 Z " fill="#C33AB8" transform="translate(429.7109375,298.83203125)"/>
<path d="M0 0 C1.40190193 -0.00135019 2.8038034 -0.00329367 4.20570374 -0.00579834 C7.13319388 -0.00873393 10.06056132 -0.00450336 12.98803711 0.00488281 C16.71771762 0.01626587 20.44710983 0.00971528 24.17677975 -0.00226212 C27.06891502 -0.0095323 29.96098337 -0.00716909 32.8531208 -0.00200653 C34.22727048 -0.0006837 35.60142648 -0.00226914 36.97556877 -0.00696564 C50.71804636 -0.04363261 59.37949822 1.26898159 69.34765625 11.015625 C74.56441182 18.76623327 75.16874009 26.22612183 73.53515625 35.265625 C72.24228735 39.54890553 70.58683946 43.64390534 68.87109375 47.7734375 C68.16564926 49.5207869 68.16564926 49.5207869 67.44595337 51.30343628 C66.19985887 54.38213021 64.941301 57.45507458 63.67614746 60.52593994 C62.41384464 63.59881751 61.16885001 66.67868985 59.921875 69.7578125 C57.56549651 75.56683894 55.19104111 81.36821227 52.80749512 87.1661377 C51.63233604 90.0288897 50.46363707 92.89416291 49.29785156 95.76074219 C48.66086843 97.32229057 48.02382929 98.8838161 47.38671875 100.4453125 C47.10492767 101.14077179 46.8231366 101.83623108 46.5328064 102.55276489 C44.64883964 107.15194161 44.64883964 107.15194161 43.53515625 108.265625 C41.77622195 108.36194545 40.01338466 108.3875001 38.2518158 108.38587952 C37.10611618 108.38725418 35.96041656 108.38862885 34.77999878 108.39004517 C33.51189362 108.38644989 32.24378845 108.38285461 30.93725586 108.37915039 C29.59722394 108.37886852 28.25719186 108.37902625 26.91716003 108.3795929 C23.26856187 108.37988087 19.6199963 108.3739842 15.97140574 108.36701894 C12.16238109 108.36078534 8.35335575 108.3601816 4.54432678 108.35899353 C-2.67342129 108.35588023 -9.89115429 108.34766686 -17.10889572 108.33764404 C-25.32399632 108.32648286 -33.53909763 108.32097244 -41.75420392 108.31594861 C-58.65775926 108.30548425 -75.56129991 108.28788483 -92.46484375 108.265625 C-94.35325034 104.49823224 -96.24057823 100.73030146 -98.1269989 96.96191406 C-98.76602057 95.6857317 -99.40531361 94.40968518 -100.04490662 93.13378906 C-120.1123785 53.0993255 -120.1123785 53.0993255 -116.78125 40.7265625 C-113.37487911 32.50038881 -108.45447261 27.15368268 -100.44464111 23.29776001 C-94.84879311 21.3594837 -89.22330614 21.65740035 -83.36328125 21.77734375 C-81.38686142 21.78795586 -81.38686142 21.78795586 -79.37051392 21.79878235 C-75.90133471 21.8176912 -72.43323575 21.86664567 -68.96447754 21.92230225 C-65.41136277 21.97384844 -61.85807 21.99637103 -58.3046875 22.02148438 C-51.35763476 22.07478579 -44.4112914 22.1598963 -37.46484375 22.265625 C-37.32312744 21.32468994 -37.18141113 20.38375488 -37.03540039 19.41430664 C-36.02599553 13.84379123 -32.86064573 9.31070133 -28.5703125 5.6484375 C-19.71145027 -0.25747065 -10.30198418 -0.03514968 0 0 Z " fill="#DE4CBE" transform="translate(235.46484375,44.734375)"/>
</svg>
